<svg id="fc921ab2-5613-45fe-943c-11137bcdae00" data-name="Слой 1" xmlns="http://www.w3.org/2000/svg" xmlns:xlink="http://www.w3.org/1999/xlink" viewBox="0 0 232.14 232.14"><defs><linearGradient id="fd391e6d-7f9b-47f8-b2b1-87dfa63df84f" x1="112.39" y1="213.55" x2="112.39" y2="4.32" gradientUnits="userSpaceOnUse"><stop offset="0.07" stop-color="#eacc7b"/><stop offset="0.18" stop-color="#ecaa59"/><stop offset="0.31" stop-color="#ef802e"/><stop offset="0.36" stop-color="#ef6d3a"/><stop offset="0.46" stop-color="#f04b50"/><stop offset="0.52" stop-color="#f03e58"/><stop offset="0.62" stop-color="#db359e"/><stop offset="0.68" stop-color="#ce37a4"/><stop offset="0.75" stop-color="#ac3cb4"/><stop offset="0.83" stop-color="#7544cf"/><stop offset="0.94" stop-color="#2b4ff2"/></linearGradient></defs><title>social-side-icon-instagram</title><circle cx="112.39" cy="108.94" r="104.61" style="fill:url(#fd391e6d-7f9b-47f8-b2b1-87dfa63df84f)"/><path d="M112.4,76.39a32.55,32.55,0,1,0,32.54,32.55A32.49,32.49,0,0,0,112.4,76.39Zm0,53.7a21.16,21.16,0,1,1,21.16-21.15,21.2,21.2,0,0,1-21.16,21.15Zm41.46-55a7.59,7.59,0,1,1-7.59-7.59A7.57,7.57,0,0,1,153.86,75.06Zm21.56,7.71c-.48-10.17-2.81-19.18-10.26-26.6s-16.42-9.74-26.59-10.25c-10.48-.6-41.89-.6-52.37,0-10.14.48-19.14,2.8-26.59,10.22s-9.74,16.43-10.25,26.6c-.6,10.48-.6,41.89,0,52.36.48,10.17,2.8,19.18,10.25,26.6S76,171.44,86.2,172c10.48.6,41.89.6,52.37,0,10.17-.48,19.17-2.8,26.59-10.25s9.75-16.43,10.26-26.6c.59-10.47.59-41.85,0-52.33Zm-13.54,63.58a21.4,21.4,0,0,1-12.07,12.06c-8.35,3.32-28.18,2.55-37.41,2.55s-29.09.74-37.41-2.55a21.43,21.43,0,0,1-12.07-12.06c-3.31-8.36-2.55-28.18-2.55-37.41s-.73-29.09,2.55-37.42A21.4,21.4,0,0,1,75,59.46c8.35-3.32,28.18-2.55,37.41-2.55s29.09-.74,37.41,2.55a21.4,21.4,0,0,1,12.07,12.06c3.31,8.36,2.55,28.18,2.55,37.42S165.19,138,161.88,146.35Z" style="fill:#f2f2f2"/></svg>