<svg id="fff2b779-96cd-47e6-9f12-634170c39447" data-name="Layer 1" xmlns="http://www.w3.org/2000/svg" xmlns:xlink="http://www.w3.org/1999/xlink" viewBox="0 0 232.1 232.1"><defs><linearGradient id="e4f05198-6979-4dbe-af4e-f48a8c1c021d" x1="-1336.77" y1="257.52" x2="-1483.21" y2="403.96" gradientTransform="translate(442.24 1519.09) rotate(90)" gradientUnits="userSpaceOnUse"><stop offset="0.7" stop-color="#f2f2f2" stop-opacity="0"/><stop offset="1" stop-color="#f2f2f2" stop-opacity="0.3"/></linearGradient></defs><g id="fd0eb097-aef0-47e6-b8e6-4410985c7710" data-name="bb10fd87-6966-4cde-a261-113be9fc6ec7"><circle cx="112.4" cy="108.9" r="104.6" style="fill:#bf041c"/><ellipse cx="111.5" cy="109.1" rx="103.5" ry="103.6" style="fill:url(#e4f05198-6979-4dbe-af4e-f48a8c1c021d)"/><path d="M174.2,75.2l-35.5,35.5,34.6,34.6a11.94,11.94,0,0,0,1.7-6.1V79.5A12.6,12.6,0,0,0,174.2,75.2Z" style="fill:#f2f2f2"/><path d="M162.8,67.3H62.3a11.92,11.92,0,0,0-5.6,1.4L110.1,122a4.3,4.3,0,0,0,5.8,0L169,69A12.58,12.58,0,0,0,162.8,67.3Z" style="fill:#f2f2f2"/><path d="M51.1,74.6a11.62,11.62,0,0,0-1,4.9v59.7a12.51,12.51,0,0,0,1.6,6l35-35Z" style="fill:#f2f2f2"/><path d="M132.9,116.5l-11.3,11.3a12.38,12.38,0,0,1-17.3,0L92.5,116,57.9,150.6a13.28,13.28,0,0,0,4.4.9H162.8a12.6,12.6,0,0,0,4.3-.8Z" style="fill:#f2f2f2"/></g></svg>