<?xml version="1.0" encoding="utf-8"?>
<!-- Generator: Adobe Illustrator 24.0.1, SVG Export Plug-In . SVG Version: 6.00 Build 0)  -->
<svg version="1.1" id="Layer_1" xmlns="http://www.w3.org/2000/svg" xmlns:xlink="http://www.w3.org/1999/xlink" x="0px" y="0px"
	 viewBox="0 0 232.1 232.1" style="enable-background:new 0 0 232.1 232.1;" xml:space="preserve">
<style type="text/css">
	.st0{fill:#BF041C;}
	.st1{fill:url(#SVGID_1_);}
	.st2{fill:#F2F2F2;}
</style>
<g>
	<g id="bb10fd87-6966-4cde-a261-113be9fc6ec7">
		<circle class="st0" cx="116.1" cy="116.1" r="104.6"/>
		
			<linearGradient id="SVGID_1_" gradientUnits="userSpaceOnUse" x1="-1453.8097" y1="102.9303" x2="-1600.2302" y2="-43.4903" gradientTransform="matrix(6.123234e-17 1 1 -6.123234e-17 86.35 1643.09)">
			<stop  offset="0.7" style="stop-color:#F2F2F2;stop-opacity:0"/>
			<stop  offset="1" style="stop-color:#F2F2F2;stop-opacity:0.3"/>
		</linearGradient>
		<ellipse class="st1" cx="116.1" cy="116.1" rx="103.5" ry="103.6"/>
		<path class="st2" d="M174.2,75.2l-35.5,35.5l34.6,34.6c1.1-1.8,1.7-4,1.7-6.1V79.5C175,78,174.7,76.6,174.2,75.2z"/>
		<path class="st2" d="M162.8,67.3H62.3c-2,0-3.9,0.5-5.6,1.4l53.4,53.3c1.6,1.5,4.1,1.5,5.8,0l53.1-53
			C167.1,67.9,164.9,67.3,162.8,67.3z"/>
		<path class="st2" d="M51.1,74.6c-0.7,1.5-1,3.2-1,4.9v59.7c0,2.1,0.6,4.2,1.6,6l35-35L51.1,74.6z"/>
		<path class="st2" d="M132.9,116.5l-11.3,11.3c-4.8,4.7-12.5,4.7-17.3,0L92.5,116l-34.6,34.6c1.4,0.6,2.9,0.8,4.4,0.9h100.5
			c1.5,0,2.9-0.3,4.3-0.8L132.9,116.5z"/>
	</g>
</g>
</svg>
