<svg id="af16079b-f9f4-49b0-b81e-84c7315bc5fb" data-name="fc1ca27f-00f7-44ca-9a23-e50372ec2db3" xmlns="http://www.w3.org/2000/svg" xmlns:xlink="http://www.w3.org/1999/xlink" viewBox="0 0 232.1 232.1"><defs><linearGradient id="a33de441-2312-4d2d-ac9f-fdd65a7ffaa9" x1="107.01" y1="11.04" x2="107.01" y2="11.25" gradientTransform="translate(-106893 -11039.25) scale(1000)" gradientUnits="userSpaceOnUse"><stop offset="0" stop-color="#2aabee"/><stop offset="1" stop-color="#229ed9"/></linearGradient><linearGradient id="bc1cfbc8-eb60-43d9-86b0-11ad14f8b504" x1="-778.17" y1="412.81" x2="-924.61" y2="266.37" gradientTransform="matrix(0, 1, 1, 0, -227.49, 961.09)" gradientUnits="userSpaceOnUse"><stop offset="0.7" stop-color="#f2f2f2" stop-opacity="0"/><stop offset="1" stop-color="#f2f2f2" stop-opacity="0.3"/></linearGradient></defs><g id="a4e2cef3-464b-4a5b-844d-6854bafab3cb" data-name="b8bd8c9f-2345-461f-9643-f26768e873ef"><circle id="aae0054b-5afb-4644-8aa6-a61e0b01b963" data-name="bf9f2367-bb0d-4809-a75e-600fca44c388" cx="112.4" cy="109.7" r="104.54" style="fill:url(#a33de441-2312-4d2d-ac9f-fdd65a7ffaa9)"/><path id="eb2ebed8-00be-40e5-bce7-d00617db7b80" data-name="aa39fb93-487b-4b1c-b96e-9a84b7adaed0" d="M55.18,108.6q45.72-19.92,61-26.26c29-12.08,35.06-14.18,39-14.25a6.9,6.9,0,0,1,4,1.22,4.43,4.43,0,0,1,1.45,2.85,18.76,18.76,0,0,1,.18,4.1c-1.57,16.53-8.38,56.64-11.85,75.16-1.46,7.83-4.35,10.46-7.14,10.72-6.07.55-10.68-4-16.56-7.87-9.2-6-14.4-9.79-23.33-15.67-10.32-6.8-3.63-10.54,2.25-16.65,1.54-1.6,28.29-25.93,28.81-28.14a2.18,2.18,0,0,0-.49-1.85,2.43,2.43,0,0,0-2.16-.21q-1.39.31-44.1,29.15Q80,125.19,75,125.09C71.22,125,64,123,58.7,121.24,52.15,119.11,47,118,47.4,114.37Q47.76,111.55,55.18,108.6Z" style="fill:#fff;fill-rule:evenodd"/></g><ellipse cx="112.1" cy="109.7" rx="103.5" ry="103.6" style="fill:url(#bc1cfbc8-eb60-43d9-86b0-11ad14f8b504)"/></svg>