<svg id="b7e1b0ed-d85a-4ca5-835c-55a8af8f2ddc" data-name="Layer 1" xmlns="http://www.w3.org/2000/svg" xmlns:xlink="http://www.w3.org/1999/xlink" viewBox="0 0 232.1 232.1"><defs><linearGradient id="fb6aa8b8-70bf-4d01-90d5-cf0996d97190" x1="-510.17" y1="-571.48" x2="-656.61" y2="-425.04" gradientTransform="translate(-385.76 691.09) rotate(90)" gradientUnits="userSpaceOnUse"><stop offset="0.7" stop-color="#f2f2f2" stop-opacity="0"/><stop offset="1" stop-color="#f2f2f2" stop-opacity="0.3"/></linearGradient></defs><title>social-side-icon-vk_noshadow</title><g id="a242e2a5-f8a5-47f4-8ad1-e205c29518d8" data-name="fe98ab54-571a-49c3-8e6d-85754e60b573"><circle cx="112.4" cy="108.9" r="104.6" style="fill:#0071bc"/><ellipse cx="112.5" cy="107.7" rx="103.5" ry="103.6" style="fill:url(#fb6aa8b8-70bf-4d01-90d5-cf0996d97190)"/><path d="M107.3,146.8h7.3a5.72,5.72,0,0,0,3.3-1.6,6.53,6.53,0,0,0,1-3.6s-.2-10.9,4.4-12.5,10.3,10.5,16.4,15.2c4.6,3.5,8.2,2.7,8.2,2.7l16.4-.3s8.6-.6,4.5-8.1c-.3-.6-2.4-5.5-12.2-15.6-10.3-10.6-8.9-8.9,3.5-27.2,7.5-11.1,10.6-17.9,9.6-20.8s-6.4-2-6.4-2l-18.5.1a4,4,0,0,0-2.4.5,5,5,0,0,0-1.6,2.2A124.61,124.61,0,0,1,134,91.7c-8.2,15.5-11.5,16.3-12.8,15.3-3.1-2.2-2.3-9-2.3-13.8,0-15,2.1-21.2-4-22.8a31,31,0,0,0-8.6-1c-6.6-.1-12.2,0-15.3,1.7-2.1,1.1-3.7,3.7-2.7,3.8,1.2.2,4,.8,5.4,3,1.9,2.8,1.8,9.3,1.8,9.3s1.1,17.7-2.5,19.9c-2.5,1.5-5.9-1.6-13.2-15.6a143.83,143.83,0,0,1-6.6-15.1,5.74,5.74,0,0,0-1.5-2.3,7.19,7.19,0,0,0-2.8-1.3l-17.5.1s-2.6.1-3.6,1.3-.1,3.5-.1,3.5,13.7,35.6,29.2,53.5c14.2,16.6,30.4,15.6,30.4,15.6" style="fill:#f2f2f2"/></g></svg>