<svg id="afa8ebc6-f270-4863-851e-362db1085259" data-name="Layer 1" xmlns="http://www.w3.org/2000/svg" xmlns:xlink="http://www.w3.org/1999/xlink" viewBox="0 0 232.1 232.1"><defs><linearGradient id="b8443754-5be6-4c13-970a-9db180758795" x1="-1074.57" y1="-6.48" x2="-1221.01" y2="139.96" gradientTransform="translate(179.24 1256.09) rotate(90)" gradientUnits="userSpaceOnUse"><stop offset="0.7" stop-color="#f2f2f2" stop-opacity="0"/><stop offset="1" stop-color="#f2f2f2" stop-opacity="0.3"/></linearGradient></defs><title>social-side-icon-whatsup_noshadow</title><g id="a8ffdb10-992a-41fb-8e94-dbf02c7ada2f" data-name="e5e60f71-c133-40df-aaab-ac608bb4fca8"><circle cx="112.4" cy="108.9" r="104.6" style="fill:#39b54a"/><ellipse cx="112.5" cy="108.3" rx="103.5" ry="103.6" style="fill:url(#b8443754-5be6-4c13-970a-9db180758795)"/><path d="M156.8,64.5a62.34,62.34,0,0,0-98.1,75.2L49.9,172,83,163.3a62,62,0,0,0,29.8,7.6h0a62.35,62.35,0,0,0,62.4-62.4,63.8,63.8,0,0,0-18.4-44m-44.2,96h0a52.1,52.1,0,0,1-26.4-7.2l-1.9-1.1-19.6,5.1,5.2-19.1-1.2-2a51.87,51.87,0,1,1,71.5,16.4,52.68,52.68,0,0,1-27.6,7.9m28.5-38.9c-1.6-.8-9.2-4.6-10.6-5.1s-2.5-.8-3.5.8a68.41,68.41,0,0,1-4.9,6.1c-.9,1-1.8,1.2-3.4.4a41.4,41.4,0,0,1-12.5-7.7,50.3,50.3,0,0,1-8.7-10.8c-.9-1.6-.1-2.4.7-3.2a29.77,29.77,0,0,0,2.3-2.7,14,14,0,0,0,1.6-2.6,2.86,2.86,0,0,0-.1-2.7c-.4-.8-3.5-8.4-4.8-11.6s-2.6-2.6-3.5-2.7a29.08,29.08,0,0,0-3-.1,6.2,6.2,0,0,0-4.2,2,17.76,17.76,0,0,0-5.5,13c0,7.7,5.6,15.1,6.4,16.1s11,16.8,26.6,23.5c2.9,1.2,5.9,2.3,8.9,3.3a20.34,20.34,0,0,0,9.8.6c3-.4,9.2-3.8,10.5-7.4s1.3-6.8.9-7.4-1.5-.9-3-1.8" style="fill:#f2f2f2;fill-rule:evenodd"/></g></svg>