<svg id="fc1ca27f-00f7-44ca-9a23-e50372ec2db3" data-name="Layer 1" xmlns="http://www.w3.org/2000/svg" xmlns:xlink="http://www.w3.org/1999/xlink" viewBox="0 0 232.1 232.1"><defs><linearGradient id="f5273321-4386-472a-bc7c-35d5a3594b9a" x1="7.8" y1="718.9" x2="217" y2="718.9" gradientTransform="translate(0 -610)" gradientUnits="userSpaceOnUse"><stop offset="0" stop-color="#37aee2"/><stop offset="1" stop-color="#1e96c8"/></linearGradient><linearGradient id="b599cf4b-9816-405f-a80e-2a7c2de2e857" x1="147.42" y1="2285.19" x2="147.59" y2="2284.87" gradientTransform="matrix(130.49, 0, 0, -109.45, -19116.98, 250225.02)" gradientUnits="userSpaceOnUse"><stop offset="0" stop-color="#eff7fc"/><stop offset="1" stop-color="#fff"/></linearGradient><linearGradient id="bd61609b-59b3-409f-b302-d6df7d4ba534" x1="-793.17" y1="-286.08" x2="-939.61" y2="-139.64" gradientTransform="translate(-100.76 976.09) rotate(90)" gradientUnits="userSpaceOnUse"><stop offset="0.7" stop-color="#f2f2f2" stop-opacity="0"/><stop offset="1" stop-color="#f2f2f2" stop-opacity="0.3"/></linearGradient></defs><title>social-side-icon-telegram_noshadow</title><g id="b89e3112-e1c3-499a-88ef-53ac1a994b16" data-name="b6458f45-07cf-4d81-b487-141861c91269"><circle cx="112.4" cy="108.9" r="104.6" style="fill:url(#f5273321-4386-472a-bc7c-35d5a3594b9a)"/><path d="M93.2,156.9c-3.4,0-2.8-1.3-4-4.5l-10-32.8L156,74.1" style="fill:#b3b3b3"/><path d="M93.2,156.9c2.6,0,3.8-1.2,5.2-2.6l14-13.6L95,130.2" style="fill:#ccc"/><path d="M95,130.2l42.2,31.1c4.8,2.7,8.3,1.3,9.5-4.5L163.8,76c1.8-7-2.7-10.2-7.3-8.2L55.7,106.7c-6.9,2.8-6.8,6.6-1.3,8.3l25.9,8.1,59.9-37.8c2.8-1.7,5.4-.8,3.3,1.1" style="fill:url(#b599cf4b-9816-405f-a80e-2a7c2de2e857)"/><ellipse cx="112.1" cy="109.7" rx="103.5" ry="103.6" style="fill:url(#bd61609b-59b3-409f-b302-d6df7d4ba534)"/></g></svg>