<svg id="b22442d2-d773-4e28-a252-fbbbc3edb796" data-name="e198d402-37df-4a1f-a7b3-07dadb382fd7" xmlns="http://www.w3.org/2000/svg" viewBox="0 0 179.33 232.14"><path d="M108.58,43.27h0l0,0C105.86,45,92,50.64,76.46,36.09c-6.24-6.34-9.2-16-9.2-16s6.64,3,11.82,1c3.51-1.37,7-5.56,7.66-6.4a17.92,17.92,0,0,1,6-4.42,18.32,18.32,0,0,1,15.87,33Z"/><path d="M49.81,21.59A24.7,24.7,0,0,0,20,39.8L9.2,84.34l36.25,9-1.19,4.8L8,89.14,4.53,103.66c-2.59,10.61,1.87,15.76,12.52,18.52,1.55.39,18.57,4.31,25.35,5.87l-2.68,10.77A3.08,3.08,0,0,0,42,142.56a8.82,8.82,0,0,0,1.33.23,3.08,3.08,0,0,0,3-2.34L68,51.42A24.71,24.71,0,0,0,49.81,21.59Zm1.84,51.15L25.3,66.15l5.33-22.1L35,45.11,30.76,62.84l17.6,4.4,4.43-17.55,4.39,1.11Z"/><path d="M169.47,49.94H88.28a12,12,0,0,0-2.41.25c-9.58,1.64-13.09,13-13.09,13L62.66,105.73,91.38,89l-2.61-5.63a2.45,2.45,0,0,1,4.44-2l3.43,7.39a.09.09,0,0,0,0,0,.42.42,0,0,1,0,.12l6.62,14.26.67,1.36a7.48,7.48,0,0,0,3.08,2.72l26.62,10.15-17,29.23L94.4,125.65l4.47-20.5L93.44,93.44,61.1,112.31,48.57,164.87,22.08,206.31a8.39,8.39,0,0,0-1.47,5A10.7,10.7,0,0,0,23.25,220a12.57,12.57,0,0,0,8.21,4.25,11.07,11.07,0,0,0,11.15-5.87L70.87,174c.59-1.19,1.37-2.84,2.35-5l5.62-23.67L105,166.73,74.09,219.81a3.06,3.06,0,0,0,1.1,4.18,3,3,0,0,0,1.54.42,3.05,3.05,0,0,0,2.64-1.52l26.38-45.36,0,35.95c1.19,5.68,4.8,8.81,10.87,9.41a11.63,11.63,0,0,0,8.64-2.93,11.26,11.26,0,0,0,4-7.93v-2.64L129,164.53c0-3.54-.82-7.07-3.07-9.32l-4.62-4.35,18.39-31.63c4.89.29,8.4-2.49,9.11-7.31a6.75,6.75,0,0,0-4.19-7.09l-27.41-9.76L106.43,65.59h63a7.83,7.83,0,0,0,0-15.65Z"/></svg>