<svg id="e198d402-37df-4a1f-a7b3-07dadb382fd7" data-name="Слой 1" xmlns="http://www.w3.org/2000/svg" viewBox="0 0 172.14 232.14"><path d="M154,107.13a2.44,2.44,0,0,1-1-1.81c-.11-2.47-.05-4.95-.05-7.45H146v7.6a13.86,13.86,0,0,1-1.4-.15c-8.09-1.76-16.16-3.57-24.26-5.26a4.38,4.38,0,0,1-3.19-2.34c-5.79-10-11.85-19.79-17.41-29.88-3.41-6.2-8.58-10-14.74-12.77-7-3.1-12.67-1.71-17.72,4a36,36,0,0,0-7.94,15.2c-2.16,8.74-4.29,17.52-5.87,26.39-1.79,10-2.85,20.16-4.44,30.21-1.79,11.24-3.78,22.45-5.78,33.65a9.46,9.46,0,0,1-1.65,3.76c-8.38,11.54-16.84,23-25.24,34.56a28.59,28.59,0,0,0-2.95,4.93c-1.69,3.74-1.18,6.81,1.23,9,3.09,2.76,8.85,4.19,11.48,2.25a55.06,55.06,0,0,0,9.34-8.36c7.78-9.1,15.17-18.53,22.87-27.7a32.74,32.74,0,0,0,8.06-18.12c.43-4.16,1.35-8.27,2.08-12.58a13.89,13.89,0,0,1,1.39.72c8.09,5.59,16.19,11.16,24.22,16.83A5.8,5.8,0,0,1,96,172.63c4.81,14.44,9.54,28.91,14.31,43.36a11.21,11.21,0,0,0,14.08,7.51,11.07,11.07,0,0,0,7.31-14.14c-5.44-17-11-33.86-16.53-50.79a11.51,11.51,0,0,0-5.06-6.22q-10.95-7-21.79-14.07a2.49,2.49,0,0,1-.75-2.08c1.88-10,3.89-20,5.8-30,.91-4.77,1.69-9.56,2.61-14.85.68,1.06,1.09,1.64,1.45,2.25q4.66,7.94,9.31,15.88a7.84,7.84,0,0,0,5.28,4l7.34,1.58c8.38,1.79,16.75,3.6,25.14,5.32,1.31.26,1.65.85,1.63,2.09-.05,4.2,0,8.41,0,12.62V224l.65.41c.46-.47,1.16-.88,1.32-1.44a12.29,12.29,0,0,0,.22-2.86q1.67-41.34,3.32-82.67c.2-5.16.44-10.31.66-15.4.41-.17.6-.27.81-.33,3.87-1.23,5.71-3.36,5.9-6.85S157.61,109,154,107.13Z"/><path d="M25.43,128.26a29.33,29.33,0,0,0,13.13,2.66c6.47-.11,5.2.57,6.3-5.14C49.07,104,53,82.06,57,60.19c.71-3.87-.06-5.13-4-5.9a18.36,18.36,0,0,0-5.49-.14,19.65,19.65,0,0,0-15.08,9.36c-9.47,14.7-14,30.95-15.28,48.24,0,.89,0,1.78,0,2.67C17.42,120.52,19.6,125.51,25.43,128.26Z"/><path d="M87.81,50.46a20.9,20.9,0,1,0-21-20.94A20.78,20.78,0,0,0,87.81,50.46Z"/></svg>