<svg width="1.9vw" height="1.9vw" xmlns="http://www.w3.org/2000/svg" xmlns:xlink="http://www.w3.org/1999/xlink" viewBox="0 0 180 180"><defs><style>.behance-cls-1{fill:url(#linear-gradient);}.behance-cls-2{fill:#fff;}.behance-cls-3{opacity:0.6;}.behance-cls-4{fill:url(#linear-gradient-2);}</style><linearGradient id="linear-gradient" x1="90.01" y1="-0.21" x2="90.01" y2="179.77" gradientUnits="userSpaceOnUse"><stop offset="0" stop-color="#005cff"/><stop offset="1" stop-color="#0047ad"/></linearGradient><linearGradient id="linear-gradient-2" x1="32.44" y1="-9.95" x2="147.59" y2="189.51" gradientUnits="userSpaceOnUse"><stop offset="0.22" stop-color="#fff" stop-opacity="0.3"/><stop offset="0.4" stop-color="#fff" stop-opacity="0"/></linearGradient></defs><title>Иконки. Кнопки. Лого</title><rect class="behance-cls-1" x="0.03" y="-0.21" width="179.97" height="179.97" rx="21.23"/><path class="behance-cls-2" d="M76.79,85.52s12-.89,12-15-9.84-21-22.29-21h-41v78.77h41s25,.79,25-23.25C91.54,105.08,92.63,85.52,76.79,85.52Zm-33.2-22H66.52s5.57,0,5.57,8.19-3.28,9.39-7,9.39H43.59Zm21.87,50.77H43.59v-21H66.52s8.3-.11,8.3,10.82C74.82,113.21,68.75,114.24,65.46,114.33Z"/><path class="behance-cls-2" d="M124.91,69.6c-30.29,0-30.26,30.26-30.26,30.26S92.57,130,124.91,130c0,0,27,1.54,27-20.95H138s.46,8.47-12.64,8.47c0,0-13.86.93-13.86-13.71h40.82S156.8,69.6,124.91,69.6Zm12.32,23.68H111.36s1.69-12.14,13.86-12.14S137.23,93.28,137.23,93.28Z"/><rect class="behance-cls-2" x="107.97" y="54.2" width="32.5" height="9.7"/><g class="behance-cls-3"><rect class="behance-cls-4" x="0.03" y="-0.21" width="179.97" height="179.97" rx="21.23"/></g></svg>