<svg id="a6be4c05-8d90-484b-a9c8-ba9483125b85"  xmlns="http://www.w3.org/2000/svg" viewBox="0 0 49.42 19.77"><path d="M37,34.88c-.37,0-.55-.12-.55-.38v-.11a.21.21,0,0,1,.05-.11,20.57,20.57,0,0,1,1.54-3.16,26.4,26.4,0,0,1,1.84-2.66c.64-.8,1.27-1.54,1.89-2.19H1A.58.58,0,0,1,.43,26a1.15,1.15,0,0,1-.14-.49,1.71,1.71,0,0,1,.22-.85A1.54,1.54,0,0,1,1.14,24,1.61,1.61,0,0,1,2,23.74H41.8c-.58-.62-1.19-1.33-1.81-2.12a25,25,0,0,1-1.76-2.52,19.8,19.8,0,0,1-1.37-2.72,1.62,1.62,0,0,1-.22-1,.43.43,0,0,1,.44-.24,2.29,2.29,0,0,1,.82.16,1.44,1.44,0,0,1,.66.44c.77.81,1.56,1.6,2.36,2.39s1.64,1.55,2.48,2.28,1.73,1.42,2.66,2.08a25.31,25.31,0,0,0,3,1.82c.44.25.66.49.66.71a.57.57,0,0,1-.08.33,2.68,2.68,0,0,1-.63.38,26.72,26.72,0,0,0-3,1.82,32.75,32.75,0,0,0-2.67,2.08c-.84.74-1.67,1.5-2.47,2.28s-1.59,1.59-2.36,2.39a2.48,2.48,0,0,1-1.48.6Z" transform="translate(-0.29 -15.12)"/></svg>