<svg id="f9d304dc-9032-4bd1-940a-63ed962bcb27" data-name="b876296a-ab8b-4686-85e4-34c5ee077d46" xmlns="http://www.w3.org/2000/svg" viewBox="0 0 100.72 538.05"><path d="M2,463.73l1.12.3q21,9,40.85,29.61V4q0-4,3.91-4A8.35,8.35,0,0,1,54,2.93a9.34,9.34,0,0,1,2.79,6.59V493.64a143.17,143.17,0,0,1,17.77-15.88,98.15,98.15,0,0,1,19.73-11.88,10.11,10.11,0,0,1,4.19-1.23c1.49,0,2.24.82,2.24,2.47a13.12,13.12,0,0,1-.84,4.47,11.55,11.55,0,0,1-2.24,3.85Q82,492.11,71.76,505.21A153.31,153.31,0,0,0,54,534.35a10.77,10.77,0,0,1-1.64,2.77,2.89,2.89,0,0,1-3.92.31A14.68,14.68,0,0,1,46.76,534,153.5,153.5,0,0,0,29,504.9Q18.74,491.79,3.08,475.14a11.59,11.59,0,0,1-2.24-3.86A13.12,13.12,0,0,1,0,466.81C0,464.75.65,463.73,2,463.73Z"/></svg>