<svg id="b876296a-ab8b-4686-85e4-34c5ee077d46" data-name="Слой 1" xmlns="http://www.w3.org/2000/svg" viewBox="0 0 563 130"><title>arrow-long-right</title><path d="M476.21,113.4l.3-1.12q9-21,29.61-40.85H16.48q-4,0-4-3.91a8.38,8.38,0,0,1,2.93-6.16A9.36,9.36,0,0,1,22,58.57H506.12A143.53,143.53,0,0,1,490.24,40.8a97.92,97.92,0,0,1-11.88-19.73,10,10,0,0,1-1.23-4.19c0-1.49.82-2.24,2.47-2.24a13.09,13.09,0,0,1,4.47.84,11.56,11.56,0,0,1,3.85,2.24q16.66,15.66,29.77,25.88a153.26,153.26,0,0,0,29.14,17.76A10.78,10.78,0,0,1,549.6,63a2.89,2.89,0,0,1,.31,3.92,14.69,14.69,0,0,1-3.39,1.68A153.78,153.78,0,0,0,517.38,86.4q-13.11,10.21-29.76,25.88a11.45,11.45,0,0,1-3.86,2.24,13,13,0,0,1-4.47.84C477.23,115.36,476.21,114.71,476.21,113.4Z"/></svg>