<svg id="ae319768-c793-4e55-99a5-221fc4d66b79" data-name="Слой 1" xmlns="http://www.w3.org/2000/svg" viewBox="0 0 46.12 34.43"><path d="M44.57,31.34C24.87,30,15.35,24,14.84,19a2.18,2.18,0,0,1,0-.25C6.77,16.23,2.52,7.41,2,.86L3,.79C3.49,7,7.44,15.26,14.91,17.73c.37-1.63,1.82-2.91,4.08-3.54a5.46,5.46,0,0,1,5.51,1.22,2,2,0,0,1,.39,2.15c-.57,1.23-2.47,1.9-5.36,1.9A15.6,15.6,0,0,1,15.85,19c.57,3.86,8.61,10,28.79,11.3ZM15.88,18a14.78,14.78,0,0,0,3.65.44c3.56,0,4.31-1,4.45-1.32a1,1,0,0,0-.25-1.08,4.48,4.48,0,0,0-4.47-.9C17.36,15.68,16.16,16.72,15.88,18Z" transform="translate(-2.04 -0.79)"/><path d="M44.21,30.78a7.42,7.42,0,0,1-1.31-4.63A13.77,13.77,0,0,0,48.16,31a14.31,14.31,0,0,0-5.81,4.2A7.55,7.55,0,0,1,44.21,30.78Z" transform="translate(-2.04 -0.79)"/></svg>