<svg id="ed2fbc91-a0a7-401d-83a6-93044071e92e" data-name="b81b023d-6716-497e-8ef8-cb95ad5da4b6" xmlns="http://www.w3.org/2000/svg" viewBox="0 0 56.97 97.67"><path d="M73.71,85.81V70.46a18.32,18.32,0,0,0-6.26-13.78l-7.21-6.31a2,2,0,0,1,0-3.07L67.45,41a18.32,18.32,0,0,0,6.26-13.78V11.86A6.1,6.1,0,0,0,71.67,0H26.91a6.1,6.1,0,0,0-2,11.86V27.21A18.32,18.32,0,0,0,31.13,41l7.21,6.31a2,2,0,0,1,0,3.06l-7.22,6.32a18.32,18.32,0,0,0-6.26,13.78V85.81a6.1,6.1,0,0,0,2,11.86H71.67a6.1,6.1,0,0,0,2-11.86ZM26.91,4.07H71.67a2,2,0,1,1,0,4.07H26.91a2,2,0,1,1,0-4.07Zm6.9,55.68L41,53.43a6.1,6.1,0,0,0,0-9.19l-7.21-6.32a14.24,14.24,0,0,1-4.87-10.71v-15h40.7v15a14.24,14.24,0,0,1-4.87,10.71l-7.21,6.32a6.1,6.1,0,0,0,0,9.19l7.21,6.32a14.24,14.24,0,0,1,4.87,10.71V80.85l-19-17.25a2,2,0,0,0-2.81.07L28.94,82.58V70.46A14.24,14.24,0,0,1,33.81,59.75ZM68.65,85.46H31.82L49.36,67.92Zm3,8.14H26.91a2,2,0,1,1,0-4.07H71.67a2,2,0,1,1,0,4.07Z" transform="translate(-20.8)"/><path d="M49.29,46.8a2.06,2.06,0,0,0,1.44-.59L60.9,36a2,2,0,0,0-1.44-3.47H39.12A2,2,0,0,0,37.68,36L47.85,46.21A2.06,2.06,0,0,0,49.29,46.8Zm5.26-10.17-5.26,5.26L44,36.63Z" transform="translate(-20.8)"/></svg>