<svg width="45" height="45" id="chat" xmlns="http://www.w3.org/2000/svg"
	 viewBox="0 0 235.7 235.7">
<title>Обратная связь</title>
<circle fill="#E40521" cx="117.9" cy="117.8" r="118.1"/>
<g>
	<path fill="#FFFFFF" d="M194,184.6c-11.2-0.6-22.2-4.3-31.5-10.7l-2.1-1.4l-2.4,0.8c-6.6,2.3-13.5,3.4-20.5,3.4h-0.1
		c-11.8,0-23.3-3.3-32.5-9.1c0.7,0,1.4,0,2.1,0c38.5,0,70.5-23.9,75.7-54.9c4.8,6.5,7.3,13.9,7.3,21.5c-0.1,9.6-3.9,18.8-10.7,25.7
		l-1.8,1.9l0.5,2.6C179.7,173.1,185.6,180.5,194,184.6z"/>
</g>
<g>
	<path fill="#FFFFFF" d="M173.5,103.9c0,29.6-29.8,53.8-66.5,53.8h-0.1c-8.8,0-17.4-1.5-25.7-4.3l-2.4-0.8l-2.1,1.4
		c-13.5,9.3-29.9,14-46.2,13.5c13.1-4.1,22.7-14.2,25-26.6l0.5-2.5l-1.8-1.9c-8.6-8.8-13.4-20.3-13.6-32.5
		c0-29.6,29.8-53.8,66.4-53.8C143.7,50.1,173.5,74.2,173.5,103.9z"/>
</g>
</svg>
