<svg id="ad271f26-434b-414d-9dca-f8224ceef1b2" data-name="Layer 1" xmlns="http://www.w3.org/2000/svg" xmlns:xlink="http://www.w3.org/1999/xlink" viewBox="0 0 235.7 235.7"><defs><linearGradient id="b217b6ea-04b3-4c5d-b3e0-d26c00dffaeb" x1="283.72" y1="-158.67" x2="437.1" y2="-312.05" gradientTransform="translate(-123.76 -248.91) rotate(90)" gradientUnits="userSpaceOnUse"><stop offset="0" stop-color="#e40521"/><stop offset="1" stop-color="#bf041c"/></linearGradient><linearGradient id="e0449610-a1c8-445f-bf7e-0186d24d41bd" x1="437" y1="-312.55" x2="283.62" y2="-159.17" gradientTransform="translate(-123.76 -248.91) rotate(90)" gradientUnits="userSpaceOnUse"><stop offset="0.7" stop-color="#f2f2f2" stop-opacity="0"/><stop offset="1" stop-color="#f2f2f2" stop-opacity="0.3"/></linearGradient></defs><title>chat_noshadow</title><g id="e0860373-d78a-45e7-a9ff-af8809b03f9f" data-name="ff7115da-47af-41c1-ba3e-1f851cd64c63"><ellipse cx="111.6" cy="111.5" rx="108.4" ry="108.5" style="fill:url(#b217b6ea-04b3-4c5d-b3e0-d26c00dffaeb)"/><path d="M169,155.5l-.4-2.3,1.6-1.7a34.62,34.62,0,0,0,9.9-23.6,32.93,32.93,0,0,0-6.8-19.8c-4.8,28.5-34.1,50.5-69.5,50.5h-2a55.76,55.76,0,0,0,30,8.4,60.85,60.85,0,0,0,18.9-3.1l2.2-.8,1.9,1.3a55.27,55.27,0,0,0,28.8,9.8A26,26,0,0,1,169,155.5Z" style="fill:#fff"/><path d="M72.2,146.3l1.9-1.3,2.2.8a70.56,70.56,0,0,0,23.7,3.9c33.6,0,61-22.2,61-49.4s-27.4-49.4-61-49.4S39,73.1,39,100.3a44,44,0,0,0,12.5,29.9l1.6,1.7-.4,2.3c-2,11.5-10.7,20.8-22.8,24.5A70,70,0,0,0,72.2,146.3Z" style="fill:#fff"/><ellipse cx="112.1" cy="111.4" rx="108.4" ry="108.5" style="fill:url(#e0449610-a1c8-445f-bf7e-0186d24d41bd)"/></g></svg>