<svg id="Слой_1" data-name="Слой 1" xmlns="http://www.w3.org/2000/svg" viewBox="0 0 235.67 235.67"><defs><style>.cls-1{fill:#e40521;}.cls-2{fill:#fff;stroke:#e40521;stroke-miterlimit:10;stroke-width:10px;}</style></defs><title>Иконки. Кнопки. Лого</title><circle class="cls-1" cx="117.92" cy="117.75" r="118.08"/><path class="cls-2" d="M79.84,134.33c0,26.15,25.86,47.42,57.64,47.42a67.76,67.76,0,0,0,22.17-3.69,66.19,66.19,0,0,0,39.91,11.59,4.43,4.43,0,0,0,4.21-2.7,3.88,3.88,0,0,0-2.81-5c-9.42-2.68-16.37-9.83-18-18.53a42.44,42.44,0,0,0,12.14-29.09c0-26.15-25.86-47.42-57.65-47.42S79.84,108.18,79.84,134.33Z"/><path class="cls-2" d="M107.08,45.12c-39.39,0-71.44,26.35-71.44,58.76a52.5,52.5,0,0,0,15,36c-2,10.78-10.6,19.65-22.28,23-2.88.85-4.44,3.62-3.48,6.19a5.49,5.49,0,0,0,5.22,3.35A82.06,82.06,0,0,0,79.6,158.06a83.93,83.93,0,0,0,27.48,4.58c39.39,0,71.44-26.36,71.44-58.76S146.47,45.12,107.08,45.12Z"/></svg>