<svg id="b476f16f-a752-421b-8d8a-35fcc60290ea" data-name="a045dab7-5f15-424a-ab4c-93ee40aa9bfb" xmlns="http://www.w3.org/2000/svg" viewBox="0 0 400.44 332"><title>CloudPayments</title><path d="M5.15,165.41a83.43,83.43,0,0,1,7.56-23.16q19.47-38,61.29-46.78a81.68,81.68,0,0,1,13.86-1.54c.81,0,1.14-.2,1.24-1.1,2.43-21.86,11-40.94,26.09-57A96,96,0,0,1,170.4,6.19a98.12,98.12,0,0,1,107,58.35,1.61,1.61,0,0,0,1.94,1.09,104.1,104.1,0,0,1,32.53,2.71,107.47,107.47,0,0,1,80.15,84.91,95.72,95.72,0,0,1,1.51,12.52c.06,1.08-.16,1.5-1.34,1.48-5.2-.06-10.4,0-15.6,0-1,0-1.37-.21-1.45-1.31a88.73,88.73,0,0,0-61.34-78,86,86,0,0,0-22.26-4.08c-22.81-1.13-43.09,5.53-61,19.7-1.51,1.19-1.5,1.21-2.91-.2-3.55-3.55-7.09-7.12-10.66-10.64-.72-.7-.87-1.08,0-1.83A106.93,106.93,0,0,1,258,69.27c1.15-.32,1.27-.66.73-1.69-12.22-23.39-31.13-38.16-57.11-43C177.16,20,155,25.85,135.82,41.63,120.53,54.18,111.43,70.47,108,89.92c-.25,1.41-.36,2.85-.6,4.26-.17,1,.13,1.47,1.23,1.7a86.16,86.16,0,0,1,32.32,14.34c.83.59,1.07.94.21,1.78q-5.66,5.56-11.18,11.25a1.4,1.4,0,0,1-2.14.25A68.11,68.11,0,0,0,26.33,157.06a59,59,0,0,0-2.54,8.9c-.2,1-.58,1.29-1.57,1.29-5.56-.05-11.11,0-16.67,0-.22,0-.45,0-.67.06v-.54C5.22,166.35,4.82,165.81,5.15,165.41Z" style="fill:#6495db"/><path d="M73.69,284.58c-5.55-7.1-16.94-7.45-22.2-.07-.11.17-.23.4-.59.25,0-1,0-1.93,0-2.91,0-2.24.26-1.94-2-2-1,0-2.07.08-3.09,0-1.27-.12-1.65.29-1.65,1.61q.06,22.89,0,45.81h6.74V307.6c.51,0,.61.29.76.48,5,6.65,15.21,6.55,20.72,1.12C78.46,303.2,79.06,291.45,73.69,284.58Zm-3.2,11.73c0,4.87-2.61,8.79-6.65,10a10,10,0,0,1-13-9.22c-.27-5.14,2.21-9.33,6.42-10.89a9.68,9.68,0,0,1,13.18,8.66C70.53,295.32,70.49,295.82,70.49,296.31Z" style="fill:#6495db"/><path d="M122.94,327.28c.9-2.73,2.27-5.25,3.42-7.86,1.46-3.32,3-6.62,4.5-9.91a2.59,2.59,0,0,0,0-2.39c-4-8.67-7.87-17.37-11.84-26-.53-1.15-.14-1.25.86-1.21,1.52.05,3,.08,4.57,0a1.69,1.69,0,0,1,1.87,1.27q3.92,9.13,7.92,18.22a2.38,2.38,0,0,0,.83,1.32c1-2.31,2.06-4.58,3.07-6.85,1.91-4.3,3.82-8.59,5.69-12.9a1.46,1.46,0,0,1,1.61-1.05c1.61.07,3.22.06,4.83,0,1,0,1.23.21.78,1.19-3.13,6.79-6.21,13.6-9.31,20.4l-11.29,24.81a1.59,1.59,0,0,0-.27,1Z" style="fill:#6495db"/><path d="M5.15,165.41c0,.46.11,1-.27,1.34V165.4Z" style="fill:#ceddf3"/><path d="M339.92,167.23c-4.56,0-9.14.05-13.71,0-1.09,0-1.42.23-1.42,1.38,0,8.29,0,16.57,0,24.86a2.24,2.24,0,0,1-.12,1.3c-.46-.12-.6-.53-.85-.83a23.12,23.12,0,0,0-8.74-6.75c-11.35-5-25.26-.8-32.36,9.93-6.3,9.51-7.28,20-4.58,30.82,2.17,8.77,7.1,15.61,15.41,19.62,9.09,4.4,22.62,3.89,30.62-6.29.12-.16.21-.39.62-.32,0,2.19.05,4.42,0,6.63,0,.91.16,1.25,1.15,1.23,4.66-.05,9.33,0,14,0,.9,0,1.1-.27,1.1-1.13q0-39.68,0-79.32C341,167.49,340.83,167.21,339.92,167.23Zm-24.64,66.2a15.57,15.57,0,0,1-21.8-12.09,19.77,19.77,0,0,1,1.73-12.55,15.13,15.13,0,0,1,15.41-8.11,15.48,15.48,0,0,1,13.46,11.62,24.35,24.35,0,0,1,.73,5.31C324.88,224.81,321.21,230.92,315.28,233.43Z" style="fill:#393962"/><path d="M169.54,185.19A31.94,31.94,0,0,0,137.15,217c-.25,18.9,14,33.13,32.28,33.12,18.5,0,32.57-13.88,32.57-32.13C202,199.24,188.12,185.19,169.54,185.19Zm7.65,47.61c-9.66,5.22-23.16-.13-23.66-14.4,0-.21,0-.45,0-.67,0-7.84,4.14-14.08,10.81-16.29,10.44-3.46,20.49,3.51,21.18,14.83C185.92,223.31,183.69,229.29,177.19,232.8Z" style="fill:#393962"/><path d="M251.24,240.54c-1.22,1.33-2.19,2.48-3.27,3.53-9,8.83-25.5,8-33-1.6-3.79-4.84-5-10.54-5.05-16.52-.07-12.73,0-25.45,0-38.18,0-1,.31-1.27,1.29-1.26,4.48.05,9,.06,13.44,0,1.21,0,1.58.27,1.58,1.54-.06,11.29,0,22.58,0,33.87a21.56,21.56,0,0,0,.6,5.6,8.91,8.91,0,0,0,7.52,6.94,17.78,17.78,0,0,0,6.82-.06c5.54-1.13,8.89-4.81,9.87-10.82a22.83,22.83,0,0,0,.32-3.88c0-10.57,0-21.15,0-31.72,0-1.22.35-1.48,1.51-1.47,4.48.07,9,.05,13.44,0,.92,0,1.33.12,1.33,1.22q-.06,30,0,60c0,.87-.23,1.14-1.12,1.13-4.66,0-9.32-.05-14,0-1,0-1.18-.34-1.16-1.23C251.28,245.34,251.24,243.1,251.24,240.54Z" style="fill:#393962"/><path d="M96.53,210.25c-2.46,0-4.93,0-7.39,0-.6,0-1-.1-1.19-.76-2.37-7.09-9.16-9.88-15.57-9.27-8.28.79-13.66,6.37-14.45,14.88-.51,5.63.41,10.9,4.35,15.3,6.59,7.37,21.9,6.42,25.62-4.54a1.11,1.11,0,0,1,1.25-.89c4.88,0,9.77.05,14.66,0,1.26,0,1,.64.84,1.34-2,9.57-7.28,16.53-16.13,20.68-12.56,5.87-27.71,3.61-37.44-5.67a31,31,0,0,1-9.63-21.69C41,209.11,44.22,200,52.24,193c13.2-11.63,35.55-10,46.52,3.23a28.91,28.91,0,0,1,5.91,12.65c.27,1.28-.1,1.5-1.28,1.45C101.11,210.19,98.82,210.25,96.53,210.25Z" style="fill:#393962"/><path d="M128.59,208.1c0,13.08,0,26.17,0,39.25,0,1.18-.27,1.49-1.46,1.47-4.53-.08-9.06-.06-13.58,0-1,0-1.18-.28-1.18-1.2q0-39.6,0-79.18c0-.94.24-1.21,1.19-1.2,4.57,0,9.14.06,13.71,0,1.1,0,1.31.33,1.31,1.35Q128.57,188.34,128.59,208.1Z" style="fill:#393962"/><path d="M162.17,284.33c5-7.6,17.17-6.78,20.18,1.31.48-.67.9-1.27,1.34-1.86,3.87-5.23,11.95-6.34,16.89-2.26a10.94,10.94,0,0,1,3.78,8.59c.14,7.13,0,14.25.08,21.38,0,.76-.25,1-1,1-1.52,0-3.05-.07-4.57,0-1,.05-1.18-.35-1.17-1.24,0-5.92,0-11.83,0-17.75,0-.8-.07-1.61-.15-2.41-.48-4.88-4.22-6.13-8.16-5.33-3.38.69-5.49,3.51-6,7.43a63,63,0,0,0-.17,7.65c0,3.45.05,6.89.14,10.34,0,1-.27,1.36-1.29,1.31a43.84,43.84,0,0,0-4.44,0c-1,.05-1.21-.29-1.2-1.22,0-5.92,0-11.83,0-17.75,0-.44,0-.89,0-1.34-.08-3.53-1.52-5.67-4.26-6.37a7.46,7.46,0,0,0-8.53,3.23,10.83,10.83,0,0,0-1.48,5.52c0,5.51-.06,11,0,16.53,0,1.15-.34,1.47-1.44,1.4-1.43-.09-2.87-.05-4.3,0-.74,0-1-.21-1-1q0-15.33,0-30.65c0-.79.31-1,1-1,1.57,0,3.14,0,4.71,0,.76,0,1,.25,1,1C162.14,282,162.17,283.18,162.17,284.33Z" style="fill:#6495db"/><path d="M114.66,299.09c0-6,0-11.93,0-17.88,0-1.08-.32-1.41-1.37-1.36-1.39.08-2.79.07-4.16,0-.93,0-1.28.23-1.25,1.2a17,17,0,0,1-.12,3.88c-.22-.27-.34-.4-.45-.55-5.43-7.39-17.08-7-22.32.55-4.31,6.13-4.58,12.79-1.71,19.53a14.34,14.34,0,0,0,17,8.26,13.73,13.73,0,0,0,7.68-5.5c0,1.73,0,3,0,4.32,0,.7.23.94.92.93,1.53,0,3.06-.08,4.58,0,1.07.07,1.26-.37,1.24-1.32C114.63,307.15,114.66,303.12,114.66,299.09ZM101,306.3a9.61,9.61,0,0,1-12.47-7.85,13,13,0,0,1,.65-6.86,9.17,9.17,0,0,1,9.13-6,9.64,9.64,0,0,1,9,6.46,9.93,9.93,0,0,1,.65,3.85C108,301.19,105.38,305,101,306.3Z" style="fill:#6495db"/><path d="M217.57,298c4,0,7.9,0,11.83,0H240c2.76,0,2.76,0,2.67-2.79-.37-9.59-7.16-16.18-16.74-16-6.82.08-12.13,3-14.92,9.34-3,6.74-2.43,13.38,2.46,19.14,4.13,4.86,9.71,6.19,15.83,5.31a15.11,15.11,0,0,0,12.29-9.27c.39-.88.42-1.3-.74-1.23-1.57.07-3.14,0-4.71,0a1.61,1.61,0,0,0-1.56.78c-2.64,3.82-6.48,4.57-10.7,3.75s-6.57-3.52-7.49-7.66C216.17,298.15,216.52,298,217.57,298Zm-.6-6.68a9.55,9.55,0,0,1,9.22-6.3,9.07,9.07,0,0,1,8.94,6.21c.35,1,.26,1.36-.9,1.33-2.72-.05-5.46,0-8.19,0s-5.45,0-8.18,0C216.85,292.56,216.62,292.3,217,291.3Z" style="fill:#6495db"/><path d="M335.9,289.07a9.55,9.55,0,0,0-1.07,0c-1.38.16-2.43-.05-3.13-1.52a4.42,4.42,0,0,0-3.07-2,13.38,13.38,0,0,0-7.55.08,5.2,5.2,0,0,0-1.88,1,2.44,2.44,0,0,0,.48,4.27,21.74,21.74,0,0,0,4.47,1.42,73,73,0,0,1,9.94,2.79c2.88,1.17,5.21,2.86,5.6,6.24a9.21,9.21,0,0,1-4.11,9.3,16.81,16.81,0,0,1-9.47,2.53A19.16,19.16,0,0,1,316,310.87a12.56,12.56,0,0,1-6-7.73c-.25-.88-.1-1.23.88-1.2,1.61.06,3.23,0,4.84,0,.46,0,.9,0,1.08.55,1,2.87,3.22,4.08,6,4.47a17.6,17.6,0,0,0,6.55-.15,8.75,8.75,0,0,0,1.39-.47,3.06,3.06,0,0,0,2.14-3,3,3,0,0,0-2.2-2.62,35.8,35.8,0,0,0-5.3-1.45,50.56,50.56,0,0,1-9.09-2.8,8.19,8.19,0,0,1-2.68-13.26c2.38-2.63,5.49-3.65,8.84-4a19.66,19.66,0,0,1,10,1.19,11.36,11.36,0,0,1,6.65,7.46c.31,1,.06,1.27-.93,1.18C337.43,289,336.66,289.07,335.9,289.07Z" style="fill:#6495db"/><path d="M254.47,284.67c.61-.25.75-.66,1-1,4.13-5.22,12.45-6.24,17.6-2.08a10.83,10.83,0,0,1,3.94,8.52c.15,7.12.06,14.24.1,21.36,0,.77-.27,1-1,1a38.55,38.55,0,0,0-4.3,0c-1.27.11-1.45-.42-1.44-1.54.05-5.5,0-11,0-16.52v-.94c0-5-2-7.58-5.95-7.9-5.24-.43-8.84,2.18-9.68,7a34.17,34.17,0,0,0-.25,5.89c0,4.17-.06,8.34,0,12.5,0,1.29-.41,1.6-1.6,1.52-1.38-.09-2.77-.05-4.16,0-.72,0-1-.16-1-1q0-15.31,0-30.64c0-.73.2-1.05,1-1q2.35.06,4.71,0c.8,0,1.13.22,1.09,1.06C254.43,282.13,254.47,283.33,254.47,284.67Z" style="fill:#6495db"/><path d="M286.19,294.91c0-2.9,0-5.23,0-7.56,0-.92-.22-1.3-1.19-1.24-1.25.08-2.51,0-3.76,0-.72,0-1.07-.17-1.05-1,.05-1.47,0-2.95,0-4.43,0-.63.24-.88.87-.87,1.34,0,2.69,0,4,0,.82,0,1.11-.28,1.09-1.1,0-1.75,0-3.5,0-5.24a1.18,1.18,0,0,1,1.16-1.42c1.5-.26,3-.62,4.46-1,.89-.22,1.19,0,1.16,1-.05,2.1.06,4.21,0,6.31-.06,1.24.39,1.5,1.53,1.48,3.54-.06,7.08,0,10.62,0,1,0,1.4.19,1.33,1.25a33.82,33.82,0,0,0,0,3.9c0,.88-.27,1.15-1.14,1.14-3.63,0-7.26,0-10.89,0-1.1,0-1.46.26-1.44,1.4.07,4.17,0,8.34,0,12.5.05,4.76,2.57,7.09,7.29,6.84a17.71,17.71,0,0,0,4.31-1c1.72-.55,1.72-.56,2.12,1.22.12.52.23,1,.35,1.57.53,2.35.53,2.35-1.8,3.19a19,19,0,0,1-9.76,1.1c-4.85-.84-8.23-4.58-9-9.77C286,300.25,286.3,297.29,286.19,294.91Z" style="fill:#6495db"/></svg>