<svg xmlns="http://www.w3.org/2000/svg" xmlns:xlink="http://www.w3.org/1999/xlink" version="1.1" x="0px" y="0px" viewBox="0 0 100 100" enable-background="new 0 0 100 100" xml:space="preserve" preserveAspectRatio="xMidYMid meet"  fill="rgb(212,212,212)" fill-opacity="1"  ><path d="M88.117,50c0-1.193-0.06-2.374-0.172-3.539L100,39.521c-0.742-3.403-1.838-6.678-3.248-9.785l-13.924,1.315  c-1.234-2.041-2.662-3.957-4.258-5.724l5.578-12.537c-2.607-2.291-5.457-4.323-8.508-6.056l-10.468,9.062  c-2.196-0.934-4.501-1.67-6.89-2.188L55.262,0.262C53.531,0.089,51.776,0,50,0s-3.531,0.089-5.262,0.262l-3.021,13.348  c-2.389,0.519-4.693,1.255-6.89,2.188L24.36,6.735c-3.051,1.732-5.901,3.765-8.509,6.056l5.58,12.537  c-1.597,1.767-3.024,3.683-4.258,5.724L3.249,29.736C1.837,32.844,0.742,36.118,0,39.521l12.055,6.939  c-0.112,1.165-0.172,2.346-0.172,3.539s0.06,2.374,0.172,3.538L0,60.479c0.742,3.402,1.837,6.678,3.249,9.786l13.923-1.316  c1.234,2.041,2.661,3.957,4.258,5.724l-5.58,12.536c2.608,2.291,5.458,4.324,8.509,6.057l10.467-9.062  c2.197,0.933,4.501,1.669,6.89,2.187l3.021,13.349C46.469,99.911,48.224,100,50,100s3.531-0.089,5.262-0.262l3.021-13.349  c2.389-0.518,4.693-1.254,6.89-2.187l10.468,9.062c3.051-1.732,5.9-3.766,8.508-6.057L78.57,74.672  c1.596-1.767,3.023-3.683,4.258-5.724l13.924,1.316c1.41-3.108,2.506-6.384,3.248-9.786l-12.055-6.94  C88.058,52.374,88.117,51.193,88.117,50z M50,66.354c-9.237,0-16.724-7.322-16.724-16.354c0-9.033,7.487-16.354,16.724-16.354  c9.236,0,16.724,7.321,16.724,16.354C66.724,59.032,59.236,66.354,50,66.354z" fill="#d4d4d4"></path></svg>