<svg xmlns="http://www.w3.org/2000/svg" viewBox="0 0 761.33 761.33"><defs><style>.cogwheels-cls1{fill:#d4d4d4;}</style></defs><path class="cogwheels-cls1" d="M478.85,228.09c0-5.44-.27-10.83-.78-16.14l55-31.66a221.9,221.9,0,0,0-14.82-44.64l-63.52,6a170.25,170.25,0,0,0-19.42-26.11l25.45-57.19a233,233,0,0,0-38.82-27.63L374.18,72.06a174.89,174.89,0,0,0-31.43-10L329,1.2Q317.14,0,305,0T281,1.2L267.18,62.09a175.4,175.4,0,0,0-31.43,10L188,30.72a233.89,233.89,0,0,0-38.81,27.63l25.45,57.19a170.9,170.9,0,0,0-19.42,26.11l-63.52-6a222.11,222.11,0,0,0-14.82,44.64l55,31.65c-.51,5.32-.78,10.7-.78,16.15s.27,10.83.78,16.14l-55,31.66A222.41,222.41,0,0,0,91.7,320.54l63.51-6a170.31,170.31,0,0,0,19.43,26.11l-25.46,57.19A233.55,233.55,0,0,0,188,425.46l47.75-41.34a174.89,174.89,0,0,0,31.43,10L281,455q11.85,1.17,24,1.19T329,455l13.78-60.9a175.24,175.24,0,0,0,31.44-10l47.75,41.34a233.47,233.47,0,0,0,38.81-27.63L435.3,340.64a170.9,170.9,0,0,0,19.42-26.11l63.52,6a222.32,222.32,0,0,0,14.82-44.64l-55-31.66C478.58,238.92,478.85,233.53,478.85,228.09ZM305,302.69c-42.14,0-76.29-33.4-76.29-74.6s34.15-74.6,76.29-74.6,76.29,33.39,76.29,74.6S347.1,302.69,305,302.69Z"/><path class="cogwheels-cls1" d="M684.09,506.15c0-3.61-.18-7.17-.52-10.69l36.43-21a147.43,147.43,0,0,0-9.81-29.57l-42.08,4a113.73,113.73,0,0,0-12.86-17.29l16.85-37.88a154,154,0,0,0-25.71-18.3L614.76,402.8a115.56,115.56,0,0,0-20.82-6.61l-9.12-40.33q-7.85-.78-15.9-.79t-15.9.79l-9.13,40.33a116.61,116.61,0,0,0-20.82,6.61l-31.62-27.38a154.61,154.61,0,0,0-25.72,18.3L482.6,431.6a112.72,112.72,0,0,0-12.87,17.3l-42.07-4a146.83,146.83,0,0,0-9.82,29.57l36.42,21c-.33,3.52-.52,7.09-.52,10.7s.19,7.17.52,10.69l-36.42,21a147,147,0,0,0,9.82,29.57l42.07-4a113.07,113.07,0,0,0,12.86,17.29l-16.86,37.88a154.53,154.53,0,0,0,25.71,18.3l31.63-27.38a116.61,116.61,0,0,0,20.82,6.61L553,656.44q7.85.78,15.9.79t15.9-.79L594,616.1a115.81,115.81,0,0,0,20.82-6.61l31.63,27.39a154.5,154.5,0,0,0,25.7-18.31L655.25,580.7a113.32,113.32,0,0,0,12.86-17.3l42.08,4A147.64,147.64,0,0,0,720,537.81l-36.43-21C683.92,513.32,684.09,509.75,684.09,506.15ZM568.92,555.56c-27.91,0-50.53-22.12-50.53-49.41s22.62-49.42,50.53-49.42,50.53,22.12,50.53,49.42S596.83,555.56,568.92,555.56Z"/><path class="cogwheels-cls1" d="M406.06,649.88q0-4-.38-7.88l26.86-15.47a109.58,109.58,0,0,0-7.24-21.8l-31,2.93a83.73,83.73,0,0,0-9.49-12.75L397.22,567a114.27,114.27,0,0,0-19-13.5l-23.32,20.19a85.23,85.23,0,0,0-15.35-4.87l-6.73-29.73a116.8,116.8,0,0,0-23.45,0l-6.73,29.73a86.32,86.32,0,0,0-15.35,4.88L264,553.49a114.22,114.22,0,0,0-19,13.49l12.43,27.93A83.92,83.92,0,0,0,248,607.67l-31-2.94a108.92,108.92,0,0,0-7.23,21.8L236.59,642q-.37,3.9-.38,7.89t.38,7.88l-26.85,15.47A108.71,108.71,0,0,0,217,695l31-2.93a82.75,82.75,0,0,0,9.49,12.75l-12.43,27.93a113.69,113.69,0,0,0,19,13.5l23.32-20.19A85.23,85.23,0,0,0,302.68,731l6.73,29.74q5.79.57,11.73.58t11.72-.58L339.59,731a86.06,86.06,0,0,0,15.35-4.88l23.32,20.19a114.22,114.22,0,0,0,19-13.49l-12.43-27.93a84.4,84.4,0,0,0,9.49-12.75l31,2.93a109.58,109.58,0,0,0,7.24-21.8l-26.86-15.47Q406.06,653.88,406.06,649.88Zm-84.92,36.44c-20.58,0-37.27-16.32-37.27-36.44s16.69-36.44,37.27-36.44,37.26,16.32,37.26,36.44S341.71,686.32,321.14,686.32Z"/></svg>