<?xml version="1.0" encoding="utf-8"?>
<!-- Generator: Adobe Illustrator 25.4.1, SVG Export Plug-In . SVG Version: 6.00 Build 0)  -->
<svg version="1.1" id="Layer_1" xmlns="http://www.w3.org/2000/svg" xmlns:xlink="http://www.w3.org/1999/xlink" x="0px" y="0px"
	 viewBox="0 0 392.9 455.4" style="enable-background:new 0 0 392.9 455.4;" xml:space="preserve">
<style type="text/css">
	.st0{fill:#0046FF;}
	.st1{fill:#999999;}
	.st2{fill:#CCCCCC;}
	.st3{fill:none;stroke:#333333;stroke-width:26;stroke-miterlimit:10;}
	.st4{fill:#333333;}
</style>
<g>
	<g>
		<path class="st0" d="M385.7,262.6c0.1,53.7-22.3,105.1-61.8,141.5c-1.4,1.3-2.8,2.5-4.2,3.8c-33.1,29-75.2,45.8-119.2,47.4
			c-2.5,0.1-5.1,0.1-7.6,0.1c-3.7,0-7.4-0.1-11-0.3C80.4,449.4,0,365.4,0,262.6C0,156.1,86.3,69.7,192.9,69.7
			S385.7,156.1,385.7,262.6z"/>
		<path class="st1" d="M373.9,329.2c-10.5,28.5-27.7,54.2-50,74.8c-1.4,1.3-2.8,2.5-4.2,3.8C300.1,425,277.3,438,252.5,446
			L112.2,305.7c-2.2-2.2-2.2-5.8,0-8l111.1-111.1c2.2-2.2,5.8-2.2,8,0L373.9,329.2z"/>
		<path class="st2" d="M272.6,123.2L272.6,123.2c51.1,23.7,73.3,84.3,49.6,135.4l-51.8,111.7c-23.7,51.1-84.3,73.3-135.4,49.6h0
			c-51.1-23.7-73.3-84.3-49.6-135.4l51.8-111.7C160.9,121.7,221.5,99.5,272.6,123.2z"/>
		<path class="st3" d="M262.2,91.9"/>
		<path class="st4" d="M164,371.6c-7.1,0-13.3-1.5-17.7-4.4l4.5-6.6c5,3.4,17,4.8,31.4-0.2c18.4-6,32.8-20.4,39-38.7l7.6,2.5
			c-6.9,20.6-22.9,36.6-44,43.8C178.1,370.3,171.1,371.5,164,371.6z"/>
		<polygon class="st4" points="117.4,340.2 66.7,311.8 127.7,268.2 132.4,274.8 81.6,311 121.3,333.2 		"/>
		<path class="st4" d="M304.9,26.7L304.9,26.7c-36.9-17.1-77.4-14.5-108,3.4L161.6,0l-35.9,42.1c-32.2,37.5-27.8,94.1,9.7,126.2l0,0
			c15,12.8,34.6,19,54.2,17.2l136.6,1.2l-3,68.2l41.4-85.8C388.9,117,362.1,53.3,304.9,26.7z"/>
		<path class="st4" d="M152,231.8c0,18.9-15.3,34.1-34.1,34.1s-34.1-15.3-34.1-34.1H152z"/>
		<path class="st4" d="M269.7,233.8c0.4,28.2-22.2,51.5-50.4,51.9c-28.2,0.4-51.5-22.2-51.9-50.4c0-0.5,0-1,0-1.4H269.7z"/>
		<polygon class="st4" points="169.6,228.3 108.2,184.6 112.8,178.1 171.2,219.6 260.9,196.8 262.9,204.5 		"/>
		<path class="st1" d="M270,172.8c-15.8-0.6-29.8-5.7-40.5-14.9c-32.9-28.3-38.3-77.3-12.3-112.1l-11.2-8.4
			c-30.4,40.7-24.1,98.1,14.4,131.2c3.2,2.7,6.6,5.1,10.2,7.2c-9.3-2.4-18-6.9-25.4-13.1c-17.5-14.9-29.2-37.1-32.1-60.8
			c-3.1-24.4,3.3-47.3,17.8-64.3l6.2-7.3l-6.1-5.2l-6.2,7.3c-16.1,18.8-23.1,43.8-19.7,70.5c3.2,25.6,15.9,49.7,34.8,65.9
			c12.7,10.9,29.1,16.9,47.4,17.5h15.4c2.3,0.2,4.6,0.4,6.9,0.5h56.7v-14H270z"/>
		
			<rect x="241.6" y="227.4" transform="matrix(0.4187 -0.9081 0.9081 0.4187 -34.5222 426.9241)" class="st4" width="149.3" height="26"/>
		<path class="st2" d="M313.8,276.5l16.8-36.2c7.6-16.3,27-23.4,43.3-15.9l0,0c16.3,7.6,23.4,27,15.9,43.3l0,0
			c-9.3,20-33,28.7-53.1,19.4L313.8,276.5z"/>
	</g>
</g>
</svg>
