<svg id="example-arrow" xmlns="http://www.w3.org/2000/svg" viewBox="0 0 1886 356"><title>Иконки. Кнопки. Лого</title><path d="M1613.81,68.47c-3.6.19-7.28,0-10.8.62a1186.82,1186.82,0,0,1-253.37,18.64c-8.21-.29-10.74-2.76-9.55-10.82,3-20,5.53-40.12,7.92-60.22.8-6.74,4.24-7.44,10-6.5,27.59,4.49,55.11,9.57,82.84,12.88,81.34,9.74,163,10,244.53,4,38.43-2.86,76.86-6.85,114.93-12.65,20.76-3.16,40.78-11.18,61.13-17,3-.85,5.95-1.61,8.92-2.41L1872-2.71c-3.14,3.06-6,6.43-9.45,9.15-45.21,36-91.73,70.53-135.5,108.22-80.85,69.62-154.11,146.57-214.29,235.19-5.28,7.77-9,8.74-16.32,2.52-14-11.81-28.79-22.63-43.2-33.92-3-2.34-5.74-4.94-9.37-8.09,49.44-55.18,104.87-102.52,162.84-147.11l-1.3-2.41c-2.83.74-5.74,1.27-8.47,2.27A2384.49,2384.49,0,0,1,1264.6,258c-155.55,32.5-312.66,46.48-471.44,41-78.16-2.69-155.67-11.93-232.71-25.39a1529.61,1529.61,0,0,1-251.16-66.72c-33.56-12-67.5-23.63-99.47-39.13-26.68-12.93-52.07-29.52-75.69-47.57C91.8,87.9,51.22,53.27,10,19.53A13.57,13.57,0,0,1,5,11c8.26,3.05,16.45,6.27,24.77,9.13C95.34,42.7,161.11,64.72,226.44,87.94c26.89,9.55,52.77,21.93,79.31,32.52,64,25.53,130,44.62,197,60.26,83.77,19.54,168.73,31.25,254.45,36.92,79,5.22,158.07,3.91,237-1.71,101.51-7.22,201.6-23.51,300.8-46,105.16-23.84,207.69-56.12,308.52-94.08,3.7-1.4,7.24-3.2,10.86-4.81C1614.22,70.18,1614,69.32,1613.81,68.47Z"/></svg>