<svg id="e921c9a7-4739-4edb-8bf4-f69caee71885" data-name="Слой 1" xmlns="http://www.w3.org/2000/svg" viewBox="0 0 232.14 232.14"><path d="M227.42,116.07A111.35,111.35,0,1,1,116.07,4.72,111.34,111.34,0,0,1,227.42,116.07Zm-208.33,0a97,97,0,1,0,97-97A96.95,96.95,0,0,0,19.09,116.07Zm109.55,50.29a12.57,12.57,0,1,1-12.57-12.57A12.57,12.57,0,0,1,128.64,166.36ZM121.23,58.6a5.38,5.38,0,0,1,5.38,5.61l-3.14,75.43a5.4,5.4,0,0,1-5.39,5.17h-4a5.4,5.4,0,0,1-5.38-5.17l-3.14-75.43a5.38,5.38,0,0,1,5.38-5.61Z"/></svg>