<svg id="bc62a5a0-497d-48ab-8fd8-cad6b05730e4" data-name="Слой 1" xmlns="http://www.w3.org/2000/svg" viewBox="0 0 235.67 235.67"><path d="M209.53,117.83a91.7,91.7,0,1,1-91.7-91.69A91.69,91.69,0,0,1,209.53,117.83Zm-17.75,0a73.95,73.95,0,1,0-73.95,74A73.92,73.92,0,0,0,191.78,117.83Zm-73.95,51a15.53,15.53,0,1,1,15.53-15.53A15.54,15.54,0,0,1,117.83,168.86ZM107.71,70.51H128a4.43,4.43,0,0,1,4.43,4.66l-2.52,50.28a4.43,4.43,0,0,1-4.43,4.22H110.22a4.44,4.44,0,0,1-4.43-4.22l-2.51-50.28A4.43,4.43,0,0,1,107.71,70.51Z"/></svg>