<svg id="f604d29c-0146-4b79-bb4e-160d19bc4a2b" data-name="a6f444ff-ef01-439b-af3c-b50204e9dfb5" xmlns="http://www.w3.org/2000/svg" viewBox="0 0 754.82 473"><path d="M252.59,277.71h81.25v52.42c-20.44,14.68-46.65,22-76,22-65,0-111.13-49.28-111.13-116.38,0-63.43,46.65-115.33,105.37-115.33,42.46,0,67.62,13.63,95.93,37.22L398.86,96.3C360.58,63.82,320.74,46,254.69,46,143.55,46,62.3,131.45,62.3,235.77c0,109.56,78.63,189.77,192.91,189.77,67.1,0,119-26.21,156.74-58.19V208H252.59Z" transform="translate(-0.09 -0.18)"/><path d="M473.1.18H.09v473H754.91V.18Zm90.6,354.41H542V296h21.7Zm-35.67,0H473.1V296H528ZM459.1,459.2H14.1V14.2h445Zm104.6,0H473.1V368.59h90.6Zm177.21,0H577.7V296H740.91ZM577.7,282H473.1V14.18H740.91V282Z" transform="translate(-0.09 -0.18)"/><path d="M594.77,131.4c0-26.37-19.66-42.67-51.08-42.67h-50.9v117.6H520V173.57h25l22.68,32.76H597l-26.38-37.8C585.86,162,594.77,149,594.77,131.4Zm-52.59,20.5H520v-41h22.17c16.63,0,25,7.56,25,20.49C567.21,144.17,558.81,151.9,542.18,151.9Z" transform="translate(-0.09 -0.18)"/><path d="M653.23,88.73l-52.42,117.6H628.7l10.41-25.2h54.6l10.42,25.2h28.56L680.11,88.73Zm-5.38,71.74,18.65-45,18.65,45Z" transform="translate(-0.09 -0.18)"/><polygon points="704.43 377.32 649.18 377.32 704.43 332.08 704.43 314.66 613.43 314.66 613.43 335.46 668.68 335.46 613.43 380.83 613.43 398.12 704.43 398.12 704.43 377.32"/><rect x="613.43" y="419.7" width="91" height="21.06"/><polygon points="518.73 333.46 504.23 333.46 504.23 316.76 518.73 316.76 518.73 308.25 481.96 308.25 481.96 316.76 497.03 316.76 497.03 333.46 481.96 333.46 481.96 341.97 518.73 341.97 518.73 333.46"/><path d="M516,383.49c-10.25,0-18.73,3.69-24.28,10.5l8.74,8.06a18.69,18.69,0,0,1,14.78-7c11,0,18.82,7.73,18.82,18.81s-7.82,18.82-18.82,18.82a18.89,18.89,0,0,1-14.78-6.89l-8.74,8.07c5.55,6.72,14,10.41,24.19,10.41,18.32,0,31.92-12.68,31.92-30.41S534.23,383.49,516,383.49Z" transform="translate(-0.09 -0.18)"/><rect x="541.91" y="295.82" width="21.7" height="58.59" style="fill:#f36"/></svg>