<?xml version="1.0" encoding="utf-8"?>
<!-- Generator: Adobe Illustrator 25.2.0, SVG Export Plug-In . SVG Version: 6.00 Build 0)  -->
<svg version="1.1" id="f604d29c-0146-4b79-bb4e-160d19bc4a2b"
	 xmlns="http://www.w3.org/2000/svg" xmlns:xlink="http://www.w3.org/1999/xlink" x="0px" y="0px" viewBox="0 0 754.8 473"
	 style="enable-background:new 0 0 754.8 473;" xml:space="preserve">
<style type="text/css">
	.st0{fill:#FF3F94;}
</style>
<path d="M252.5,277.5h81.2V330c-20.4,14.7-46.6,22-76,22c-65,0-111.1-49.3-111.1-116.4c0-63.4,46.6-115.3,105.4-115.3
	c42.5,0,67.6,13.6,95.9,37.2l50.9-61.3c-38.3-32.5-78.1-50.3-144.2-50.3c-111.1,0-192.4,85.5-192.4,189.8
	c0,109.6,78.6,189.8,192.9,189.8c67.1,0,119-26.2,156.7-58.2V207.8H252.5V277.5z"/>
<path d="M473,0H0v473h754.8V0H473z M563.6,354.4h-21.7v-58.6h21.7V354.4z M527.9,354.4H473v-58.6h54.9L527.9,354.4z M459,459H14V14
	h445V459z M563.6,459H473v-90.6h90.6V459z M740.8,459H577.6V295.8h163.2L740.8,459z M577.6,281.8H473V14h267.8v267.8H577.6z"/>
<path d="M594.7,131.2c0-26.4-19.7-42.7-51.1-42.7h-50.9v117.6h27.2v-32.8h25l22.7,32.8h29.3l-26.4-37.8
	C585.8,161.8,594.7,148.8,594.7,131.2z M542.1,151.7h-22.2v-41h22.2c16.6,0,25,7.6,25,20.5C567.1,144,558.7,151.7,542.1,151.7z"/>
<path d="M653.1,88.6l-52.4,117.6h27.9L639,181h54.6l10.4,25.2h28.6L680,88.6H653.1z M647.8,160.3l18.7-45l18.7,45H647.8z"/>
<polygon points="704.4,377.3 649.2,377.3 704.4,332.1 704.4,314.7 613.4,314.7 613.4,335.5 668.7,335.5 613.4,380.8 613.4,398.1 
	704.4,398.1 "/>
<rect x="613.4" y="419.7" width="91" height="21.1"/>
<polygon points="518.7,333.5 504.2,333.5 504.2,316.8 518.7,316.8 518.7,308.2 482,308.2 482,316.8 497,316.8 497,333.5 482,333.5 
	482,342 518.7,342 "/>
<path d="M515.9,383.3c-10.2,0-18.7,3.7-24.3,10.5l8.7,8.1c3.6-4.5,9-7.1,14.8-7c11,0,18.8,7.7,18.8,18.8s-7.8,18.8-18.8,18.8
	c-5.7,0.1-11.1-2.5-14.8-6.9l-8.7,8.1c5.5,6.7,14,10.4,24.2,10.4c18.3,0,31.9-12.7,31.9-30.4S534.1,383.3,515.9,383.3z"/>
<rect x="541.9" y="295.8" class="st0" width="21.7" height="58.6"/>
</svg>
