<svg id="f9c3887f-6fa6-405b-a581-c0f3d9b0da31" data-name="f6df2ca0-f30f-44f5-a966-586b89c21f1b" xmlns="http://www.w3.org/2000/svg" viewBox="0 0 512.12 512.12"><polygon points="213.31 79.61 295.14 79.61 299.73 198.71 255.14 246.95 211.92 190.41 213.31 79.61" style="fill:#eba89b"/><circle cx="253.53" cy="142.36" r="49.88" style="fill:#ed1b2f"/><polygon points="303.41 63.52 203.65 60.3 203.65 37.32 303.41 37.32 303.41 63.52"/><path d="M444,411.12a239.73,239.73,0,0,1-185.5,91H255a239.68,239.68,0,0,1-188.68-93l-.26-.34c7.61-46.24,28.49-87.46,68.48-111.46,41.89-25.16,62.77-82.83,62.72-82.83l24.19,27.75c0,111.34,25.58,217.94,34.62,252.08l33.6-247.94,27.57-29.86c0,.18,17.42,50.64,53.44,76.84,28.57,20.77,61.49,50.79,73.28,117.41Z" transform="translate(0.12 0.12)"/><path d="M255.94,512A256.06,256.06,0,0,1,74.88,74.88,256.06,256.06,0,1,1,437,437,254.34,254.34,0,0,1,255.94,512Zm0-498.07c-133.44,0-242,108.57-242,242s108.57,242,242,242,242-108.56,242-242S389.39,13.93,255.94,13.93Z" transform="translate(0.12 0.12)"/></svg>