<svg   id="logo"  data-name="logo-white" xmlns="http://www.w3.org/2000/svg" viewBox="0 0 755 473"><defs></defs><title>Granich</title><path class="cls-1" d="M473.1,0H.09V473H754.91V0Zm90.61,354.42H542V295.8h21.68Zm-35.68,0H473.1V295.8H528ZM459.1,459h-445V14h445V459Zm104.61,0H473.1v-90.6h90.61Zm177.2,0H577.71V295.8h163.2ZM577.71,281.8H473.1V14H740.91V281.8Z"/><path class="cls-1" d="M237.54,281.22h91.8V323c-14.08,13-43.29,26.6-74.06,26.6-63.12,0-109-48.51-109-114.23s45.9-114.23,109-114.23c37,0,66.76,20.86,82.41,45.38l61.55-33.39c-26.08-41.2-71.46-77.71-144-77.71-101.72,0-185.17,69.89-185.17,180,0,109.54,83.45,180.47,185.17,180.47,63.11,0,112.66-26.08,148.13-65.72V216.54H237.54Z"/><path class="cls-1" d="M594.77,131.22c0-26.38-19.66-42.68-51.08-42.68h-50.9v117.6H520V173.38h25l22.68,32.76H597l-26.38-37.8C585.86,161.79,594.77,148.86,594.77,131.22Zm-52.59,20.49H520v-41h22.17c16.63,0,25,7.56,25,20.5C567.21,144,558.81,151.71,542.18,151.71Z"/><path class="cls-1" d="M653.23,88.54l-52.42,117.6H628.7l10.42-25.2h54.6l10.41,25.2h28.56L680.11,88.54Zm-5.38,71.74,18.65-45,18.65,45Z"/><polygon class="cls-1" points="704.53 377.32 649.27 377.32 704.53 332.07 704.53 314.65 613.52 314.65 613.52 335.45 668.77 335.45 613.52 380.83 613.52 398.12 704.53 398.12 704.53 377.32"/><rect class="cls-1" x="613.52" y="419.69" width="91" height="21.06"/><polygon class="cls-1" points="518.82 333.45 504.32 333.45 504.32 316.75 518.82 316.75 518.82 308.25 482.05 308.25 482.05 316.75 497.13 316.75 497.13 333.45 482.05 333.45 482.05 341.96 518.82 341.96 518.82 333.45"/><path class="cls-1" d="M516,383.3c-10.25,0-18.73,3.7-24.28,10.5l8.74,8.06a18.73,18.73,0,0,1,14.78-7c11,0,18.82,7.73,18.82,18.82s-7.81,18.81-18.82,18.81a18.9,18.9,0,0,1-14.78-6.89l-8.74,8.07c5.55,6.72,14,10.41,24.19,10.41,18.32,0,31.92-12.68,31.92-30.4S534.23,383.3,516,383.3Z"/></svg>