<svg id="a6f444ff-ef01-439b-af3c-b50204e9dfb5" data-name="Слой 1" xmlns="http://www.w3.org/2000/svg" viewBox="0 0 755 473"><path d="M252.59,277.71h81.25v52.42c-20.44,14.68-46.65,22-76,22-65,0-111.13-49.28-111.13-116.38,0-63.43,46.65-115.33,105.37-115.33,42.46,0,67.62,13.63,95.93,37.22l50.85-61.34C360.58,63.82,320.74,46,254.69,46,143.55,46,62.3,131.45,62.3,235.77c0,109.56,78.63,189.77,192.91,189.77,67.1,0,119-26.21,156.74-58.19V208H252.59Z" /><path d="M473.1.18H.09v473H754.91V.18Zm90.6,354.41H542V296H563.7Zm-35.67,0H473.1V296H528ZM459.1,459.2h-445v-445h445v445Zm104.6,0H473.1V368.59h90.6Zm177.21,0H577.7V296H740.91ZM577.7,282H473.1V14.18H740.91V282Z" /><path d="M594.77,131.4c0-26.37-19.66-42.67-51.08-42.67h-50.9v117.6H520V173.57h25l22.68,32.76H597l-26.38-37.8C585.86,162,594.77,149,594.77,131.4Zm-52.59,20.5H520v-41h22.17c16.63,0,25,7.56,25,20.49C567.21,144.17,558.81,151.9,542.18,151.9Z" /><path d="M653.23,88.73l-52.42,117.6H628.7l10.41-25.2h54.6l10.42,25.2h28.56L680.11,88.73Zm-5.38,71.74,18.65-45,18.65,45Z" /><polygon points="704.52 377.5 649.27 377.5 704.52 332.26 704.52 314.84 613.52 314.84 613.52 335.64 668.77 335.64 613.52 381.01 613.52 398.3 704.52 398.3 704.52 377.5" /><rect x="613.52" y="419.88" width="91" height="21.06" /><polygon points="518.82 333.64 504.32 333.64 504.32 316.94 518.82 316.94 518.82 308.43 482.05 308.43 482.05 316.94 497.12 316.94 497.12 333.64 482.05 333.64 482.05 342.15 518.82 342.15 518.82 333.64" /><path d="M516,383.49c-10.25,0-18.73,3.69-24.28,10.5l8.74,8.06a18.72,18.72,0,0,1,14.78-7c11,0,18.82,7.73,18.82,18.81s-7.82,18.82-18.82,18.82a18.89,18.89,0,0,1-14.78-6.89l-8.74,8.07c5.55,6.72,14,10.41,24.19,10.41,18.32,0,31.92-12.68,31.92-30.41S534.23,383.49,516,383.49Z" /></svg>