<svg id="be153b4c-a203-4926-b822-2171fcefc70c" data-name="Слой 1" xmlns="http://www.w3.org/2000/svg" viewBox="0 0 180 180"><title>illustrator-icon</title><path d="M18.8,21.09H162.09V160.47H18.8Z" style="fill:#200b01"/><path d="M18.8,21.09H162.09V160.47H18.8ZM12.29,167H168.6V14.57H12.29ZM114.67,68.89c0-.52.2-.78.79-.78h10.22c.52,0,.78.2.78.78v51.39c0,.52-.13.78-.78.78H115.59c-.66,0-.85-.32-.85-.84V68.89ZM114,54.11a6.64,6.64,0,1,1,13.28,0c0,4.3-2.8,6.64-6.77,6.64C116.69,60.75,114,58.41,114,54.11ZM84.65,90.32c-1.83-7.23-6.12-23-7.75-30.61h-.13C75.4,67.33,72,80.23,69.21,90.32ZM66.54,100.87,61.4,120.41c-.13.52-.33.65-1,.65H50.84c-.65,0-.78-.19-.65-1l18.5-64.74a21,21,0,0,0,.65-5.41c0-.46.2-.65.52-.65H83.54c.46,0,.65.13.78.65L105,120.22c.13.52,0,.84-.52.84H93.7c-.52,0-.85-.13-1-.58l-5.34-19.61Z" style="fill:#ff7f18"/></svg>