<svg id="a598fe80-fcbe-4631-8901-be52d073d7cf" data-name="Livello 1" xmlns="http://www.w3.org/2000/svg" viewBox="0 0 239.9 234"><rect x="10.1" y="10.1" width="220" height="213.9" style="fill:#2e0013"/><path d="M239.9,0V234H0V0ZM10.1,10.1V224h220V10.1ZM87.7,162.2V54.6a1.44,1.44,0,0,0-.2-.9,2,2,0,0,0-.9-.2H71.1a1.33,1.33,0,0,0-1,.3,1.49,1.49,0,0,0-.3,1V162.2a1.14,1.14,0,0,0,.3.8,1.49,1.49,0,0,0,1,.3H86.4a2,2,0,0,0,1.1-.2c.2-.1.2-.4.2-.9Zm17.6-38.8c0,14,3.6,24.4,10.7,31.3S132.2,165,143.2,165a67.55,67.55,0,0,0,13.3-1.4,49.28,49.28,0,0,0,13-4.6,1.79,1.79,0,0,0,.7-.5,1.17,1.17,0,0,0,.2-.7,32.87,32.87,0,0,1-.5-5.4v-98a.75.75,0,0,0-.9-.9H152.5c-.2,0-.3.1-.6.2a.91.91,0,0,0-.3.7V81.1a25,25,0,0,0-2.5-.2h-2.7c-12.6,0-22.7,4.1-30,12.3s-11.1,18.3-11.1,30.2Zm46.4-26.3v50.7a8,8,0,0,1-3.3.9,24.84,24.84,0,0,1-3.8.2,19.79,19.79,0,0,1-14.7-6.2c-4-4.1-6.1-10.8-6.1-20.1,0-8.4,2.1-14.9,6.2-19.5a20.34,20.34,0,0,1,15.8-7,32.51,32.51,0,0,1,3.3.2c1,.3,1.9.5,2.6.8Z" style="fill:#ff3f94"/></svg>