<svg id="login-button" xmlns="http://www.w3.org/2000/svg" viewBox="0 0 35.2 35.2">
<path fill="#FFFFFF"  d="M0.6,13.2c2.2-8.7,10.7-14.3,19.5-13c8.8,1.3,15.3,9,15.1,17.9c-0.2,9.3-7.7,16.8-16.9,17.1
	c-8.2,0.4-15.6-5.1-17.6-13.1c0.1,0,0.1,0,0.2-0.1c2.5-0.2,2.5-0.2,3.5,2c3.6,7.3,12.4,10.4,19.7,6.8s10.4-12.4,6.8-19.7
	C27.3,3.9,18.5,0.8,11.2,4.4C7.9,6,5.3,8.7,4,12.1c-0.3,0.9-0.7,1.2-1.6,1.1C1.8,13.2,1.2,13.2,0.6,13.2z"/>
<path fill="#FFFFFF" d="M23.2,17.7l-6.6,6.6l-2.1-2.1l3.2-3.2H0v-2.8h17.8l-3.3-3.1l2.1-2.1L23.2,17.7z"/>
</svg>
