<svg id="a26bf1cc-7785-49be-bb2f-030a15105020" data-name="Слой 1" xmlns="http://www.w3.org/2000/svg" viewBox="0 0 535 332"><rect x="195.25" y="35.71" width="145.05" height="260.62" style="fill:#e8550d"/><path d="M204.46,166A166.21,166.21,0,0,1,267.55,35.71,165.71,165.71,0,1,0,165.33,331.79a164.77,164.77,0,0,0,102.22-35.45A165.53,165.53,0,0,1,204.46,166" style="fill:#e10814"/><path d="M536,166A165.6,165.6,0,0,1,268,296.34a166.15,166.15,0,0,0,0-260.63A164.75,164.75,0,0,1,370.23.26C461.87.26,536,74.85,536,166" style="fill:#f49d00"/></svg>