<svg id="mastercard" data-name="mastercard" xmlns="http://www.w3.org/2000/svg" viewBox="0 0 535 332"><defs><style>.mastercard-cls-1{fill:#e8550d;}.mastercard-cls-2{fill:#e10814;}.mastercard-cls-3{fill:#f49d00;}</style></defs><title>Мастеркард</title><rect class="mastercard-cls-1" x="195.25" y="35.71" width="145.05" height="260.62"/><path class="mastercard-cls-2" d="M204.46,166A166.21,166.21,0,0,1,267.55,35.71,165.71,165.71,0,1,0,165.33,331.79a164.77,164.77,0,0,0,102.22-35.45A165.53,165.53,0,0,1,204.46,166"/><path class="mastercard-cls-3" d="M536,166A165.6,165.6,0,0,1,268,296.34a166.15,166.15,0,0,0,0-260.63A164.75,164.75,0,0,1,370.23.26C461.87.26,536,74.85,536,166"/></svg>