<svg width="2vw" height="2vw" id="Слой_1" data-name="Слой 1" xmlns="http://www.w3.org/2000/svg" xmlns:xlink="http://www.w3.org/1999/xlink" viewBox="0 0 180 180"><defs><style>.medium-cls-1{fill:#e6e6e6;}.medium-cls-2{fill:#2a2a2a;}.medium-cls-3{opacity:0.6;}.medium-cls-4{fill:url(#linear-gradient);}</style><linearGradient id="linear-gradient" x1="32.44" y1="-9.95" x2="147.59" y2="189.51" gradientUnits="userSpaceOnUse"><stop offset="0.22" stop-color="#fff" stop-opacity="0.3"/><stop offset="0.4" stop-color="#fff" stop-opacity="0"/></linearGradient></defs><title>Иконки. Кнопки. Лого</title><rect class="medium-cls-1" x="-0.29" y="-0.75" width="180.29" height="180.29" rx="20.03"/><path class="medium-cls-2" d="M42.73,59.54a4.66,4.66,0,0,0-1.52-4L29.9,42v-2H65L92.15,99.45,116,39.93h33.47v2l-9.67,9.27a2.82,2.82,0,0,0-1.07,2.71v68.12a2.81,2.81,0,0,0,1.07,2.71l9.44,9.27v2H101.77v-2l9.78-9.49c1-1,1-1.25,1-2.72v-55l-27.2,69.07H81.64L50,66.78v46.29a6.39,6.39,0,0,0,1.76,5.32l12.72,15.43v2H28.37v-2l12.72-15.43a6.14,6.14,0,0,0,1.64-5.32Z"/><g class="medium-cls-3"><rect class="medium-cls-4" x="0.03" y="-0.21" width="179.97" height="179.97" rx="21.23"/></g></svg>