<svg  id="offer-underline" data-name="offer-underline" xmlns="http://www.w3.org/2000/svg" viewBox="0 0 674 47"><defs></defs><path fill="#fff"  d="M668.67,12.08c1-.06.26,1.91.4,2.86-2.55.81-5.07,2.2-7.65,2.34q-37.51,2-75,3.71c-22.11,1-213.39,1.19-274.18-.14-60.95-1.33-121.87-3.65-182.8-5.54l-.23,2.21,57,16.86c-.2.77-.41,1.53-.62,2.3-12-2.69-24.29-4.65-36.07-8.2A245.89,245.89,0,0,0,39.51,21c-9.58,1.48-19.27,2.4-28.95,3.14-3.05.24-6.21-.94-9.33-1.47-.11-1-.22-2.05-.34-3.07,3.77-1.17,7.48-3,11.33-3.4C59,11,106,10.39,153,11.6c74.34,1.92,148.66,4.75,223,6.18C414,17.78,622.34,15.16,668.67,12.08Z"/></svg>