<svg id="robokassa" data-name="robokassa" xmlns="http://www.w3.org/2000/svg" viewBox="0 0 678 327"><defs></defs><title>Робокасса</title><path  fill="#2970b8" d="M289.83,73.46c0-16.11-.09-32.21,0-48.32C290,8.75,296.38,1.41,312.8.82c22.94-.82,45.93-1.31,68.85.42,16.69,1.27,27.79,11,31.64,27.26,3.49,14.77,2.36,29-7.22,41.52-2.51,3.27-1.61,5,.38,7.86,10.47,15,11,31.31,4.59,47.89-5.55,14.33-17.69,20.26-31.92,20.75-22.93.79-45.93.59-68.88.14-12.5-.24-20.07-8.63-20.29-21.58-.29-17.2-.07-34.41-.07-51.62Zm59.41,44.16v-.11c8.83,0,17.66.17,26.48-.08,3.94-.11,7.77-.68,9.14-5.79,3.34-12.52-3.29-22.56-16.16-22.93-15-.42-30-.08-45-.26-3.47,0-4.63,1.09-4.51,4.55.22,6.61.25,13.24,0,19.84-.15,3.81,1.2,5,4.92,4.85C332.46,117.46,340.85,117.62,349.24,117.62Zm.58-87.4V30c-8.61,0-17.21.08-25.82,0-3.12-.05-5,.47-4.85,4.27.24,7,.11,14.11.06,21.16,0,2.27.42,3.87,3.21,3.82,15.88-.31,31.8.95,47.62-.65,11.55-1.16,16.28-7.85,15.3-19.51-.48-5.73-2.86-9-9-8.87C367.48,30.32,358.65,30.22,349.82,30.22Z"/><path fill="#2970b8"  d="M125.78,147c-10.71,0-20.19-.16-29.67.08-3.37.09-4.56-1.72-5.84-4.2-5.44-10.58-11.14-21-16.41-31.69-1.62-3.28-3.62-4.42-7.14-4.37-10.6.17-21.2.22-31.79,0-4-.09-5.38,1-5.25,5.19.29,9.47-.16,19,.19,28.44.19,5-.87,7.23-6.42,6.71a93.12,93.12,0,0,0-16.53,0c-5.4.45-7.08-1.17-7-6.81C.15,103.2,0,66.15,0,29.1c0-3.08.24-6.17.54-9.24C1.66,8.82,8.14,1.71,19.19,1.11c24-1.3,48.11-1.7,72.1.19,15,1.19,25.9,9.35,31.3,23.85a73.48,73.48,0,0,1,2.55,43.57c-2.82,11.77-9.31,21.45-19.63,28-3.59,2.3-4,4-2,7.7C111,118.15,118,132.07,125.78,147Zm-66-116.8V30c-8.39,0-16.79.08-25.18,0-3.06,0-4.93.32-4.87,4.18.2,13,.08,26.05.07,39.07,0,2.09,0,4.05,3,4,15.45-.34,31,1.28,46.33-.82,11.06-1.5,17.17-8.68,18.33-19.6A51.32,51.32,0,0,0,95.94,38.4C94.55,33,91.3,30.12,85.6,30.14,77,30.17,68.37,30.15,59.75,30.15Z"/><path  fill="#d72334" d="M265,277.11c0,11.25.1,22.51,0,33.76-.12,10.22-5.3,15.46-14.86,15.44s-14.63-5.45-14.72-15.6c-.06-5.73-.14-11.48,0-17.21.1-3.21-.62-4.79-4.33-4.77q-30.81.22-61.62,0c-3.59,0-4.54,1.39-4.45,4.71.19,6.4.16,12.8,0,19.2-.18,8.36-5.3,13.35-13.77,13.66s-15.38-4.36-15.3-12.14c.29-27.74-2.55-55.6,2.34-83.2a93.21,93.21,0,0,1,10.38-28.43c8.27-15.16,21.62-21.66,38.13-22,13-.28,26-1.43,38.92,1.62a39,39,0,0,1,25.37,18.67c10.34,17.19,13.65,36.1,13.88,55.77C265,263.43,265,270.27,265,277.11Zm-65.08-17.68c10.38,0,20.76-.07,31.15.05,2.91,0,4.38-.53,4.34-4-.13-13.19-2.25-25.85-8.44-37.7-2.6-5-6.37-7.79-12-7.82q-14.57-.06-29.15,0c-5.65,0-9.28,2.91-12,7.88-6.38,11.8-8,24.58-8.78,37.66-.2,3.55,1.53,3.94,4.37,3.92C179.55,259.38,189.71,259.43,199.88,259.43Z"/><path fill="#d72334"  d="M677.91,279.64c0,10.81.06,21.62,0,32.43-.06,9-5.46,14.23-14.53,14.24s-14.52-5.21-14.69-14.18c-.12-6.18-.23-12.36.05-18.53.17-3.83-1.25-4.89-4.94-4.87q-30.46.21-60.95,0c-3.54,0-4.58,1.22-4.46,4.6.21,6.17.14,12.36,0,18.53-.16,9.06-5.56,14.36-14.5,14.44-9.38.09-14.77-5.15-14.8-14.67-.07-19.86-.14-39.72,0-59.57a106,106,0,0,1,10.76-46c7.61-15.69,19.84-24.36,37.34-25.36,11.69-.67,23.39-.94,35.06.24,14.05,1.42,25,7.88,32.25,20.29,8.77,15,12.8,31.35,13.32,48.57C678.15,259.77,677.91,269.71,677.91,279.64Zm-64.63-20.21c10.38,0,20.76-.08,31.14.05,3,0,4.37-.69,4.28-4-.38-13.14-2.33-25.84-8.63-37.65-2.65-5-6.4-7.76-12-7.79q-14.56-.07-29.14,0c-5.35,0-9,2.61-11.59,7.36-6.49,12-8.65,24.84-8.94,38.23-.07,3.55,1.62,3.88,4.44,3.85C593,259.37,603.12,259.43,613.28,259.43Z"/><path  fill="#2970b8" d="M202.33,146.87c-7.63-.56-18.27,1.29-28.75-1.17-13-3-22.44-10.39-26.45-23.31A161.3,161.3,0,0,1,147,25.45c4.54-14.83,15.67-22.87,30.77-24.26a309.29,309.29,0,0,1,54.86,0c15.73,1.35,26.93,9.8,31.48,25.18,9.36,31.63,9.54,63.48-.16,95.06-4.86,15.8-17.5,24.77-34.21,25.42C221.59,147.13,213.41,146.87,202.33,146.87Zm3-29.26c7.06,0,14.12,0,21.17,0,5.19,0,8.79-1.87,10.18-7.34a145.71,145.71,0,0,0-.05-73.15c-1.21-4.73-4-7.07-8.95-7.06q-22.17.06-44.33,0c-5.22,0-7.94,2.46-9.23,7.51a142.84,142.84,0,0,0,0,72.47c1.44,5.51,4.8,7.53,10,7.55C191.18,117.63,198.24,117.61,205.3,117.61Z"/><path fill="#2970b8"  d="M498,146.88c-8,0-15.92.22-23.87,0-17.06-.55-29.74-9.46-34.67-25.73A161.15,161.15,0,0,1,439.49,26C444.16,10.49,455.55,2.4,471.24,1.1a320,320,0,0,1,53.62,0c15.69,1.32,27,9.44,31.7,24.93a161.42,161.42,0,0,1,0,95.15c-4.94,16.23-17.63,25.11-34.73,25.65C513.89,147.09,505.93,146.88,498,146.88Zm0-29.27c7.06,0,14.12,0,21.17,0,5.22,0,8.73-2,10.13-7.44a142.82,142.82,0,0,0-.08-73.12c-1.26-4.81-4.11-7-9-7q-22.17,0-44.33,0c-4.81,0-7.75,2-9,6.89a143,143,0,0,0-.14,73.12c1.4,5.44,4.84,7.52,10.08,7.51Z"/><path  fill="#d72334" d="M353.14,180.35c11.93,0,23.86.14,35.79-.08,3.92-.07,5.26.9,5.34,5.11.38,21.77-2,24.37-23.86,24.39-16.35,0-32.7-.08-49,.21-9.7.18-11.56,2.32-12.09,11.84-.77,13.78,2,16.75,15.92,16.88,11.48.11,23,0,34.46,0,22.2,0,34,9.18,38.92,30.86a55.29,55.29,0,0,1-2.93,35c-6.14,14.21-16.75,21.75-32.43,21.75-20.77,0-41.54.07-62.31,0-10.1-.05-15.48-5.42-15.4-14.9.07-9.16,5.35-14.38,15.17-14.45,19.44-.13,38.88,0,58.32-.05,8.08,0,10.14-1.81,11.24-9.66,2-14.5-1.92-19-16.44-19.15-13.24-.16-26.51.8-39.73-.75-17.41-2.05-28.56-12-32.73-29a60.75,60.75,0,0,1-.95-23.67c3.1-20.59,15.51-32.37,36.33-33.65,12.09-.74,24.28-.13,36.42-.13Z"/><path fill="#d72334"  d="M463.56,326.32c-10.38,0-20.77.08-31.15,0-9.8-.11-15.12-5.23-15.24-14.4-.13-9.48,5.2-14.88,15.34-14.95,19.66-.13,39.33-.23,59,.07,6.47.1,9.39-2.75,10.12-8.66a44.53,44.53,0,0,0,.47-7.9c-.51-9.05-3.74-12.19-12.8-12.3-10.6-.13-21.21.1-31.81-.09a88.1,88.1,0,0,1-15.15-1.27c-18.21-3.51-28.9-16.3-30.77-36.41A62.13,62.13,0,0,1,413,210c4-16.54,15.47-27.37,32.22-28.76,25.56-2.1,51.22-.48,76.83-.92,2.92,0,4,1.18,3.74,4,0,.21,0,.44,0,.66.45,18,1,25.85-23.91,24.94-16.1-.58-32.25-.2-48.37.07-10,.18-11.83,2.2-12.66,12.1-1.05,12.51,2.32,16.4,14.93,16.62,11,.2,22.09.05,33.13.05,26.69,0,40.13,12.16,42.74,38.87a53.75,53.75,0,0,1-3.81,25.93c-6.18,15-17.14,23.05-33.75,22.82C483.88,326.21,473.72,326.32,463.56,326.32Z"/><path  fill="#d72334" d="M81,253.35c8.77,7.52,16.93,15,23.81,23.64,8.26,10.43,14.46,21.61,13.62,35.58-.51,8.55-5.73,13.68-14.52,13.74S89.15,321.41,89.18,313c0-5.67-2-10.27-5.16-14.63a122.61,122.61,0,0,0-29.6-28.22c-6.69-4.61-15-1.63-22.58-1.59-1.85,0-1.15,3-1.16,4.65-.06,12.81.09,25.61-.07,38.41C30.46,323.45,20.5,330,9.53,325.65c-7.48-3-8.64-9.23-8.63-16.25Q1,258.73.92,208.07c0-4.42-.15-8.84,0-13.25.43-9.52,6-14.7,15.24-14.46,8.94.23,14.26,5.46,14.39,14.67.18,12.8.22,25.61-.05,38.41-.09,4.16,1.39,4.94,5.22,5.34,10.92,1.12,20.4-.89,28.11-9.38,4.89-5.38,10.46-10.14,15.59-15.3a31.62,31.62,0,0,0,9.68-23.81c-.13-6.63,3-9.44,9.74-9.92,14.34-1,20,4.34,19.5,18.68-.31,9.66-4.45,17.87-9.79,25.58C101.13,235.43,91.59,244.3,81,253.35Z"/></svg>