<svg id="Layer_1" data-name="Layer 1" xmlns="http://www.w3.org/2000/svg" viewBox="0 0 2160.54 631.32"><defs><style>.cls-1{fill:#e40521;}.cls-2{fill:#fff;}.cls-3{fill:#e6007e;}</style></defs><circle class="cls-1" cx="563.2" cy="431.32" r="200"/><path class="cls-2" d="M1310.93-126l62.2-62.2a12,12,0,0,0,0-17l-22.6-22.6a12,12,0,0,0-17,0l-62.2,62.2-62.2-62.2a12,12,0,0,0-17,0l-22.6,22.6a12,12,0,0,0,0,17l62.2,62.2-62.2,62.2a12,12,0,0,0,0,17l22.6,22.6a12,12,0,0,0,17,0l62.2-62.2,62.2,62.2a12,12,0,0,0,17,0l22.6-22.6a12,12,0,0,0,0-17Zm0,0,62.2-62.2a12,12,0,0,0,0-17l-22.6-22.6a12,12,0,0,0-17,0l-62.2,62.2-62.2-62.2a12,12,0,0,0-17,0l-22.6,22.6a12,12,0,0,0,0,17l62.2,62.2-62.2,62.2a12,12,0,0,0,0,17l22.6,22.6a12,12,0,0,0,17,0l62.2-62.2,62.2,62.2a12,12,0,0,0,17,0l22.6-22.6a12,12,0,0,0,0-17Zm0,0,62.2-62.2a12,12,0,0,0,0-17l-22.6-22.6a12,12,0,0,0-17,0l-62.2,62.2-62.2-62.2a12,12,0,0,0-17,0l-22.6,22.6a12,12,0,0,0,0,17l62.2,62.2-62.2,62.2a12,12,0,0,0,0,17l22.6,22.6a12,12,0,0,0,17,0l62.2-62.2,62.2,62.2a12,12,0,0,0,17,0l22.6-22.6a12,12,0,0,0,0-17Z" transform="translate(363.2 231.32)"/><circle class="cls-3" cx="1960.54" cy="431.32" r="200"/><path class="cls-2" d="M1636.93,200l62.2-62.2a12,12,0,0,0,0-17l-22.6-22.6a12,12,0,0,0-17,0l-62.2,62.2-62.2-62.2a12,12,0,0,0-17,0l-22.6,22.6a12,12,0,0,0,0,17l62.2,62.2-62.2,62.2a12,12,0,0,0,0,17l22.6,22.6a12,12,0,0,0,17,0l62.2-62.2,62.2,62.2a12,12,0,0,0,17,0l22.6-22.6a12,12,0,0,0,0-17Zm0,0,62.2-62.2a12,12,0,0,0,0-17l-22.6-22.6a12,12,0,0,0-17,0l-62.2,62.2-62.2-62.2a12,12,0,0,0-17,0l-22.6,22.6a12,12,0,0,0,0,17l62.2,62.2-62.2,62.2a12,12,0,0,0,0,17l22.6,22.6a12,12,0,0,0,17,0l62.2-62.2,62.2,62.2a12,12,0,0,0,17,0l22.6-22.6a12,12,0,0,0,0-17Zm0,0,62.2-62.2a12,12,0,0,0,0-17l-22.6-22.6a12,12,0,0,0-17,0l-62.2,62.2-62.2-62.2a12,12,0,0,0-17,0l-22.6,22.6a12,12,0,0,0,0,17l62.2,62.2-62.2,62.2a12,12,0,0,0,0,17l22.6,22.6a12,12,0,0,0,17,0l62.2-62.2,62.2,62.2a12,12,0,0,0,17,0l22.6-22.6a12,12,0,0,0,0-17Z" transform="translate(363.2 231.32)"/><path class="cls-2" d="M1310.93,200l62.2-62.2a12,12,0,0,0,0-17l-22.6-22.6a12,12,0,0,0-17,0l-62.2,62.2-62.2-62.2a12,12,0,0,0-17,0l-22.6,22.6a12,12,0,0,0,0,17l62.2,62.2-62.2,62.2a12,12,0,0,0,0,17l22.6,22.6a12,12,0,0,0,17,0l62.2-62.2,62.2,62.2a12,12,0,0,0,17,0l22.6-22.6a12,12,0,0,0,0-17Zm0,0,62.2-62.2a12,12,0,0,0,0-17l-22.6-22.6a12,12,0,0,0-17,0l-62.2,62.2-62.2-62.2a12,12,0,0,0-17,0l-22.6,22.6a12,12,0,0,0,0,17l62.2,62.2-62.2,62.2a12,12,0,0,0,0,17l22.6,22.6a12,12,0,0,0,17,0l62.2-62.2,62.2,62.2a12,12,0,0,0,17,0l22.6-22.6a12,12,0,0,0,0-17Zm0,0,62.2-62.2a12,12,0,0,0,0-17l-22.6-22.6a12,12,0,0,0-17,0l-62.2,62.2-62.2-62.2a12,12,0,0,0-17,0l-22.6,22.6a12,12,0,0,0,0,17l62.2,62.2-62.2,62.2a12,12,0,0,0,0,17l22.6,22.6a12,12,0,0,0,17,0l62.2-62.2,62.2,62.2a12,12,0,0,0,17,0l22.6-22.6a12,12,0,0,0,0-17Z" transform="translate(363.2 231.32)"/><path class="cls-2" d="M-344.47,88l91.14,93.26L-162.2,88l18.74,18.74L-235,200l91.56,93.26L-162.2,312l-91.13-93.26L-344.47,312l-18.73-18.74L-272.07,200l-91.13-93.26Z" transform="translate(363.2 231.32)"/><path class="cls-2" d="M270.7,295.33a2,2,0,0,1-1.43-.6L200,225.46l-69.27,69.27a2,2,0,0,1-2.86,0l-22.6-22.6a2,2,0,0,1,0-2.86L174.54,200l-69.27-69.27a2,2,0,0,1,0-2.86l22.6-22.6a2,2,0,0,1,2.86,0L200,174.54l69.27-69.27a2,2,0,0,1,2.86,0l22.6,22.6a2,2,0,0,1,0,2.86L225.46,200l69.27,69.27a2,2,0,0,1,0,2.86l-22.6,22.6A2,2,0,0,1,270.7,295.33Z" transform="translate(363.2 231.32)"/></svg>