<svg id="a045dab7-5f15-424a-ab4c-93ee40aa9bfb" data-name="Слой 1" xmlns="http://www.w3.org/2000/svg" xmlns:xlink="http://www.w3.org/1999/xlink" viewBox="0 0 610 332"><defs><clipPath id="f09c54b1-605c-498f-a440-84df1fccc88e"><path d="M301.52,123.42c-.31,24.69,22,38.47,38.82,46.66,17.27,8.4,23.07,13.79,23,21.31-.13,11.5-13.78,16.58-26.56,16.78-22.28.34-35.23-6-45.54-10.83l-8,37.56c10.33,4.76,29.47,8.92,49.31,9.1,46.58,0,77.06-23,77.22-58.64.18-45.25-62.58-47.75-62.15-68,.14-6.14,6-12.68,18.82-14.34,6.34-.84,23.86-1.49,43.73,7.66L418,74.37a118.85,118.85,0,0,0-41.5-7.62c-43.84,0-74.68,23.31-74.93,56.67M492.86,69.88A20.23,20.23,0,0,0,474,82.46L407.45,241.33H454l9.26-25.6h56.88l5.37,25.6h41L530.74,69.88H492.86m6.51,46.32,13.44,64.38H476l23.35-64.38M245.09,69.88,208.4,241.33h44.35L289.42,69.88H245.09m-65.62,0-46.16,116.7L114.63,87.35c-2.19-11.07-10.84-17.47-20.45-17.47H18.71l-1.06,5c15.5,3.36,33.1,8.79,43.76,14.59,6.53,3.54,8.39,6.64,10.53,15.06l35.37,136.82h46.88L226.05,69.88H179.47" style="fill:none"/></clipPath><linearGradient id="b47c95b1-dd9f-413c-8a1d-fc675143d676" x1="714.27" y1="449.31" x2="715.77" y2="449.31" gradientTransform="matrix(327.81, 0, 0, -327.81, -234094.45, 147445.32)" gradientUnits="userSpaceOnUse"><stop offset="0" stop-color="#252552"/><stop offset="0.13" stop-color="#272a5e"/><stop offset="0.47" stop-color="#2c377b"/><stop offset="0.78" stop-color="#2f3e8c"/><stop offset="1" stop-color="#304192"/></linearGradient></defs><path d="M584.84,332H18.16C4.26,332,0,320.74,0,306.84V25.16C0,11.26,4.26,0,18.16,0H584.84A25.15,25.15,0,0,1,610,25.16V306.84A25.15,25.15,0,0,1,584.84,332Z" style="fill:#fff"/><g style="clip-path:url(#f09c54b1-605c-498f-a440-84df1fccc88e)"><rect x="3.93" y="-22.63" width="576.32" height="356.01" transform="translate(-35.7 110.52) rotate(-20.22)" style="fill:url(#b47c95b1-dd9f-413c-8a1d-fc675143d676)"/></g></svg>