<svg width="5.5vw" id="visa" data-name="visa" xmlns="http://www.w3.org/2000/svg" xmlns:xlink="http://www.w3.org/1999/xlink" viewBox="0 0 608 332"><defs><style>.visa-cls-1{fill:none;}.visa-cls-2{fill:#fff;}.visa-cls-3{clip-path:url(#clip-path);}.visa-cls-4{fill:url(#Безымянный_градиент_2);}</style><clipPath id="clip-path"><path class="visa-cls-1" d="M304.52,134c-.31,24.69,22,38.47,38.82,46.66,17.27,8.41,23.07,13.8,23,21.31-.13,11.51-13.78,16.58-26.56,16.78-22.28.35-35.23-6-45.54-10.83l-8,37.57c10.33,4.76,29.47,8.91,49.31,9.09,46.58,0,77.06-23,77.22-58.64.18-45.24-62.58-47.75-62.15-68,.14-6.13,6-12.68,18.82-14.34,6.34-.84,23.86-1.48,43.73,7.66L421,85a118.87,118.87,0,0,0-41.5-7.61c-43.84,0-74.68,23.3-74.93,56.66M495.86,80.51A20.22,20.22,0,0,0,477,93.08L410.45,252H457l9.26-25.59h56.88L528.51,252h41L533.74,80.51H495.86m6.51,46.31,13.44,64.38H479l23.35-64.38M248.09,80.51,211.4,252h44.35L292.42,80.51H248.09m-65.62,0L136.31,197.2,117.63,98c-2.19-11.08-10.84-17.47-20.45-17.47H21.71l-1.06,5c15.5,3.36,33.1,8.78,43.76,14.58,6.53,3.55,8.39,6.64,10.53,15.07L110.31,252h46.88L229.05,80.51H182.47"/></clipPath><linearGradient id="Безымянный_градиент_2" x1="1534.45" y1="12.89" x2="1535.95" y2="12.89" gradientTransform="matrix(327.81, 0, 0, -327.81, -502959.3, 4392.91)" gradientUnits="userSpaceOnUse"><stop offset="0" stop-color="#252552"/><stop offset="0.13" stop-color="#272a5e"/><stop offset="0.47" stop-color="#2c377b"/><stop offset="0.78" stop-color="#2f3e8c"/><stop offset="1" stop-color="#304192"/></linearGradient></defs><title>Виза</title><rect class="visa-cls-2" width="608" height="332" rx="25.16"/><g class="visa-cls-3"><rect class="visa-cls-4" x="6.93" y="-12.01" width="576.32" height="356.01" transform="translate(-39.19 112.21) rotate(-20.22)"/></g></svg>