<svg width="90" id="visa" data-name="visa" xmlns="http://www.w3.org/2000/svg" xmlns:xlink="http://www.w3.org/1999/xlink" viewBox="0 0 755 332"><defs><style>.visa-cls-1{fill:none;}.visa-cls-2{fill:#fff;}.visa-cls-3{clip-path:url(#clip-path);}.visa-cls-4{fill:url(#Безымянный_градиент_2);}</style><clipPath id="clip-path"><path class="visa-cls-1" d="M373.52,123.42c-.31,24.69,22,38.47,38.82,46.66,17.27,8.4,23.07,13.79,23,21.31-.13,11.5-13.78,16.58-26.56,16.78-22.28.34-35.23-6-45.54-10.83l-8,37.56c10.33,4.76,29.47,8.92,49.31,9.1,46.58,0,77.06-23,77.22-58.64.18-45.25-62.58-47.75-62.15-68,.14-6.14,6-12.68,18.82-14.34,6.34-.84,23.86-1.49,43.73,7.66L490,74.37a118.85,118.85,0,0,0-41.5-7.62c-43.84,0-74.68,23.31-74.93,56.67M564.86,69.88A20.23,20.23,0,0,0,546,82.46L479.45,241.33H526l9.26-25.6h56.88l5.37,25.6h41L602.74,69.88H564.86m6.51,46.32,13.44,64.38H548l23.35-64.38M317.09,69.88,280.4,241.33h44.35L361.42,69.88H317.09m-65.62,0-46.16,116.7L186.63,87.35c-2.19-11.07-10.84-17.47-20.45-17.47H90.71l-1.06,5c15.5,3.36,33.1,8.79,43.76,14.59,6.53,3.54,8.39,6.64,10.53,15.06l35.37,136.82h46.88L298.05,69.88H251.47"/></clipPath><linearGradient id="Безымянный_градиент_2" x1="1606.45" y1="12.93" x2="1607.95" y2="12.93" gradientTransform="matrix(327.81, 0, 0, -327.81, -526493.83, 4393.3)" gradientUnits="userSpaceOnUse"><stop offset="0" stop-color="#252552"/><stop offset="0.13" stop-color="#272a5e"/><stop offset="0.47" stop-color="#2c377b"/><stop offset="0.78" stop-color="#2f3e8c"/><stop offset="1" stop-color="#304192"/></linearGradient></defs><title>Виза</title><rect class="visa-cls-2" width="755" height="332" rx="25.16"/><g class="visa-cls-3"><rect class="visa-cls-4" x="75.93" y="-22.63" width="576.32" height="356.01" transform="translate(-31.26 135.4) rotate(-20.22)"/></g></svg>