<svg id="eff907b1-0e9b-4ce0-84d5-afb0f38fae0c" data-name="b81b023d-6716-497e-8ef8-cb95ad5da4b6" xmlns="http://www.w3.org/2000/svg" viewBox="0 0 97.67 86.82"><path d="M89.53,86.82H8.15a8.15,8.15,0,0,1-7-12.21L41.78,4.07a8.15,8.15,0,0,1,14.11,0L96.57,74.61A8.14,8.14,0,0,1,89.53,86.82Zm2.34-9.49L51.17,6.78a2.71,2.71,0,0,0-4.69,0L5.78,77.33A2.72,2.72,0,0,0,8.13,81.4h81.4A2.71,2.71,0,0,0,91.87,77.33ZM53.58,70.54a4.75,4.75,0,1,1-4.75-4.75A4.74,4.74,0,0,1,53.58,70.54ZM51.84,27.13a1,1,0,0,1,1,1.05L51.58,61.42a1,1,0,0,1-1,1H47.09a1,1,0,0,1-1-1L44.8,28.18a1,1,0,0,1,1-1.05Z"/></svg>