<svg id="a8793210-16d1-46e6-b9e2-1e760930772c" data-name="Слой 1" xmlns="http://www.w3.org/2000/svg" viewBox="0 0 235.67 49.67"><title>wavy-line</title><path d="M236,26.64a9.47,9.47,0,0,1-5.46-1.59,8.91,8.91,0,0,0-9.62,0,10.15,10.15,0,0,1-10.91,0,8.91,8.91,0,0,0-9.62,0,10.15,10.15,0,0,1-10.91,0,8.91,8.91,0,0,0-9.62,0,10.14,10.14,0,0,1-10.9,0,8.91,8.91,0,0,0-9.62,0,10.14,10.14,0,0,1-10.9,0,8.91,8.91,0,0,0-9.62,0,10.15,10.15,0,0,1-10.91,0,8.89,8.89,0,0,0-9.61,0,10.15,10.15,0,0,1-10.91,0,8.89,8.89,0,0,0-9.61,0,10.15,10.15,0,0,1-10.91,0,8.89,8.89,0,0,0-9.61,0,10.15,10.15,0,0,1-10.91,0,8.89,8.89,0,0,0-9.61,0,10.14,10.14,0,0,1-10.9,0,8.89,8.89,0,0,0-9.61,0,9.43,9.43,0,0,1-5.45,1.59,9.41,9.41,0,0,1-5.45-1.59,8.23,8.23,0,0,0-4.81-1.41,8.23,8.23,0,0,0-4.81,1.41,9.41,9.41,0,0,1-5.45,1.59,9.41,9.41,0,0,1-5.45-1.59A8.23,8.23,0,0,0,0,23.64V22.36A9.41,9.41,0,0,1,5.45,24a8.23,8.23,0,0,0,4.81,1.41A8.23,8.23,0,0,0,15.07,24a9.41,9.41,0,0,1,5.45-1.59A9.41,9.41,0,0,1,26,24a8.23,8.23,0,0,0,4.81,1.41A8.19,8.19,0,0,0,35.58,24,9.46,9.46,0,0,1,41,22.36,9.41,9.41,0,0,1,46.48,24a8.91,8.91,0,0,0,9.62,0A10.14,10.14,0,0,1,67,24a8.89,8.89,0,0,0,9.61,0,10.15,10.15,0,0,1,10.91,0,8.89,8.89,0,0,0,9.61,0A10.15,10.15,0,0,1,108,24a8.89,8.89,0,0,0,9.61,0,10.15,10.15,0,0,1,10.91,0,8.91,8.91,0,0,0,9.62,0,10.14,10.14,0,0,1,10.9,0,8.91,8.91,0,0,0,9.62,0,10.14,10.14,0,0,1,10.9,0,8.91,8.91,0,0,0,9.62,0,10.14,10.14,0,0,1,10.9,0,8.91,8.91,0,0,0,9.62,0,10.15,10.15,0,0,1,10.91,0,8.91,8.91,0,0,0,9.62,0,10.17,10.17,0,0,1,10.92,0A8.23,8.23,0,0,0,236,25.36Z"/></svg>