<svg id="f29787cd-b854-497b-8b6c-ebd47caf445b" data-name="Слой 1" xmlns="http://www.w3.org/2000/svg" viewBox="0 0 235.67 49.67"><title>wavy-line</title><path d="M226.16,29c-2.93,0-4.4-1.78-5.69-3.36-1.16-1.42-2.16-2.64-4.15-2.64s-3,1.22-4.15,2.64c-1.3,1.58-2.76,3.36-5.69,3.36s-4.39-1.78-5.69-3.36c-1.16-1.42-2.16-2.64-4.15-2.64s-3,1.22-4.15,2.64c-1.29,1.58-2.75,3.36-5.68,3.36s-4.39-1.78-5.69-3.36C180,24.21,179,23,177,23s-3,1.22-4.14,2.64c-1.3,1.58-2.76,3.36-5.69,3.36s-4.39-1.78-5.68-3.36C160.3,24.21,159.3,23,157.31,23s-3,1.22-4.15,2.64c-1.29,1.58-2.76,3.36-5.69,3.36s-4.39-1.78-5.68-3.36c-1.16-1.42-2.16-2.64-4.15-2.64s-3,1.22-4.15,2.64C132.2,27.21,130.73,29,127.8,29s-4.39-1.78-5.68-3.36C121,24.21,120,23,118,23s-3,1.22-4.15,2.64c-1.29,1.58-2.75,3.36-5.68,3.36s-4.39-1.78-5.69-3.36C101.29,24.21,100.29,23,98.3,23s-3,1.22-4.15,2.64C92.86,27.21,91.4,29,88.47,29s-4.39-1.78-5.68-3.36C81.63,24.21,80.63,23,78.64,23s-3,1.22-4.15,2.64C73.2,27.21,71.74,29,68.81,29s-4.39-1.78-5.68-3.36C62,24.21,61,23,59,23s-3,1.22-4.15,2.64C53.54,27.21,52.08,29,49.15,29s-4.39-1.78-5.68-3.36C42.31,24.21,41.31,23,39.32,23s-3,1.22-4.15,2.64C33.88,27.21,32.42,29,29.49,29s-4.39-1.78-5.68-3.36C22.65,24.21,21.65,23,19.66,23s-3,1.22-4.14,2.64C14.22,27.21,12.76,29,9.83,29s-4.39-1.78-5.68-3.36C3,24.21,2,23,0,23V21c2.93,0,4.39,1.78,5.68,3.36C6.84,25.79,7.84,27,9.83,27s3-1.22,4.15-2.64C15.27,22.79,16.74,21,19.66,21s4.39,1.78,5.68,3.36C26.5,25.79,27.5,27,29.49,27s3-1.22,4.15-2.64C34.93,22.79,36.39,21,39.32,21s4.39,1.78,5.68,3.36C46.16,25.79,47.16,27,49.15,27s3-1.22,4.15-2.64C54.59,22.79,56.05,21,59,21s4.39,1.78,5.68,3.36C65.82,25.79,66.82,27,68.81,27s3-1.22,4.15-2.64C74.25,22.79,75.71,21,78.64,21s4.39,1.78,5.68,3.36C85.48,25.79,86.48,27,88.47,27s3-1.22,4.15-2.64C93.91,22.79,95.38,21,98.3,21s4.4,1.78,5.69,3.36c1.16,1.42,2.16,2.64,4.15,2.64s3-1.22,4.15-2.64C113.58,22.79,115,21,118,21s4.39,1.78,5.68,3.36c1.16,1.42,2.16,2.64,4.15,2.64s3-1.22,4.15-2.64c1.3-1.58,2.76-3.36,5.69-3.36s4.39,1.78,5.68,3.36c1.16,1.42,2.16,2.64,4.15,2.64s3-1.22,4.15-2.64c1.29-1.58,2.76-3.36,5.69-3.36s4.39,1.78,5.68,3.36c1.16,1.42,2.16,2.64,4.15,2.64s3-1.22,4.15-2.64C172.58,22.79,174.05,21,177,21s4.4,1.78,5.69,3.36c1.16,1.42,2.16,2.64,4.15,2.64s3-1.22,4.15-2.64c1.29-1.58,2.75-3.36,5.68-3.36s4.4,1.78,5.69,3.36c1.16,1.42,2.16,2.64,4.15,2.64s3-1.22,4.15-2.64c1.29-1.58,2.76-3.36,5.69-3.36s4.39,1.78,5.68,3.36c1.16,1.42,2.17,2.64,4.16,2.64s3-1.22,4.15-2.64C231.6,22.79,233.07,21,236,21v2c-2,0-3,1.22-4.15,2.64C230.55,27.21,229.09,29,226.16,29Z"/></svg>