<svg width="3vw"  id="Слой_1" data-name="Слой 1" xmlns="http://www.w3.org/2000/svg" xmlns:xlink="http://www.w3.org/1999/xlink" viewBox="0 0 262 180"><defs><style>.youtube-cls-1{fill:#fff;}.youtube-cls-2{fill:#420000;opacity:0.12;isolation:isolate;}.youtube-cls-3{fill:url(#Безымянный_градиент_9);}</style><linearGradient id="Безымянный_градиент_9" x1="699.78" y1="1083.67" x2="699.78" y2="1082.67" gradientTransform="matrix(256, 0, 0, -180, -179010, 195061)" gradientUnits="userSpaceOnUse"><stop offset="0" stop-color="#e40521"/><stop offset="1" stop-color="#bf041c"/></linearGradient></defs><title>Иконки. Кнопки. Лого</title><path class="youtube-cls-1" d="M107.29,122.94l69.2-35.8L107.29,51v71.9Z"/><path class="youtube-cls-2" d="M107.29,51,168,91.54l8.5-4.4L107.29,51Z"/><path class="youtube-cls-3" d="M259,38.54s-2.5-17.6-10.2-25.4c-9.7-10.2-20.59-10.2-25.69-10.8-35.69-2.6-89.37-2.6-89.37-2.6h-.1S80-.26,44.08,2.34c-5,.6-15.89.6-25.69,10.8-7.6,7.8-10.1,25.4-10.1,25.4A383.77,383.77,0,0,0,5.69,80v19.4a380.72,380.72,0,0,0,2.6,41.4s2.5,17.6,10.2,25.4c9.7,10.2,22.49,9.9,28.19,10.9,20.49,2,87,2.6,87,2.6s53.78-.1,89.57-2.7c5-.6,15.89-.6,25.69-10.8,7.7-7.8,10.2-25.4,10.2-25.4a382.17,382.17,0,0,0,2.59-41.4V80A400.93,400.93,0,0,0,259,38.54Zm-151.75,84.4V51l69.18,36.1-69.18,35.8Z"/></svg>