<svg id="a3771d5a-6583-4603-8064-605d258c3345" data-name="Capa 1" xmlns="http://www.w3.org/2000/svg" viewBox="0 0 548.29 548.29"><path d="M486.2,196.12H473V132.6a9.73,9.73,0,0,0-.11-1.2,10.57,10.57,0,0,0-2.55-7L364.66,3.68a.36.36,0,0,1-.09-.08,10.44,10.44,0,0,0-2.14-1.79,7.2,7.2,0,0,0-.7-.42A10.94,10.94,0,0,0,359.61.5c-.2-.06-.38-.14-.58-.19A10.71,10.71,0,0,0,356.56,0H96.76a21.52,21.52,0,0,0-21.5,21.5V196.12H62.09a30.73,30.73,0,0,0-30.73,30.73V386.66a30.73,30.73,0,0,0,30.73,30.73H75.26v109.4a21.52,21.52,0,0,0,21.5,21.5H451.53a21.52,21.52,0,0,0,21.5-21.5V417.39H486.2a30.73,30.73,0,0,0,30.73-30.73V226.85A30.73,30.73,0,0,0,486.2,196.12ZM96.76,21.51H345.81v110a10.75,10.75,0,0,0,10.75,10.75h95v53.86H96.76ZM323.31,223.64V384.18H286.86V223.64Zm-177,30v-30H262.78v21L188,353.22v.95h76v30H139.16V364.65l76.47-110v-1ZM451.53,521H96.76V417.39H451.53V521Zm3.75-210.38c-12.39,11.67-30.73,16.9-52.17,16.9a91,91,0,0,1-12.39-.71v57.4h-36V225.78c11.19-1.91,26.91-3.33,49.06-3.33,22.4,0,38.35,4.28,49.08,12.86C463.13,243.4,470,256.74,470,272.47S464.8,301.53,455.28,310.59Z"/><path d="M405.74,249.84c-7.4,0-12.41.71-15,1.43v47.4a55.73,55.73,0,0,0,12.16,1c19.28,0,31.2-9.78,31.2-26.2C434.08,258.65,423.84,249.84,405.74,249.84Z"/></svg>