<svg id="a9ad4eb1-98da-4956-b97f-70f5fe4c8c71" data-name="Слой 1" xmlns="http://www.w3.org/2000/svg" viewBox="0 0 19 19"><title>56-57</title><polygon points="13.52 5.53 8.41 10.62 5.99 8.24 4.61 9.66 8.41 13.43 14.92 6.95 13.52 5.53"/><path d="M18.52,6.5a9.54,9.54,0,0,0-3.41-4.67A9.51,9.51,0,0,0,12.5.48a9.61,9.61,0,0,0-6,0,9.54,9.54,0,0,0-6,6,9.62,9.62,0,0,0,0,6,9.54,9.54,0,0,0,3.41,4.67A9.51,9.51,0,0,0,6.5,18.52a9.61,9.61,0,0,0,6,0,9.54,9.54,0,0,0,4.67-3.41,9.65,9.65,0,0,0,1.35-2.61,9.61,9.61,0,0,0,0-6Zm-9,10.65a7.71,7.71,0,0,1-2.42-.38A7.72,7.72,0,0,1,3.32,14a7.55,7.55,0,0,1-1.09-2.11,7.67,7.67,0,0,1,0-4.83A7.36,7.36,0,0,1,3.32,5,7.69,7.69,0,0,1,5,3.32a7.36,7.36,0,0,1,2.1-1.09A7.67,7.67,0,0,1,15.68,5a7.62,7.62,0,0,1,1.09,2.1A7.65,7.65,0,0,1,15.68,14,7.47,7.47,0,0,1,14,15.68a7.9,7.9,0,0,1-2.1,1.09A7.71,7.71,0,0,1,9.5,17.15Z"/></svg>