<svg id="b9b9ff91-cdc6-45ff-bfee-fa6cda240470" data-name="Capa 1" xmlns="http://www.w3.org/2000/svg" viewBox="0 0 511.27 511.27"><title>globe</title><circle cx="255.62" cy="255.63" r="255.62" style="fill:#3692ee"/><path d="M131.39,470.13c0,.1-.11.16-.16.26.39.09.75.22,1.14.3Z" style="fill:#92c1f2"/><path d="M115.31,109.86l-.51-1c4.27-.64,4.56-3.65,7.81-4.75,3.69-1.22,2.43.11,6.06,0,3-.13,4.74,2,8.1.44a11.75,11.75,0,0,1-3.47,3.41c-2.77,2-5.6,4-8.9,4.75S117.23,112.62,115.31,109.86Z" style="fill:#92c1f2"/><path d="M166.45,337.7c-.07,2.25-1.39,4.22-2.55,6.12A62.29,62.29,0,0,0,155,371.76c-.69,9.42-.27,21-8.48,25.68-4.69,2.61-11.28,2.14-14.4,6.54a14.43,14.43,0,0,0-1.9,4.58l-6.07,22c-2.61-.22-5.26-.51-7.85-.8,3.07,1,5.2,5.14,3.36,8-3-1.55-6.82.29-8.45,3.24s-1.33,6.53-.47,9.78a28.58,28.58,0,0,0,20.55,19.65c-1.68,3.18-6.82,1.79-10-.34A119.11,119.11,0,0,1,74.3,406c-2.72-9.14-4.46-18.85-9.79-26.71-4.45-6.64-11.17-11.5-15.61-18.14-6.24-9.54-7.41-21.91-14.64-30.63-4-5-10.31-11.08-6.72-16.41,1.44-2.19,4.51-4.27,3.29-6.59-.4-.76-1.21-1.22-1.85-1.86-2.44-2.61-.76-6.7.46-10.06,2-5.84,2-12.08,1.15-18.32A52.74,52.74,0,0,1,16.7,257.52c-1.79-4.62-4.17-10.4-9.13-10.46C6.29,243.47,5,239.89,3.68,236.3a3.71,3.71,0,0,1-3.12,2.26A254.15,254.15,0,0,1,64.77,85.65a27.15,27.15,0,0,0,2.43-1.28c8.72-5.09,15.66-12.72,24.1-18.27,1.72-1.16,3.69-2.26,5.84-2s4,2.3,3.29,4.27a4.49,4.49,0,0,1-1.68,2A178.35,178.35,0,0,1,66.56,92.13c-1.38.69-2.83,1.5-3.46,2.9-1.16,2.36.8,5.31,3.3,6.17s5.26.35,7.81-.22a12.57,12.57,0,0,0-1.68,10.75c2.37.22,3.12-3,3.82-5.26,2.88-9,17.17-12.61,16.24-22,3.87,2,7.81-2.5,10.18-6.19s7.63-7.46,10.53-4.16c.16,1.83.38,3.69.56,5.55l15.32-3.89a7.38,7.38,0,0,0,6.93,12.89c-.05,2.73-2.48,4.81-4.69,6.42-5.6,4.22-11.61,8.56-18.14,10.64l1.5,3.12a1.28,1.28,0,0,1-.51.13c-4.16.4-8.56-2.59-13-2-2.72.35-6.06.35-7.63,3.12-.22.36-1.2,5.2-.51,4.8,2.43-1.39,4.85-2.78,7.23-4.16a11.82,11.82,0,0,1,.51,6.31,14.13,14.13,0,0,1,8.63,1.9,17.12,17.12,0,0,1-16.59,10c-.07-2.08-.18-4.16-.24-6.24-5.67-.46-10.29,4.4-13.12,9.27s-5.08,10.52-9.83,13.64c-2.88,2-6.41,2.72-9.53,4.34s-5.89,4.86-5.25,8.27c.29,1.62,1.33,3.12,1.28,4.8-.18,3.12-3.81,4.58-6.24,6.59-4.16,3.48-5.2,9.84-9.65,12.9-3.23,2.26-7.52,2.21-11.28,3.36s-7.52,4.91-6,8.56a3.35,3.35,0,0,1-4.29-2.72A126.84,126.84,0,0,0,5.94,233.52c3.29,2.3,6.64-3,7.28-6.94s4.16-9.2,7.39-6.84c-.75,5.73-1.51,11.4-2.24,17.12a5,5,0,0,0,.24,3.24c.64,1.21,2,1.72,3.07,2.59,2.94,2.54,2.54,7.05,2.72,10.93A27.85,27.85,0,0,0,28.62,267c-.24-.81-.4-1.61-.57-2.43a16.16,16.16,0,0,0,12.61-3.89c1.79-1.61,3.29-3.69,5.55-4.51s4.86-.24,7.23.4c7.34,2,15.15,4.27,20.06,10.05,2.48,2.94,4,6.66,7,9.07,6.71,5.67,18,3.17,24.18,9.47,4.91,5.09,4,13.3,2.67,20.29-3.36-1.84-7.86,2.79-5.89,6.08,1.79-2,3.87-4.05,6.48-4.05s5,3.59,3,5.27c4.62-5.91,16-3.47,17.74,3.87,6.48.46,13,.91,19.49,1.44C146.94,327.58,166.85,328.14,166.45,337.7Z" style="fill:#92c1f2"/><path d="M127,70.19a5,5,0,1,1-3.31-9.28c1.71-.4,4.09-.2,4.62-1.88a5.38,5.38,0,0,0,.07-1.6c-.07-3.17,2.76-5.8,5.82-6.6s6.29-.17,9.39.44a11.58,11.58,0,0,1,.9,7.42l-6.39.27c.2,3.54-.16,8-3.44,9.3-2.94,1.17-6.78-1-9.23,1" style="fill:#92c1f2"/><path d="M160.18,34.88c5.8-2.78,10.72-7.17,16.44-10.11,9.86-5.06,21.36-5.5,32.44-5.86l75.6-2.35q-8.76,4.8-17.54,9.62c-4.77,2.62-10.19,5.31-15.42,3.82a8.18,8.18,0,0,0,7.93,8.08c-10.35,6.4-24.72-.14-35.65,5.23-4.57,2.26-8.27,6.51-13.31,7.31-2.91.47-5.93-.32-8.83.32C197,52,193.94,56.59,190.35,60c-4.13,3.95-10.19,6.65-15.58,4.76s-8.21-9.9-3.89-13.64c2.13-1.84,5.17-2.15,7.68-3.44s4.5-4.72,2.61-6.82c-.82-.91-2.16-1.26-2.91-2.24s-.74-2.56-1.41-3.71c-2.56-4.5-9.68,1.55-14.53-.26" style="fill:#92c1f2"/><path d="M236.7,56.14c3.41-.78,6.37-2.79,9.56-4.27s7-2.33,10.09-.78c.93,2.32-1.74,4.43-4.09,5.26a28.52,28.52,0,0,1-14.13,1.23" style="fill:#92c1f2"/><path d="M442.74,81.57a8.2,8.2,0,0,1-2.9-.18c-4.34-.93-7.63-4.27-11.34-6.7A30.15,30.15,0,0,0,399,72.91a17.64,17.64,0,0,0,3.05-11l-1.32.46c-15.16-8.78-32.92-17.9-49.44-12-3.83,1.4-7.28,3.48-11.16,4.8-4.11,1.44-8.67,2-12.19,4.58s-5.49,8.16-2.41,11.22c2.6,2.6,6.76,1.9,10.41,2.25s7.7,3.92,5.73,7q-23.76,11.11-47.57,22.36a16.24,16.24,0,0,1,10.53,18.14c-5.33.93-10.46-2.3-15.84-2.66-7.81-.4-15.26,6.48-15.42,14.29s6.94,15,14.75,14.91c5.84-.06,11.57-3.58,17.23-2.09.22-5.33,3.87-9.84,7.62-13.65,7.28-7.3,17.68-13.89,27.4-10.3,3.19,1.15,5.91,3.29,8.56,5.42,5.84,4.62,11.68,9.3,17.54,14,1.86-1.9,3.7-3.82,5.55-5.66l9.6,10.11c1.62-1.1,3.3-2.14,4.91-3.25,1.16,3,2.37,6,3.54,9,.46-3.29.86-6.52,1.26-9.77,3.83.11,7.88.22,11.33-1.51s6-5.84,4.56-9.42c-.75-1.9-2.54-3.41-2.89-5.44-.76-4,5-6.82,8.78-5s5.55,6,7.12,9.89c.86-3.93,1.66-7.81,2.54-11.74A93.1,93.1,0,0,0,438.1,144a62.91,62.91,0,0,0-35.44,3.6,18.61,18.61,0,0,0,15.68,7.68c2.72-.07,5.72-.69,7.8,1,1.57,1.32,2,3.47,2.26,5.44.93,5.55,1.86,11,2.72,16.52-6.26-5.13-15.26-4.56-23.42-4.72s-17.7-2.48-20.71-10a16.33,16.33,0,0,0-3.74,13.71c-8.45-2-18.16-5.25-20.59-13.59-6.6,2.44-14.8-1.77-16.6-8.54-.64-2.37-.81-5.26-2.89-6.53a7.05,7.05,0,0,0-4.4-.46c-12.55,1.45-25,2.85-37.52,4.3-6.82.82-13.87,1.63-19.89,5s-10.8,9.77-10.11,16.61a77.91,77.91,0,0,0-27.86,28.35c-2.08,3.58-3.87,7.69-3,11.74.57,3.12,2.65,5.78,3.29,8.85,1.11,5.27-1.9,10.35-3.17,15.55-3.58,14.8,7.65,28.74,18.07,39.94,4.91,5.2,10.59,10.86,17.76,11.15,4.45.18,8.67-1.79,12.83-3.42a93,93,0,0,1,37.63-6.32c-2.89,2.25.11,7.16,3.71,7.92s7.46-.42,10.93.8c7.92,2.83,6.83,14.44,3.25,22,1.79-.35,3.65-.71,5.49-1-1,2.54-2,5.09-2.95,7.57,10.87,1.37,15,15.66,12.45,26.35s-8.83,20.53-9,31.52c0,6,1.8,11.85,3.65,17.57q7,21.76,13.91,43.58c13,1.55,20.4-14.93,32.43-20.08,4.51-2,9.82-2.37,13.36-5.73s2.3-10.81-2.08-10.81a13,13,0,0,0,11.21-12.1c.07-1.68-.17-3.36,0-5,.4-2.37,1.91-4.45,3.35-6.48,9.18-13.19,15.13-28.29,21.08-43.2,1.56-4,3.12-7.92,4.68-11.92,5.88-14.87,11.72-29.67,17.61-44.53,2.31-5.84,4.63-11.62,6.93-17.47-3.18,5.26-11.5,4.57-16.26.64s-7.29-9.89-11.05-14.8c-3.19-4.23-7.47-8-9-13.12-.86-2.95-.7-6.13-1.21-9.2-1.17-6.66-5.56-12.2-8.56-18.21s-4.58-13.81-.36-19.09a732.91,732.91,0,0,1,33.22,65.44,14.17,14.17,0,0,1,6.88-8.16c2.37-1.28,5-1.79,7.52-2.83a18.53,18.53,0,0,0-.13-34.05c-3.29-1.39-7.05-1.84-10.17-3.76s-5.38-6.06-3.41-9.14c1.84-2.89,6.3-2.83,9.36-1.21s5.33,4.51,8.21,6.41c2.08,1.4,4.51,2.31,6.76,3.59,12.21,7,15.22,22.89,17.78,36.77,1.39,7.45,3,14.86,4.82,22.14.06-1.57,0-3.18,0-4.74A254.68,254.68,0,0,0,442.74,81.57Zm23.4,84c-1.68-.11-3.23-1.22-4.57-2.26-2.19-1.72-4.4-3.76-5-6.48-.75-3.23.8-6.94-.93-9.82a13.18,13.18,0,0,0-3.47-3.23,18.12,18.12,0,0,1-6.37-10.11c-.75-3.48.34-8.1,3.87-8.68a4.12,4.12,0,0,1,4.27,2.2l-2.36,1.28c4,.46,5.84,6.48,2.78,9.07-.4.4-.93.75-.93,1.33a1.25,1.25,0,0,0,.53.92c2.48,2.72,6.19,3.7,9.42,5.43s6.42,4.8,5.91,8.38l-3.06,1.15c-1.1,1.11-.22,3.08.93,4.16s2.66,2.2,2.72,3.81S467.87,165.68,466.14,165.57Z" style="fill:#92c1f2"/><path d="M467.81,343.46l-4.18,3a11.3,11.3,0,0,1-6.4,13.12c-2.61,1-6.08,1.52-7,4.19-.73,2.27,1,4.57,1.27,6.94.38,3.94-3.3,6.88-6,9.81s-4.06,8.43-.52,10.19a7.11,7.11,0,0,0,2.67.58c3.84.33,8,.45,11.18-1.79,9-6.42.45-23.83,9.33-30.42,1.26-.93,2.85-1.6,3.54-3C473.87,351.89,466.14,347.78,467.81,343.46Z" style="fill:#92c1f2"/></svg>