<svg id="a55718fb-57e9-4d34-90ea-9b171fea7d82" data-name="Слой 1" xmlns="http://www.w3.org/2000/svg" viewBox="0 0 235.67 235.67"><path d="M216.71,206.32H194V111H148.64v95.29h-9.08V151.87H94.19v54.45H85.11V174.56H39.73v31.76H12.51v9.08H225.78v-9.08ZM76,206.32H48.81V183.63H76Zm54.46,0H103.26V160.94h27.23Zm54.45,0H157.71V120.1h27.23Z"/><path d="M72.56,110.63l28.12,28.12,77.38-76.59L194,77V20.27H135.66L150.33,35.2,103.25,82.36,75.12,54.28,9.89,119.53l26.77,27Zm2.56-43.52L103.25,95.2,163.1,35.25l-5.8-5.9h27.64V56.17l-7.07-6.59L100.71,126,72.56,97.79,36.69,133.66l-14-14.11Z"/></svg>