<svg id="f66f537f-dcd7-4d95-871b-badbb6199a4f" data-name="Слой 1" xmlns="http://www.w3.org/2000/svg" xmlns:xlink="http://www.w3.org/1999/xlink" viewBox="0 0 235.67 65.67"><defs><mask id="ac414dd3-a1c0-4110-a58c-c034a4aacdb0" x="131.71" y="29.08" width="29.53" height="31.9" maskUnits="userSpaceOnUse"><g id="b47eba21-25b5-4d3e-819e-05f3d5dcfb3c" data-name="c"><path id="ab0091e8-39c3-4493-8433-5ab3588fbf33" data-name="b" d="M131.71,29.08h29.53V61H131.71Z" style="fill:#fff;fill-rule:evenodd"/></g></mask><mask id="b28bd5dc-eee9-4caf-833c-294147db315c" x="1.83" y="4.69" width="47.7" height="56.29" maskUnits="userSpaceOnUse"><g id="b498d384-e1a4-4de4-b28c-7edfd1735fde" data-name="e"><path id="bfb2f5d8-886f-4f5f-b1bc-b9c007b4701c" data-name="d" d="M1.83,4.69H49.54V61H1.83Z" style="fill:#fff;fill-rule:evenodd"/></g></mask><mask id="aeb9d553-cb37-4fd3-b494-9189de61c4ab" x="1.83" y="4.69" width="43.24" height="50.04" maskUnits="userSpaceOnUse"><g id="ff98c098-3c34-45d9-b702-dd0a35ad73cf" data-name="g"><path id="a935e40b-5ed8-4dfb-bae8-c3e85ebe82a2" data-name="f" d="M1.83,4.69H45.08v50H1.83Z" style="fill:#fff;fill-rule:evenodd"/></g></mask></defs><title>graph-design-slider-left_ (2)</title><path d="M182,29.22c-.7,4.58-4.19,4.58-7.58,4.58h-1.92l1.35-8.55a1.08,1.08,0,0,1,1.05-.9h.88c2.31,0,4.48,0,5.6,1.32a4.22,4.22,0,0,1,.62,3.55M180.5,17.28H167.74A1.77,1.77,0,0,0,166,18.77l-5.16,32.71a1.07,1.07,0,0,0,.89,1.22h6.71a1.23,1.23,0,0,0,1.22-1l1.47-9.28a1.78,1.78,0,0,1,1.75-1.5h4c8.41,0,13.26-4.06,14.52-12.12.57-3.53,0-6.3-1.62-8.23-1.82-2.14-5-3.26-9.3-3.26M91,29.22c-.7,4.58-4.2,4.58-7.58,4.58H81.48l1.35-8.55a1.09,1.09,0,0,1,1-.9h.89c2.3,0,4.48,0,5.6,1.32A4.25,4.25,0,0,1,91,29.22M89.51,17.28H76.76A1.76,1.76,0,0,0,75,18.77L69.85,51.48a1.06,1.06,0,0,0,.88,1.22H77a1.77,1.77,0,0,0,1.75-1.49l1.39-8.83a1.78,1.78,0,0,1,1.75-1.5h4c8.4,0,13.25-4.06,14.52-12.12.57-3.53,0-6.3-1.63-8.23-1.81-2.14-5-3.26-9.3-3.26M119.13,41a6.81,6.81,0,0,1-6.9,5.83,4.72,4.72,0,0,1-5-5.94A6.83,6.83,0,0,1,114,35a5.13,5.13,0,0,1,4.07,1.67,5.23,5.23,0,0,1,1,4.32m8.51-11.89h-6.11a1.07,1.07,0,0,0-1,.89l-.26,1.71-.43-.62c-1.32-1.92-4.27-2.56-7.22-2.56-6.75,0-12.51,5.12-13.63,12.29a11.49,11.49,0,0,0,2.27,9.38c1.87,2.2,4.53,3.11,7.7,3.11a11.69,11.69,0,0,0,8.45-3.5l-.27,1.7A1.06,1.06,0,0,0,118,52.7h5.67a1.77,1.77,0,0,0,1.75-1.49l3.3-20.91a1.06,1.06,0,0,0-.88-1.22h-.17M210.11,41a6.81,6.81,0,0,1-6.89,5.83,4.74,4.74,0,0,1-5.06-5.94A6.84,6.84,0,0,1,205,35a5.15,5.15,0,0,1,4.07,1.67,5.27,5.27,0,0,1,1,4.32m8.52-11.89h-6.11a1.06,1.06,0,0,0-1.05.89l-.27,1.71-.43-.62c-1.32-1.92-4.27-2.56-7.21-2.56-6.75,0-12.52,5.12-13.64,12.29a11.53,11.53,0,0,0,2.28,9.38c1.86,2.2,4.52,3.11,7.69,3.11a11.7,11.7,0,0,0,8.46-3.5l-.28,1.7A1.07,1.07,0,0,0,209,52.7h5.67a1.77,1.77,0,0,0,1.75-1.49l3.3-20.91a1.07,1.07,0,0,0-.89-1.22h-.16" style="fill:#fff;fill-rule:evenodd"/><g style="mask:url(#ac414dd3-a1c0-4110-a58c-c034a4aacdb0)"><path d="M160.18,29.08H154a1.78,1.78,0,0,0-1.47.77L144.1,42.33l-3.59-12a1.76,1.76,0,0,0-1.7-1.26h-6a1.06,1.06,0,0,0-1.07,1.06,1,1,0,0,0,.06.34l6.76,19.85-6.36,9A1.07,1.07,0,0,0,133,61h6.13a1.78,1.78,0,0,0,1.46-.76l20.42-29.47a1.06,1.06,0,0,0-.87-1.67" style="fill:#fff;fill-rule:evenodd"/></g><path d="M225.83,18.18l-5.24,33.3a1.07,1.07,0,0,0,.89,1.22h5.43a1.77,1.77,0,0,0,1.75-1.49l5.16-32.71a1.06,1.06,0,0,0-.88-1.22h-6.06a1.06,1.06,0,0,0-1,.9" style="fill:#fff;fill-rule:evenodd"/><g style="mask:url(#b28bd5dc-eee9-4caf-833c-294147db315c)"><path d="M44.82,19c.69-4.38,0-7.36-2.37-10.06C39.84,6,35.13,4.69,29.1,4.69H11.61A2.5,2.5,0,0,0,9.14,6.8L1.85,53A1.49,1.49,0,0,0,3.1,54.71a1,1,0,0,0,.24,0h10.8l-.75,4.73A1.31,1.31,0,0,0,14.48,61l.21,0h9.1A2.2,2.2,0,0,0,26,59.13l.09-.46,1.71-10.88.11-.6A2.2,2.2,0,0,1,30,45.34h1.36c8.82,0,15.73-3.58,17.75-13.94.84-4.33.4-7.95-1.82-10.49A8.76,8.76,0,0,0,44.82,19" style="fill:#fff;fill-rule:evenodd;opacity:0.6779999732971191;isolation:isolate"/></g><g style="mask:url(#aeb9d553-cb37-4fd3-b494-9189de61c4ab)"><path d="M44.82,19c.69-4.38,0-7.36-2.37-10.06C39.84,6,35.13,4.69,29.1,4.69H11.61A2.5,2.5,0,0,0,9.14,6.8L1.85,53A1.49,1.49,0,0,0,3.1,54.71a1,1,0,0,0,.24,0h10.8l2.71-17.2-.08.54A2.48,2.48,0,0,1,19.23,36h5.13c10.08,0,18-4.1,20.28-15.94.07-.36.13-.69.18-1" style="fill:#fff;fill-rule:evenodd;opacity:0.6959999799728394;isolation:isolate"/></g><g style="mask:url(#aeb9d553-cb37-4fd3-b494-9189de61c4ab)"><path d="M19.76,19.05a2.19,2.19,0,0,1,2.17-1.85H35.64a29,29,0,0,1,4.53.33c.39.06.78.14,1.15.22.54.12,1.08.27,1.61.44a12,12,0,0,1,1.89.8c.69-4.38,0-7.36-2.37-10.06-2.61-3-7.32-4.24-13.34-4.24H11.61A2.5,2.5,0,0,0,9.14,6.8L1.85,53A1.49,1.49,0,0,0,3.1,54.71a1,1,0,0,0,.24,0h10.8l2.71-17.2,2.91-18.48Z" style="fill:#fff;fill-rule:evenodd"/></g></svg>