<svg  xmlns="http://www.w3.org/2000/svg" viewBox="0 0 844 143"><path d="M754.14,133c0-.67-.07-1-.12-1.67,2.39-25.84,11.76-50.06,22-73.68C529.76,180.15,239.9,167.49,5.19,24.22,1.34,21.83.41,19.06,2.38,16q2.54-4,8.76-4.7a17.33,17.33,0,0,1,11.42,2.42C250.85,149.23,530,159.74,767.78,41.51c-11.89-3-23.15-6.33-33.85-11.26-9.77-4.51-19.7-10.2-28.11-17.72a13.19,13.19,0,0,1-4.06-4.67c-.83-1.92-.12-3.36,2.13-4.36a21.32,21.32,0,0,1,6.59-1.64,18.15,18.15,0,0,1,6.57.46c18.89,5.26,38,9.94,57.51,11.89,18.08,1.81,35.67.47,53.58-2.27a19.21,19.21,0,0,1,5.17-.46A3.42,3.42,0,0,1,836.09,13a3.27,3.27,0,0,1,.6,2.88,25.42,25.42,0,0,1-3.59,5,476.86,476.86,0,0,0-30.44,46.5c-10.37,18.45-20.34,37.25-30.53,55.85a21.73,21.73,0,0,1-5,5.72,28.29,28.29,0,0,1-6.85,4.34C756.92,134.78,754.87,134.66,754.14,133Z"/></svg>