<svg id="aec7eec8-f06f-4c24-83c1-a12f50427752" data-name="Слой 1" xmlns="http://www.w3.org/2000/svg" viewBox="0 0 231 124"><path d="M222.61,97.34a2.17,2.17,0,0,1-1.61,2.6,42.36,42.36,0,0,1-9.55,1.1c-19,0-33.38-11.38-37.26-28.79h-4.71a2.16,2.16,0,0,1-2.16-2.16V68.65a2.16,2.16,0,0,1,2.16-2.16h3.82A66.6,66.6,0,0,1,173.42,55h-3.94a2.16,2.16,0,0,1-2.16-2.16V51.38a2.16,2.16,0,0,1,2.16-2.16h4.93c4.33-16.52,18.74-28.79,37-28.79a42.48,42.48,0,0,1,8.21.82,2.16,2.16,0,0,1,1.67,2.65l-.71,2.78a2.15,2.15,0,0,1-2.53,1.58,34,34,0,0,0-6.75-.73c-14.31,0-25,9-28.72,21.69h31.2a2.16,2.16,0,0,1,2.12,2.57l-.27,1.44A2.17,2.17,0,0,1,213.55,55H181.4a57.42,57.42,0,0,0-.11,11.51h29.43a2.16,2.16,0,0,1,2.12,2.57l-.28,1.44a2.16,2.16,0,0,1-2.12,1.75H182.51c3.44,13.31,14.41,21.69,28.94,21.69a33.86,33.86,0,0,0,7.88-1,2.17,2.17,0,0,1,2.62,1.6Z"/><path d="M47.68,60.33,26.42,53.66c-4.09-1.28-7-5.55-7-10.38,0-5.93,4.25-10.76,9.46-10.76H42.21a14.93,14.93,0,0,1,10.27,4.19,2.31,2.31,0,0,0,1.58.63,2.18,2.18,0,0,0,1.48-.57l2.14-1.94a2.31,2.31,0,0,0,.75-1.63,2.23,2.23,0,0,0-.66-1.63,22.35,22.35,0,0,0-15.54-6.43h-2.6V15.88a2.25,2.25,0,0,0-2.24-2.24H34.51a2.24,2.24,0,0,0-2.24,2.24v9.28H28.93c-9.27,0-16.81,8.13-16.81,18.12,0,8,5,15.16,12.09,17.4l21.27,6.67c4.09,1.28,6.94,5.55,6.94,10.38,0,5.93-4.24,10.76-9.46,10.76H29.69A14.91,14.91,0,0,1,19.42,84.3a2.32,2.32,0,0,0-1.59-.63,2.21,2.21,0,0,0-1.48.57l-2.12,1.94a2.24,2.24,0,0,0-.73,1.65,2.12,2.12,0,0,0,.66,1.59A22.35,22.35,0,0,0,29.7,95.85h2.57v9.28a2.24,2.24,0,0,0,2.24,2.24h2.88a2.25,2.25,0,0,0,2.24-2.24V95.85H43c9.28,0,16.82-8.13,16.82-18.12C59.78,69.74,54.81,62.58,47.68,60.33Z"/><path d="M104.84,69.87V80.34h30.23a2.16,2.16,0,0,1,2.16,2.16V85a2.16,2.16,0,0,1-2.16,2.16H104.84V102.3a2.16,2.16,0,0,1-2.16,2.16h-3.6a2.16,2.16,0,0,1-2.16-2.16V87.18H81.81A2.16,2.16,0,0,1,79.65,85V82.5a2.16,2.16,0,0,1,2.16-2.16H96.92V69.91H81.81a2.16,2.16,0,0,1-2.16-2.16V64.87a2.16,2.16,0,0,1,2.16-2.16H96.92V26a2.16,2.16,0,0,1,2.16-2.16h24.78c14.45,0,24.88,8.84,24.88,22.85s-10.43,23.17-24.88,23.17Zm0-7.2h18.71c10.78,0,17.77-6,17.77-16S134.33,31,123.66,31H104.84Z"/></svg>