<svg id="bacf50c4-7766-4de2-9cbe-eb2c14baec77" data-name="Слой 1" xmlns="http://www.w3.org/2000/svg" viewBox="0 0 235.67 117.67"><path d="M168.64,104.7h0a6.44,6.44,0,0,0-.32-1.38c-1.12-4.29-3.68-12.15-4.85-15.65a7.76,7.76,0,0,0-.59-1.76,16.11,16.11,0,0,0-3.29-3.68s-.71-.38-.8-.41C156,80.5,147.35,77,147.35,77h0c-4.32-1.89-8.79-3.47-13.35-5.09h0c-.83,3.38-8.56,25.91-9.8,29.06l-1-20.94c.32-.5.56-1.06.83-1.59l3.23-6.39a16.13,16.13,0,0,1-18.82.12l3.14,6.24a13.26,13.26,0,0,0,.83,1.59l-1,20.94c-1.24-3.12-9-25.65-9.8-29.06h0c-4.56,1.62-9,3.23-13.35,5.09h0s-8.65,3.47-11.44,4.79c-.09.06-.71.35-.8.41a15.75,15.75,0,0,0-3.29,3.65,13.47,13.47,0,0,0-.59,1.76c-1.15,3.5-3.71,11.33-4.85,15.65a7.12,7.12,0,0,0-.33,1.38h0a9.15,9.15,0,0,0-.09,1.27,8.35,8.35,0,0,0,8.36,8.35h85.24a8.34,8.34,0,0,0,8.35-8.35A5,5,0,0,1,168.64,104.7Z"/><path d="M139.58,33.23c0-1.47.3-6.82.3-8A21.61,21.61,0,0,0,118.29,3.61h-.94A21.61,21.61,0,0,0,95.76,25.2c0,1.24.29,6.56.29,8-.53,0-5.35-1.15-4.82,4.65,1.09,12.26,5.79,9.91,5.91,9.91,2.3,7.41,5.88,12.12,9.38,15.12a21.38,21.38,0,0,0,10.89,5.2h.88A21.1,21.1,0,0,0,129.08,63c3.53-3,7.12-7.74,9.45-15.18.14,0,4.82,2.38,5.91-9.91C144.94,32.08,140.11,33.26,139.58,33.23Z"/><path d="M66.38,83.41l.05-.18.09-.17a15.09,15.09,0,0,1,3.33-4.39,23.53,23.53,0,0,1,2.26-2h0a1.74,1.74,0,0,1,.18-.11.16.16,0,0,1,.12-.06h0a13.94,13.94,0,0,1,1.52-.83c1.92-.91,6-2.59,8.89-3.76a2.78,2.78,0,0,1-.3-.15c-.08,0-.17-.09-.26-.12-2.44-1.14-10-4.17-10-4.17h0c-3.77-1.62-7.68-3-11.65-4.44h0c-.71,3-7.47,22.58-8.53,25.32l-.85-18.27a11.91,11.91,0,0,0,.7-1.38l2.83-5.56a13,13,0,0,1-8.27,2.71,13.22,13.22,0,0,1-8.15-2.59l2.77,5.44a9,9,0,0,0,.71,1.38L41,88.38C39.93,85.67,33.17,66,32.46,63.06h0c-4,1.41-7.88,2.79-11.64,4.44h0s-7.53,3-10,4.17c-.08,0-.17.09-.26.12s-.35.18-.44.24h0A7.07,7.07,0,0,0,7.26,75.2h0v0a5.09,5.09,0,0,0-.5,1.53c-1,3.06-3.24,9.88-4.21,13.62a6.68,6.68,0,0,0-.29,1.21h0a6.65,6.65,0,0,0-.09,1.11A7.26,7.26,0,0,0,9.43,100H61.17c1.24-4.35,3.21-10.47,4.44-14.15A12.25,12.25,0,0,1,66.38,83.41Z"/><path d="M28.46,41.94c2,6.44,5.12,10.56,8.18,13.17a18.39,18.39,0,0,0,9.47,4.53h.76a18.35,18.35,0,0,0,9.42-4.5c3.09-2.62,6.2-6.73,8.23-13.23.12,0,4.21,2.09,5.18-8.62.44-5.06-3.77-4-4.21-4.06,0-1.29.27-5.94.27-7A18.84,18.84,0,0,0,46.93,3.41h-.82A18.84,18.84,0,0,0,27.29,22.23c0,1.06.26,5.74.26,7-.47,0-4.68-1-4.21,4.06C24.26,44,28.34,41.94,28.46,41.94Z"/><path d="M233.35,85.35c-.06-.68-.14-1.35-.23-2,0,0-.38-2.18-.47-2.53a14.58,14.58,0,0,0-6.5-8.85,20,20,0,0,0-1.86-1.09c-.82-.44-13.47-4.59-13.79-4.71a10.12,10.12,0,0,1,.15,1.44c1.76,1.24,6.94,5.71,4.59,14,0,0-3.74-4.44-7.53-5-3.62,6.3-9.77,14.3-13.09,16.39-3.33-2.09-9.47-10.06-13.09-16.39-3.8.56-7.53,5-7.53,5-2.36-8.35,2.82-12.79,4.59-14a11.92,11.92,0,0,1,.14-1.44c-.32.12-13,4.27-13.79,4.71a13.61,13.61,0,0,0-1.85,1.09,18.33,18.33,0,0,0-3.36,2.85c.77.32,1.41.62,1.94.85a12.19,12.19,0,0,1,1.39.74h0a15.76,15.76,0,0,1,4,3.76,13,13,0,0,1,3,5.71c1.2,3.68,3.2,9.79,4.41,14.12h49.35a9.67,9.67,0,0,0,7.45-3.06A9,9,0,0,0,233.44,91c0-.38.06-2.06.06-2.06S233.35,85.38,233.35,85.35Z"/><path d="M171.7,45.64a11.82,11.82,0,0,1,.5,3.09,6.35,6.35,0,0,1-.08,1,39.71,39.71,0,0,1-2.53,4.56c3.44,3.71,8,4.56,12.44,5.5,1.32.27,2.67.44,4.12.62l1.41.26-2.27,6.65a19.59,19.59,0,0,0,9.33,15.62h.06A19.59,19.59,0,0,0,204,67.29l-2.27-6.65,1.42-.26c1.44-.18,2.79-.35,4.11-.62,4.47-.94,9-1.79,12.45-5.5a36.89,36.89,0,0,1-2.53-4.56,5.31,5.31,0,0,1-.09-1,10.69,10.69,0,0,1,.5-3.09c.29-1,.62-2.06.94-3.12a27,27,0,0,0-23.83-38h0a26.79,26.79,0,0,0-26.18,26.89,27.29,27.29,0,0,0,2.35,11.08C171.09,43.58,171.41,44.61,171.7,45.64Z"/></svg>