<svg id="bff2b1ce-1592-407a-90fd-b030cb7b0505" data-name="Слой 1" xmlns="http://www.w3.org/2000/svg" viewBox="0 0 36 795"><path d="M1.5,769.23l.39.1A43.59,43.59,0,0,1,16,779.56V1.4A1.21,1.21,0,0,1,17.36,0a2.9,2.9,0,0,1,2.12,1,3.22,3.22,0,0,1,1,2.29V779.56a49.14,49.14,0,0,1,6.14-5.49A33.66,33.66,0,0,1,33.4,770a3.58,3.58,0,0,1,1.45-.43c.52,0,.78.29.78.86a4.59,4.59,0,0,1-.29,1.54,4.1,4.1,0,0,1-.78,1.33q-5.42,5.76-8.94,10.29a53.07,53.07,0,0,0-6.14,10.06,3.4,3.4,0,0,1-.58,1,.86.86,0,0,1-.67.32.89.89,0,0,1-.68-.21,5,5,0,0,1-.58-1.17,53.15,53.15,0,0,0-6.14-10.07q-3.52-4.53-8.94-10.28a4,4,0,0,1-.77-1.33,4.41,4.41,0,0,1-.29-1.55C.83,769.58,1.05,769.23,1.5,769.23Z"/></svg>