<svg xmlns="http://www.w3.org/2000/svg" xmlns:xlink="http://www.w3.org/1999/xlink" version="1.1" x="0px" y="0px" viewBox="19.400001525878906 22.299997329711914 68.20000457763672 60.40467834472656" enable-background="new 0 0 100 100" xml:space="preserve" preserveAspectRatio="xMidYMid meet"  fill-opacity="1" ><g><g><g><g><path d="M32.8,70.5c0-6,2-12.6,5.3-17.7c1.6-2.4,3.3-4.3,5.3-5.8c-1.9-1.3-4-2-5.8-2C31.5,45.1,23,53,23,65.8      c0,1.6,0.5,2.9,1.7,4c1.6,1.5,4.8,2.5,8.4,2.9C32.9,72,32.8,71.3,32.8,70.5z M44.6,34.7c0,4.7,3.8,8.5,8.5,8.5      c4.7,0,8.5-3.8,8.5-8.5s-3.8-8.5-8.5-8.5C48.4,26.3,44.6,30.1,44.6,34.7z M34.9,76.7c-5.2-0.3-10.1-1.7-12.7-4.3      c-1.8-1.8-2.8-4-2.8-6.6c0-5.4,1.8-11.4,4.8-16c1.5-2.3,3.2-4.1,5.1-5.5c0.3-0.3,0.4-0.7,0.5-1.1c0.1-0.6-0.1-1.3-0.5-1.8      c-1.8-2-3-4.7-3-7.7c0-6.3,5.1-11.4,11.4-11.4c2.9,0,5.5,1.1,7.5,2.9c2.2-1.8,4.9-2.8,7.9-2.8c3.2,0,6.1,1.2,8.3,3.1      c2-2,4.8-3.2,7.9-3.2c6.3,0,11.4,5.1,11.4,11.4c0,2.9-1.1,5.6-3,7.7c-0.4,0.6-0.5,1.2-0.5,1.8c0.1,0.4,0.2,0.8,0.5,1.1      c1.9,1.4,3.6,3.2,5.1,5.5c3,4.6,4.8,10.6,4.8,16c0,2.6-1.1,4.8-2.8,6.6c-2.4,2.5-7.8,4-13.5,4.3c-0.3,0.4-0.6,0.8-1,1.2      c-5.7,6-27.4,6.8-34.4,0C35.5,77.5,35.2,77.1,34.9,76.7z M82.3,69.8c1.1-1.1,1.7-2.4,1.7-4c0-12.8-8.6-20.7-14.7-20.7      c-1.9,0-4.1,0.8-6.2,2.2c1.8,1.4,3.4,3.3,4.9,5.5c3.3,5.1,5.3,11.7,5.3,17.7c0,0.8-0.1,1.6-0.2,2.2      C77.1,72.4,80.6,71.4,82.3,69.8z M75.6,38.2c0.9-1.3,1.5-2.8,1.5-4.5c0-4.3-3.5-7.8-7.8-7.8c-2.2,0-4.1,0.9-5.5,2.3      c1.2,2,1.9,4.3,1.9,6.7c0,1.8-0.4,3.4-1,5c1.3,1,2.9,1.5,4.6,1.5c2.2,0,4.2-0.9,5.6-2.4C75.1,38.8,75.3,38.5,75.6,38.2z M69,73      c0.3-0.7,0.5-1.5,0.5-2.4c0-9.7-4.4-16.8-9.4-20.4c-1-0.8-2.1-1.4-3.2-1.8c-1.3-0.5-2.5-0.8-3.7-0.8c-1,0-2.1,0.2-3.1,0.6      c-1.1,0.4-2.2,0.9-3.3,1.7c-5.1,3.4-9.8,10.7-9.8,20.7c0,0.9,0.2,1.7,0.5,2.4c0.3,0.8,0.8,1.4,1.4,2c0.7,0.6,1.6,1.2,2.7,1.6      c6,2.5,17.6,2.5,23.6,0c1.1-0.5,1.9-1,2.6-1.6C68.2,74.4,68.7,73.7,69,73z M40.5,35c0-2.7,0.8-5.1,2.2-7.1      c-1.4-1.2-3.1-1.9-5.1-1.9c-4.3,0-7.8,3.5-7.8,7.8c0,1.7,0.5,3.2,1.5,4.5c0.3,0.3,0.5,0.6,0.7,0.9c1.4,1.5,3.4,2.4,5.6,2.4      c1.5,0,2.9-0.4,4-1.2C40.9,38.7,40.5,36.9,40.5,35z"></path></g></g></g></g></svg>