<svg id="b62c9753-8e1e-4db9-93b9-0e6cb8efa535" data-name="Слой 1" xmlns="http://www.w3.org/2000/svg" viewBox="0 0 232.14 232.14"><path d="M101.65,107.13c-1.56-.72-3.12-1.42-4.69-2.12-.75-.34-1.51-.65-2.28-.94a6.76,6.76,0,0,1-.77-.36c-.57-.28-1.13-.55-1.7-.8-2-.93-4.09-1.9-6.17-2.75A10.25,10.25,0,0,0,76,101.26c-1.29.87-2.51,1.84-3.76,2.77L68,107.16c-.33.24-.68.46-1.06.72-.05-.2-.08-.33-.12-.46q-1.56-5.08-3.13-10.16c-1-3.16-1.9-6.33-2.93-9.47A6.66,6.66,0,0,0,57,83.73a7.17,7.17,0,0,0-2.12-.41,6.1,6.1,0,0,0-4.59,1.1c-1.12.81-2.2,1.66-3.3,2.49L42,90.6c-1.59,1.17-3.2,2.32-4.77,3.52-2.51,1.93-3.8,4.46-3.27,7.62.39,2.35,1.08,4.64,1.65,7,.68,2.81,1.39,5.6,2.08,8.41A4.86,4.86,0,0,0,39,119.73a3.93,3.93,0,0,0,6.59-2.21,5.44,5.44,0,0,0-.26-2.37q-.93-3.7-1.85-7.41c-.55-2.22-1.1-4.45-1.66-6.67a.58.58,0,0,1,.23-.72c1.45-1,2.87-2.12,4.3-3.18l2.32-1.71a2.43,2.43,0,0,0,.09.3l.1.31.19.62.38,1.24.76,2.48.76,2.47.75,2.47c.25.82.51,1.64.76,2.46l.75,2.47.38,1.23a6,6,0,0,0,.19.6c.08.18.14.38.21.57.28.78.53,1.58.76,2.38a6.09,6.09,0,0,1,.17.61,1.52,1.52,0,0,0,0,.21c0,.1.07.2.1.29.12.39.24.78.37,1.17s.24.72.37,1.07l.21.52a2.72,2.72,0,0,1,.11.25,1.45,1.45,0,0,0,.12.25,6.25,6.25,0,0,0,3.93,3.22,6.86,6.86,0,0,0,6.31-1.14l4.4-3.27,1.92-1.41h0a6.36,6.36,0,0,0,.7-.56l4-2.93q2.16-1.61,4.33-3.2a.47.47,0,0,1,.4,0c.77.33,1.53.67,2.29,1l6,2.68c.08,0,.2.11.24.08h0a10.09,10.09,0,0,0,1.42.64.18.18,0,0,0,.08.07l2.11,1c1.28.57,2.54,1.18,3.84,1.72a12.14,12.14,0,0,0,2.64.91,5.27,5.27,0,0,0,5.79-3.57,5.34,5.34,0,0,0-2-6A30,30,0,0,0,101.65,107.13Z"/><path d="M56.87,124.12c0,.26.05.37.06.49.26,3.2.52,6.4.76,9.61a1.06,1.06,0,0,1-.19.68c-.78.9-1.59,1.76-2.38,2.64-1.63,1.82-3.24,3.66-4.87,5.47s-3.21,3.52-4.82,5.28a6.29,6.29,0,0,0-1.67,2.76A5.29,5.29,0,0,0,49,157.67a5.07,5.07,0,0,0,3.68-1.59q2.88-3.14,5.73-6.28,3.24-3.57,6.44-7.15a23.63,23.63,0,0,0,1.56-1.91,9.93,9.93,0,0,0,1.93-6.69c-.18-2.85-.43-5.7-.65-8.54,0-.59-.1-1.17-.17-1.87a8.55,8.55,0,0,1-5.23,2.19A8.39,8.39,0,0,1,56.87,124.12Z"/><path d="M8.37,115.79l13.86-13.94L34.74,89.29c.53-.53,1.09-1,1.57-1.6a2.79,2.79,0,0,0-1.46-4.59,2.9,2.9,0,0,0-2.8.92L4.44,111.76l-.19.19a2.83,2.83,0,0,0,.84,4.52A3,3,0,0,0,8.37,115.79Z"/><path d="M51.83,81.13a7.22,7.22,0,0,0,1.59-.75,14.09,14.09,0,0,0,1.4-1A8.49,8.49,0,0,0,56.16,78a6.45,6.45,0,0,0,.52-.87c.06-.12.13-.24.18-.36s.13-.24.18-.36.07-.2.1-.3l.21-.6c0-.12.08-.24.11-.36a8.54,8.54,0,0,0,.3-1.42,8.43,8.43,0,0,0,.05-1.42,9.74,9.74,0,0,0-.19-1.41,9.5,9.5,0,0,0-.41-1.38c-.1-.25-.18-.5-.3-.74l-.38-.73-.11-.16c-.06-.08-.11-.17-.17-.26h0a2.1,2.1,0,0,0-.46-.57l-.18-.17-.17-.18h0c-.1-.11-.2-.22-.31-.32l-.24-.25a5.85,5.85,0,0,0-.54-.45,9,9,0,0,0-1.28-.82,6.75,6.75,0,0,0-1.29-.57A8.85,8.85,0,0,0,44,65.37a8.38,8.38,0,0,0-3.62,5.07,8.54,8.54,0,0,0,1.36,7.44,8.67,8.67,0,0,0,5.73,3.61A9,9,0,0,0,51.83,81.13Z"/><path d="M77.53,70.53c-.3.49-.57,1-.85,1.48L74,76.91c-1.35,2.46-2.7,4.93-4.06,7.38a.52.52,0,0,1-.4.21c-1.54-.14-3.08-.31-4.61-.47l-3.46-.37a1,1,0,0,0,0,.17l.12.13a7.9,7.9,0,0,1,2,3.34c.44,1.42.9,2.83,1.32,4.26a.57.57,0,0,0,.58.49c.93.08,1.86.19,2.79.31a8,8,0,0,0,8.54-4.29l3.3-6c1.35-2.48,2.66-5,4.08-7.42a4.11,4.11,0,0,0-.7-4.84A4,4,0,0,0,77.53,70.53Z"/><path d="M47.33,131a2.58,2.58,0,0,0,.65-2.7,2.68,2.68,0,0,0-2.23-2,2.82,2.82,0,0,0-2.58.94l-1.06,1.07L38.44,132l-.06.06c-.91.92-1.82,1.85-2.74,2.76l-1.44,1.45-1.82,1.83-.38.39-.52.52c-.31.35-.68.66-1,1l-3.68,3.68c-1.21,1.23-2.43,2.45-3.65,3.68l-3.27,3.28a2.79,2.79,0,1,0,3.95,3.95l20.6-20.7C45.39,132.92,46.39,132,47.33,131Z"/><path d="M6.47,135.75c3.65-3.72,7.34-7.39,11-11.08l7.11-7.14c1.41-1.42,2.84-2.81,4.2-4.26A2.71,2.71,0,0,0,27.73,109a2.76,2.76,0,0,0-3.22.74q-10.91,11-21.8,21.92a5.81,5.81,0,0,0-.74.9,2.84,2.84,0,0,0,1.11,3.82A2.91,2.91,0,0,0,6.47,135.75Z"/><path d="M24.36,128.05c-1.75,1.75-3.51,3.49-5.23,5.26a2.77,2.77,0,0,0,4.06,3.78l10.16-10.2c.09-.1.19-.2.27-.3a2.78,2.78,0,0,0-4.13-3.71C27.8,124.62,26.07,126.33,24.36,128.05Z"/><polyline points="48 195 181 62 285.53 166.53" style="fill:none;stroke:#000;stroke-linecap:round;stroke-miterlimit:10;stroke-width:8.503936767578125px"/><polyline points="128.38 116.34 165.14 96.16 179.56 108.42 191.81 92.56 235.06 117.06" style="fill:none;stroke:#000;stroke-linecap:round;stroke-miterlimit:10;stroke-width:8.503936767578125px"/><polyline points="181.5 61.5 181.5 19.5 218.5 31.5 181.5 45.5" style="fill:none;stroke:#000;stroke-linecap:round;stroke-miterlimit:10;stroke-width:8.503936767578125px"/></svg>