<?xml version="1.0" encoding="utf-8"?>
<!-- Generator: Adobe Illustrator 24.0.1, SVG Export Plug-In . SVG Version: 6.00 Build 0)  -->
<svg version="1.1" id="fa428442-785f-46a7-9ae1-1785d72399a0"
	 xmlns="http://www.w3.org/2000/svg" xmlns:xlink="http://www.w3.org/1999/xlink" x="0px" y="0px" viewBox="0 0 169.9 232.1"
	 style="enable-background:new 0 0 169.9 232.1;" xml:space="preserve">
<title>graph-design-mountain</title>
<path d="M95.4,5.8c0.3,0.3,0.8,0.5,0.9,0.8c0.7,1.7,2.1,1.2,3.4,1.1c1.9-0.2,3.8-0.6,5.7-0.6c3.5,0,7,0.1,10.4,0.3
	c1.4,0.1,2.7,0.3,4.1,0.7c3.1,0.6,6.3,1.2,9.4,1.9c4,0.9,8,2.1,12,3c2.5,0.6,5,0.9,7.5,1c3.6,0.1,7.3-0.1,11-0.3
	c1.1-0.1,2.2-0.4,3.3-0.6c-0.6,1.2-1.1,2.1-1.5,3c-3.5,6.7-7.1,13.4-10.5,20.2c-0.2,0.5-0.2,1.1,0,1.6c2.3,4.3,4.7,8.6,7.1,12.9
	c1.6,3,3.3,6,5,9c0.2,0.3,0.3,0.6,0.5,1.2c-1.3,0.2-2.5,0.5-3.8,0.6c-4,0.5-8,0.4-12-0.3c-3.1-0.5-6.1-1.3-9.1-2.1
	c-3.2-0.8-6.3-1.7-9.5-2.6c-3.8-1-7.8-1.5-11.7-1.6c-2.8-0.1-5.7,0-8.5,0.4c-3.1,0.3-6.2,1-9.4,1.5c-0.1,0-0.2,0-0.3,0.1
	c-2.1,0.6-2.1,0.6-2.1,2.8c0,0.3,0,0.5,0,0.8c-0.1,1.9,0.1,3.3,2.1,4.7c4.4,2.9,3.5,9.4-1.2,11.7c-0.8,0.4-0.9,0.9-0.9,1.7
	c0,28.4,0,56.8,0,85.3c0,6.9,0,13.9,0,20.8c0,1,0.4,1.9,1.2,2.4c4.2,3.5,8.4,7.1,12.6,10.7l11.4,9.7l20.4,17.4
	c0.3,0.3,0.6,0.6,1.1,1.1H6.5L6.3,226c4.9-4.4,10-8.5,15-12.8s10-8.5,15-12.8c-1.5-0.3-2.9-0.7-4.3-1.3c-4-2-5.8-6.1-5.1-10.7
	c0.6-3.7,0.8-7.5,1.3-11.2c0.4-3.5,0.8-7,1.2-10.6c0.3-2.8,0.5-5.5,0.8-8.3c0.4-3.6,0.8-7.1,1.2-10.7c0.3-2.7,0.5-5.5,0.8-8.2
	c0.2-1.6,0.4-3.3,0.6-5c-3.6-0.5-5-3.5-6.7-6.1c-3.9-5.9-7.9-11.8-11.8-17.8c-1.6-2.3-3-4.7-4.4-7.1c-1.5-3.1-0.4-6.9,2.6-8.7
	l20.1-12.7c1.8-1.1,3.8-1.7,5.9-1.7c5.4,0,10.8,0,16.2,0c1.8,0,3.3-0.8,4.8-1.5c5.5-2.3,10.9-4.8,16.3-7.2c4.7-2.1,9.3-4.1,14-6.2
	c0.8-0.3,0.9-1,0.9-1.7c0-15.3,0-30.6,0-45.8c0-2.6,0-5.2,0-7.8c-0.2-1.7,0.6-3.4,2-4.3L95.4,5.8z M90.6,80.5
	c-4.3,1.9-8.5,3.7-12.6,5.5c-4.9,2.2-9.7,4.4-14.6,6.5c-0.9,0.2-1.5,1.1-1.4,2.1c0,8,0,16.1,0,24.1c0,0.2,0,0.4,0,0.6
	c0,0.8,0.3,1,1.1,0.7c2.8-1.2,5.5-2.4,8.3-3.6c2.2-1,4.8-0.9,6.9,0.2c3.6,1.8,5.8,5.5,5.7,9.4c0.1,11.5,0.1,23.1,0,34.6
	c0,3-1.4,5.8-3.8,7.5c-0.8,0.5-1.7,1-2.5,1.5l13,11L90.6,80.5z M45.3,192.8l27-23c-0.7-0.3-1.4-0.6-2-0.9c-3.2-1.6-5.2-5-5-8.6
	c0-6.5,0-13.1,0-19.6c0-1.3-0.2-1.4-1.3-0.9c-4.3,1.8-8.6,3.6-12.8,5.4c-0.5,0.3-0.9,0.7-1,1.2c-0.4,2.7-0.7,5.4-1,8.2
	s-0.5,5.6-0.8,8.4c-0.1,1-0.1,2.1-0.2,3.1c-0.3,2.8-0.7,5.5-1,8.3s-0.6,5.9-0.8,8.8L45.3,192.8z M77.9,181.3l-0.3,0.2
	c2.6,9.6,5.2,19.2,7.8,28.8c0.3-0.2,0.6-0.2,0.7-0.4c3.6-2,7.1-4.1,10.7-6c0.5-0.3,1.2-0.4,1.7-0.2c2.5,1.1,5,2.4,7.4,3.5l5,2.4
	l0.1-0.1L77.9,181.3z M33.8,97.9l-7.8,4.9l7.8,11.8V97.9z"/>
<path d="M31.7,58.6c-0.1-8.1,6.4-14.7,14.5-14.8c0.1,0,0.2,0,0.4,0c8-0.2,14.6,6.2,14.8,14.2c0,0.2,0,0.5,0,0.7
	c0,8.5-6.5,14.7-14.9,14.7c-8.1,0-14.7-6.5-14.7-14.6C31.7,58.8,31.7,58.7,31.7,58.6z"/>
</svg>
