<svg xmlns="http://www.w3.org/2000/svg" xmlns:xlink="http://www.w3.org/1999/xlink" version="1.1" x="0px" y="0px" viewBox="0 4.432000160217285 100 91.56800079345703" enable-background="new 0 0 100 100" xml:space="preserve" preserveAspectRatio="xMidYMid meet" fill-opacity="1"  ><g><path d="M84.127,14H79V9.194c0-2.63-2.37-4.762-5-4.762s-5,2.132-5,4.762V14H31V9.194c0-2.63-2.37-4.762-5-4.762s-5,2.132-5,4.762   V14h-5.127C7.121,14,0,20.283,0,29.036v50.793C0,88.582,7.121,96,15.873,96h68.254C92.88,96,100,88.582,100,79.829V29.036   C100,20.283,92.88,14,84.127,14z M15.873,23H21v3.655c0,2.63,2.37,4.762,5,4.762s5-2.132,5-4.762V23h38v3.655   c0,2.63,2.37,4.762,5,4.762s5-2.132,5-4.762V23h5.127C87.628,23,90,25.535,90,29.036V37H10v-7.964C10,25.535,12.372,23,15.873,23z    M84.127,87H15.873C12.372,87,10,83.33,10,79.829V47h80v32.829C90,83.33,87.628,87,84.127,87z"></path></g></svg>