<svg id="ac37ed84-63ed-4e60-94a1-a05d988a7d18" data-name="Слой 1" xmlns="http://www.w3.org/2000/svg" viewBox="0 0 232.14 232.14"><path d="M200,180.86c-1.24-3.41-2.54-6.81-3.82-10.21-.62-1.64-1.28-3.24-2-4.84-.24-.55-.43-1.13-.62-1.7-.42-1.26-.86-2.51-1.33-3.75-1.68-4.47-3.26-9-5.11-13.37-3.13-7.45-8.8-11.93-16.7-13.49-3.24-.63-6.52-1-9.78-1.5-3.67-.56-7.35-1.1-11-1.67-.86-.13-1.71-.33-2.66-.52.23-.37.38-.61.51-.86L158,109.05c3.29-6.18,6.66-12.32,9.85-18.56a14.08,14.08,0,0,0,.48-11.71A15.12,15.12,0,0,0,165.79,75a12.87,12.87,0,0,0-8.52-5.24c-2.88-.47-5.78-.82-8.67-1.25q-6.49-1-13-2c-4.15-.63-8.28-1.33-12.43-1.89-6.64-.89-12.37,1-16.34,6.49-2.93,4.09-5.35,8.55-8,12.86-3.18,5.23-6.33,10.48-9.52,15.7a10.36,10.36,0,0,0-2,5.92,8.32,8.32,0,0,0,13.18,6.59,11.32,11.32,0,0,0,3.18-3.93q4.17-6.95,8.36-13.86l7.56-12.47a1.2,1.2,0,0,1,1.41-.72c3.73.61,7.47,1.13,11.2,1.69l6.05.94a3.88,3.88,0,0,0-.31.58l-.33.61c-.21.41-.43.81-.65,1.22l-1.29,2.43c-.87,1.61-1.73,3.23-2.59,4.84l-2.58,4.83L128,103.18,125.4,108l-2.57,4.82c-.43.8-.86,1.6-1.28,2.41a13.25,13.25,0,0,0-.62,1.18c-.17.39-.36.78-.54,1.17q-1.15,2.39-2.44,4.7c-.22.38-.42.79-.67,1.16-.09.14-.2.23-.28.38s-.19.38-.29.57l-1.2,2.3c-.36.72-.72,1.44-1.05,2.17-.16.36-.31.72-.46,1.09-.07.18-.15.36-.21.55a1.92,1.92,0,0,0-.2.55,13.17,13.17,0,0,0,1,10.7,14.45,14.45,0,0,0,11.15,7.78l11.49,1.74,5,.77,0,0a13.19,13.19,0,0,0,1.88.21c3.45.55,6.9,1.07,10.35,1.59,3.76.57,7.53,1.13,11.29,1.73a1,1,0,0,1,.62.57c.66,1.64,1.28,3.3,1.9,5l4.95,13c.07.17.13.46.24.49h.06a20.6,20.6,0,0,0,1.14,3.1.72.72,0,0,0,0,.22c.57,1.54,1.15,3.07,1.73,4.61,1,2.78,2,5.58,3.15,8.33a25.82,25.82,0,0,0,2.58,5.34,11.16,11.16,0,0,0,14,3.36c4.23-2,7.1-7.46,6-12A61.26,61.26,0,0,0,200,180.86Z"/><path d="M110.47,137c-.34.44-.48.65-.64.84q-6.64,7.76-13.32,15.49a2.16,2.16,0,0,1-1.31.74c-2.5.19-5,.25-7.52.38-5.17.28-10.33.6-15.5.86s-10.09.43-15.13.65a13.29,13.29,0,0,0-6.65,1.63,11.39,11.39,0,0,0-5.13,12.8,11.51,11.51,0,0,0,3,5,10.78,10.78,0,0,0,7.9,3.15c6-.26,12-.5,18-.78q10.19-.48,20.37-1c1.74-.1,3.49-.25,5.21-.51a21,21,0,0,0,12.93-7.12c4-4.53,7.92-9.16,11.87-13.74.81-.95,1.59-1.9,2.55-3A18,18,0,0,1,116,147.72,17.73,17.73,0,0,1,110.47,137Z"/><path d="M47.45,53.64H126.7c1.59,0,3.19.1,4.77,0a5.9,5.9,0,0,0,4.7-9.06,6.12,6.12,0,0,0-5.56-2.83H47.07a6,6,0,0,0-5.54,8A6.22,6.22,0,0,0,47.45,53.64Z"/><path d="M164.52,67.12a14.5,14.5,0,0,0,3.5,1.26,26.72,26.72,0,0,0,3.66.55,17,17,0,0,0,4,0,13.43,13.43,0,0,0,2.08-.51,7.86,7.86,0,0,0,.82-.27c.26-.11.54-.17.8-.28s.41-.18.61-.28l1.2-.59c.24-.11.48-.23.71-.36a17.76,17.76,0,0,0,4.79-3.74,19.28,19.28,0,0,0,1.83-2.38A21.18,21.18,0,0,0,190,57.84a16.11,16.11,0,0,0,.67-1.55c.18-.55.35-1.11.52-1.66a2,2,0,0,0,.09-.41c0-.22.09-.42.13-.64v0A4.62,4.62,0,0,0,191.6,52c0-.17,0-.34,0-.51l0-.54,0,0c0-.31,0-.63,0-.94s0-.49,0-.74a14.58,14.58,0,0,0-.13-1.47,20.34,20.34,0,0,0-.68-3.17,15.72,15.72,0,0,0-1.09-2.78,18.69,18.69,0,0,0-13.2-10.09,17.75,17.75,0,0,0-13,2.15,18,18,0,0,0-9.15,13.17,18.38,18.38,0,0,0,3.15,14A18.89,18.89,0,0,0,164.52,67.12Z"/><path d="M215.88,87.89c-1.17.27-2.33.61-3.49.94Q206.68,90.45,201,92.1c-5.71,1.64-11.42,3.31-17.15,4.93a1,1,0,0,1-.91-.29c-2.09-2.52-4.14-5.08-6.2-7.64-1.52-1.88-3-3.77-4.61-5.75a2.36,2.36,0,0,0-.18.34c0,.12,0,.25,0,.38a17,17,0,0,1-2,8c-1.48,2.78-2.93,5.58-4.44,8.35a1.25,1.25,0,0,0,.12,1.61c1.28,1.52,2.51,3.08,3.73,4.65,4.91,6.35,11.61,8.59,19.21,6.41q7-2,13.95-4c5.74-1.66,11.46-3.44,17.24-5A8.69,8.69,0,0,0,226,95.87,8.41,8.41,0,0,0,215.88,87.89Z"/><path d="M82.92,134.88a5.53,5.53,0,0,0,5-3.06,5.72,5.72,0,0,0-.39-6.28,6,6,0,0,0-5.28-2.47H67.9l-8.26,0H47.13c-1,.06-2,0-3,0H12.27a5.92,5.92,0,1,0,0,11.83H74.15C77.07,134.9,80,135,82.92,134.88Z"/><path d="M14.63,80.65c11-.07,22.07,0,33.1,0H69.1c4.23,0,8.46.08,12.69-.05,3.63-.11,6.34-4.21,4.8-7.95a5.85,5.85,0,0,0-5.93-3.74H15.13a12.66,12.66,0,0,0-2.46.24c-3,.57-5.11,4.54-4.07,7.38A6.14,6.14,0,0,0,14.63,80.65Z"/><path d="M53,96C47.7,96,42.46,96,37.21,96a5.89,5.89,0,0,0-5,8.49,5.78,5.78,0,0,0,5.37,3.27q15.26,0,30.52,0a8.06,8.06,0,0,0,.85,0A5.89,5.89,0,0,0,68.39,96C63.25,96.05,58.1,96,53,96Z"/></svg>