<svg id="b373146d-1125-4f42-9961-cdcd1b563d6c" data-name="fa428442-785f-46a7-9ae1-1785d72399a0" xmlns="http://www.w3.org/2000/svg" viewBox="0 0 186.77 232.1"><path d="M8.13,114.56h7.45a2.87,2.87,0,0,1,.81-5.63H27.28c-.52-10.59-.74-41.59,13.48-50.09L34,11,46,9.33,57.74,92.6l-12,1.69L41.68,65.4c-8.4,8.2-9.23,31.48-8.64,43.53H53.73a2.87,2.87,0,0,1,.81,5.63h49.32v10.38H25V226.1H14.61V124.94H8.13Z"/><path d="M144.46,53.15a23,23,0,0,1-16.66-6.88,22.6,22.6,0,0,1-7-16.79,22.76,22.76,0,0,1,7-16.66,23.43,23.43,0,0,1,33.45,0,23,23,0,0,1,6.89,16.66,22.82,22.82,0,0,1-6.89,16.79A22.82,22.82,0,0,1,144.46,53.15Z"/><path d="M60.82,147.59q.82-9.92,4.95-13.77T79.26,130h34.09l4-16.92a122.54,122.54,0,0,0,22.74-23.23,2,2,0,1,0-3.3-2.4,119.47,119.47,0,0,1-23.95,23.91l-28.5.26h-.09a9.6,9.6,0,0,1-.08-19.2l24.93-.23L131.35,64a9.52,9.52,0,0,1,3.38-2.7,20,20,0,0,1,11.38-3.16A20.22,20.22,0,0,1,160.56,64a17.2,17.2,0,0,1,5.65,14.18q-.56,12.67-5,33.59-1.66,8.53-4.13,18.16-2.76,16-8.4,21.89c-3.77,4-9.78,5.92-18,5.92H84.22l-4.68,55.89q-1.1,13.22-13.49,12.39-10.74-.56-9.91-13.77Z"/><polygon points="174.2 77.05 184.37 79.09 167.59 162.66 165.51 173.04 154.93 173.04 135.09 173.04 135.09 215.72 159.98 215.72 159.98 216.51 159.98 226.1 134.48 226.1 125.31 226.1 99.82 226.1 99.82 216.51 99.82 215.72 124.71 215.72 124.71 173.04 92.03 173.04 92.03 162.66 157.01 162.66 174.2 77.05"/></svg>