<?xml version="1.0" encoding="utf-8"?>
<!-- Generator: Adobe Illustrator 24.0.1, SVG Export Plug-In . SVG Version: 6.00 Build 0)  -->
<svg version="1.1" id="bff2b1ce-1592-407a-90fd-b030cb7b0505"
	 xmlns="http://www.w3.org/2000/svg" xmlns:xlink="http://www.w3.org/1999/xlink" x="0px" y="0px" viewBox="0 0 36 300.9"
	 style="enable-background:new 0 0 36 300.9;" xml:space="preserve">
<path d="M1.5,269.2l0.4,0.1c5.3,2.4,10.1,5.9,14.1,10.2V1.4c-0.1-0.7,0.3-1.3,1-1.4c0.1,0,0.2,0,0.4,0c0.8,0,1.6,0.4,2.1,1
	c0.6,0.6,1,1.4,1,2.3v276.3c1.9-2,3.9-3.8,6.1-5.5c2.1-1.6,4.4-3,6.8-4.1c0.4-0.2,0.9-0.4,1.5-0.4c0.5,0,0.8,0.3,0.8,0.9
	c0,0.5-0.1,1-0.3,1.5c-0.2,0.5-0.4,0.9-0.8,1.3c-3.6,3.8-6.6,7.3-8.9,10.3c-2.4,3.1-4.5,6.5-6.1,10.1c-0.1,0.4-0.3,0.7-0.6,1
	c-0.2,0.2-0.4,0.3-0.7,0.3c-0.2,0-0.5,0-0.7-0.2c-0.2-0.4-0.4-0.8-0.6-1.2c-1.7-3.6-3.7-7-6.1-10.1c-2.3-3-5.3-6.4-8.9-10.3
	c-0.3-0.4-0.6-0.8-0.8-1.3c-0.2-0.5-0.3-1-0.3-1.5C0.8,269.6,1,269.2,1.5,269.2z"/>
</svg>
