<svg id="eba08e93-270e-4dd3-8594-d89c74fea1cd" xmlns="http://www.w3.org/2000/svg" xmlns:xlink="http://www.w3.org/1999/xlink" viewBox="0 0 130.49 109.45"><defs><linearGradient id="e03700ac-b76c-4ff8-8872-d13698d5bad0" x1="-182.27" y1="303.12" x2="-182.08" y2="302.76" gradientTransform="matrix(130.49, 0, 0, -109.45, 23865.04, 33227.5)" gradientUnits="userSpaceOnUse"><stop offset="0" stop-color="#eff7fc"/><stop offset="1" stop-color="#fff"/></linearGradient></defs><path d="M49.08,102.82c-3.89,0-3.23-1.47-4.57-5.17L33.08,60l88-52.21" style="fill:#c8daea"/><path d="M49.08,102.82c3,0,4.33-1.37,6-3l16-15.56-20-12" style="fill:#a9c9dd"/><path d="M51.12,72.23,99.48,108c5.52,3,9.5,1.47,10.88-5.12L130,10.07C132.06,2,127-1.67,121.68.72L6.09,45.3c-7.89,3.16-7.84,7.56-1.44,9.52l29.67,9.26L103,20.76c3.24-2,6.22-.91,3.78,1.26" style="fill:url(#e03700ac-b76c-4ff8-8872-d13698d5bad0)"/></svg>