<svg id="e3b33b22-f9ac-471d-93eb-8bf4028c9e74" data-name="Слой 1" xmlns="http://www.w3.org/2000/svg" viewBox="0 0 762.79 145.82"><path d="M762.29,141,756.71,148C625.28,44.16,469.62,16.72,362.17,12,240.23,6.63,116.1,28.8,35.59,70c11.27,5.15,20.83,15.8,27.82,25.46C43.05,88.24,21,82.89-.5,86.5,12.41,68.72,18.87,47.1,20.87,25.6c5.52,9.68,10.63,24.59,9.9,36.79C112.61,20.24,238.82-2.44,362.57,3,435.09,6.2,504.7,18.47,569.45,39.49,642,63,706.88,97.18,762.29,141Z" transform="translate(0.5 -2.21)"/></svg>