<svg id="ac68fb76-0873-4e16-9f7c-db6b6710daf2" data-name="a045dab7-5f15-424a-ab4c-93ee40aa9bfb" xmlns="http://www.w3.org/2000/svg" viewBox="0 0 590 326.5"><path d="M417.09,98.13c-.61-.78-2.3-3.1-4.8-6.73-6.57-9.54-15.15-17.12-20.4-19.81-6-3-13.47-5.56-24.86-7.93-9.66-2-11.09-1.6-22-1.47-13,.19-19,.27-24-1.5a16.89,16.89,0,0,1-9-7.88c-.33-.64-1.29-2.49.58-3.3s13.8-3.22,26.46-5.18a107.75,107.75,0,0,1,28.67.19c18.23,2.64,20.76,3.09,30.14,5.3,13.83,3.27,19.1,5.3,23.56,9.09,2.9,2.47,10.16,12.15,18.48,24.65,4.16,6.25,11.32,16.53,19,27.41a38.23,38.23,0,0,0-7.6-3.91C448.79,106.3,422.05,98.94,417.09,98.13ZM400,43.94c4.47,1,8.89,2.2,11.27,2.92-2.59-3.86-8.44-12.67-15-22.51C387.64,11.21,380.73,1.19,380.08.41s-2.4-.27-3.19,1c-3.12,4.85-2.36,12.13.13,18.55,2.29,5.92,9.5,18.35,11.24,20.59C388.44,40.66,391.36,41.89,400,43.94Zm38.19,26.23c4.68,6.59,8.11,11.34,10.48,14.52C447,79,444.14,69.64,440,55.77c-1.74-5.76-6.3-19.28-6.3-19.28-.51-1-1.74-.46-2.47,0-2.6,1.64-4.3,4.37-4.86,8.27-.65,4.56,0,9.29,2.55,12.54C430.06,58.77,434.61,65.06,438.23,70.17ZM301.51,273.22a38.7,38.7,0,0,0-.14,15.52,2.92,2.92,0,0,0,4.83,1.45c4.9-4.45,14.25-13.67,19.76-17.94,12.74-9.87,27.48-15.61,47.71-16.56,24.64-1.1,38.42-.49,64.16,15.1,20.09,12.16,33.15,17,49.93,18.67,6.56.64,13.06,2.14,16.56,3.83,3.72,1.8,29.69,20.42,44.4,31.91a5.93,5.93,0,0,0,7.17.17c19.09-14.27,31-39.65,34-58a6,6,0,0,0-2.47-5.81c-1.32-.93-3-2.25-5.18-4.1C569.9,247,538,213,520.2,191.33c-7.29-8.89-26.85-33.34-31.69-39.63-4.26-5.54-11.63-15.6-19.5-26.56-2.95-2.89-20.56-12.59-24.85-13.9-4.93-1.49-25.62-6.92-32.57-8.54C399.75,99.94,371.21,95,368,95h0c-2.91,0-4,.38-11.89,4.65-14.5,7.81-30.95,18.08-33.12,20.32-1,1.05-4.71,6.59-8.59,13.17l-10.54,17.91a60.11,60.11,0,0,0-3.79,7.25,2.39,2.39,0,0,0,.88,1.09c1.21.8,4.52,2.56,10.59-.62,4.67-2.43,10.38-7.73,19.75-18.62l4.34-5.06,11.91-4.39c6.23-2.3,12.7-4.87,14.1-5.63a14.87,14.87,0,0,1,5.62-1.63h.05c1.8,0,8.35,2.08,13.7,4,12.73,4.64,17.59,6.21,20.79,6.75a10.67,10.67,0,0,1,4.86,2.44c3.94,3.75,19.07,22.38,19.07,33.37,0,5.63-1.41,9.62-7.77,17.7-11.41,14.54-26.79,24.53-51.36,33.89-15.13,5.77-31.54,12.8-36.58,15.69C315.58,245.54,305,259,301.51,273.22Z"/><path d="M138.71,107.06a38.78,38.78,0,0,0-7.6,3.91c7.71-10.88,14.87-21.16,19-27.41,8.33-12.5,15.58-22.18,18.48-24.65,4.46-3.79,9.73-5.82,23.56-9.09,9.38-2.21,11.91-2.65,30.14-5.3A107.75,107.75,0,0,1,251,44.33c12.67,2,24.63,4.39,26.46,5.18s.91,2.66.58,3.3a16.93,16.93,0,0,1-9,7.88c-5,1.77-11,1.69-24,1.5-10.92-.13-12.35-.54-22,1.47-11.39,2.37-18.9,4.88-24.86,7.93-5.26,2.68-13.83,10.27-20.4,19.81-2.5,3.64-4.19,5.95-4.8,6.73C168,98.94,141.21,106.3,138.71,107.06Zm63-66.56c1.74-2.24,8.95-14.67,11.24-20.59,2.49-6.42,3.24-13.7.13-18.55-.79-1.22-2.46-1.82-3.19-1s-7.55,10.8-16.27,23.94c-6.52,9.84-12.38,18.65-15,22.51,2.38-.72,6.8-1.88,11.27-2.92C198.64,41.89,201.56,40.66,201.74,40.5ZM161.11,57.29c2.57-3.25,3.2-8,2.55-12.54-.56-3.9-2.26-6.63-4.86-8.27-.73-.45-2-1-2.47,0,0,0-4.56,13.52-6.3,19.28-4.17,13.87-7,23.25-8.74,28.92,2.36-3.18,5.8-7.93,10.48-14.52C155.39,65.06,159.94,58.77,161.11,57.29Zm99,180c-5-2.88-21.46-9.92-36.58-15.69-24.57-9.36-40-19.36-51.36-33.89-6.36-8.08-7.77-12.07-7.77-17.7,0-11,15.14-29.62,19.07-33.37a10.67,10.67,0,0,1,4.86-2.44c3.2-.54,8.06-2.11,20.79-6.75,5.35-1.95,11.9-4,13.7-4h.05a14.87,14.87,0,0,1,5.62,1.63c1.41.76,7.87,3.34,14.1,5.63l11.91,4.39,4.34,5.06c9.37,10.88,15.09,16.19,19.75,18.62,6.08,3.18,9.39,1.42,10.59.62a2.39,2.39,0,0,0,.88-1.09,61,61,0,0,0-3.79-7.25l-10.54-17.91c-3.88-6.58-7.56-12.12-8.59-13.17-2.16-2.24-18.62-12.5-33.12-20.32-7.93-4.27-9-4.6-11.89-4.65h0c-3.25,0-31.8,4.92-43.64,7.68-6.95,1.62-27.64,7-32.57,8.54-4.3,1.31-21.9,11-24.85,13.9-7.87,11-15.23,21-19.5,26.56-4.84,6.29-24.4,30.74-31.69,39.63C52,213,20.1,247,7.73,257.44c-2.19,1.85-3.87,3.17-5.18,4.1a6,6,0,0,0-2.47,5.81c3.08,18.37,15,43.75,34,58a5.93,5.93,0,0,0,7.17-.17C56,313.72,82,295.09,85.68,293.29c3.5-1.69,10-3.19,16.56-3.83,16.78-1.62,29.84-6.51,49.93-18.67,25.74-15.59,39.52-16.2,64.16-15.1,20.23.95,35,6.69,47.7,16.56,5.52,4.27,14.87,13.49,19.77,17.94a2.92,2.92,0,0,0,4.83-1.45,38.7,38.7,0,0,0-.14-15.52C285,259,274.42,245.54,260.07,237.33Z"/></svg>