<svg id="a89e97a4-17ae-446c-864e-97a4f9b97ac7" data-name="Layer 1" xmlns="http://www.w3.org/2000/svg" viewBox="0 0 60 59"><path d="M59.92,13.62a1,1,0,0,0-.21-.32h0a1,1,0,0,0-.31-.21A1,1,0,0,0,59,13H50.32C48.63,11.8,39,5,33.63,1.59a4.94,4.94,0,0,0-7.26,0C21,5,11.37,11.8,9.68,13H1a1,1,0,0,0-.38.08,1,1,0,0,0-.31.21h0A1,1,0,0,0,0,14V58a1,1,0,0,0,.08.38,1,1,0,0,0,.54.55A1.13,1.13,0,0,0,.93,59H59.07a1.13,1.13,0,0,0,.31-.06A1,1,0,0,0,60,58V14A1,1,0,0,0,59.92,13.62ZM27.84,2.93A3,3,0,1,1,27,5,3,3,0,0,1,27.84,2.93ZM25,4.84A1,1,0,0,0,25,5,5,5,0,0,0,35,5a1,1,0,0,0,0-.16c3.94,2.61,8.91,6.08,11.88,8.16H13.14C16.11,10.92,21.08,7.45,25,4.84ZM56.59,15l-4,4H7.41l-4-4ZM52,21V51H8V21ZM2,16.42l4,4V51.59l-4,4ZM3.41,57l4-4H52.59l4,4ZM58,55.59l-4-4V20.42l4-4Z" style="fill:#b3b3b3;fill-rule:evenodd"/><path d="M27.48,39.65v-.38a9.72,9.72,0,0,1,.26-2.49,3.93,3.93,0,0,1,.77-1.5,6.12,6.12,0,0,1,1.24-1,11.48,11.48,0,0,0,1-.75,3.07,3.07,0,0,0,.72-.83,1.85,1.85,0,0,0,.27-1,1.74,1.74,0,0,0-1-1.6,2.18,2.18,0,0,0-1-.22,2.14,2.14,0,0,0-1,.25,2,2,0,0,0-1.08,1.8H23.49a5.55,5.55,0,0,1,.89-3.17,5.14,5.14,0,0,1,2.31-1.82,8.14,8.14,0,0,1,3.17-.6,9.08,9.08,0,0,1,3.37.59,5.23,5.23,0,0,1,2.32,1.74,4.6,4.6,0,0,1,.85,2.82A4.68,4.68,0,0,1,36,33.39a4.56,4.56,0,0,1-1,1.48A8.39,8.39,0,0,1,33.47,36a6.13,6.13,0,0,0-1.15.85,3.13,3.13,0,0,0-.69,1,3.76,3.76,0,0,0-.23,1.38v.38Zm2,6a2.39,2.39,0,0,1-2.4-2.39,2.25,2.25,0,0,1,.7-1.67,2.41,2.41,0,0,1,4.09,1.67,2.27,2.27,0,0,1-.35,1.2,2.5,2.5,0,0,1-.87.87A2.29,2.29,0,0,1,29.52,45.69Z" style="fill:#b3b3b3"/></svg>