<svg id="bc82314f-508c-49dc-a5e0-d2adad6396ae" data-name="Layer 1" xmlns="http://www.w3.org/2000/svg" viewBox="0 0 180.83 180.83"><path d="M90.42,180.83a88.89,88.89,0,0,1-28.55-4.56A90.77,90.77,0,0,1,4.56,119a91.66,91.66,0,0,1,0-57.1A90.7,90.7,0,0,1,61.87,4.56a91.66,91.66,0,0,1,57.1,0,90.72,90.72,0,0,1,57.3,57.3,91.66,91.66,0,0,1,0,57.1A90.79,90.79,0,0,1,119,176.27,89,89,0,0,1,90.42,180.83Zm0-10.9a78.26,78.26,0,0,0,25.11-4,79.93,79.93,0,0,0,50.4-50.43,79.36,79.36,0,0,0-11.3-72A80.17,80.17,0,0,0,137.38,26.2a79.41,79.41,0,0,0-93.93,0A80.17,80.17,0,0,0,26.2,43.45a79.36,79.36,0,0,0,0,93.88,80.12,80.12,0,0,0,39.1,28.58A78.28,78.28,0,0,0,90.42,169.93ZM48,91.35,55.17,84,80,108.46,131.3,57.33l7.33,7.33L80,123.12Z" style="fill:gray"/></svg>