<svg id="ad777492-f98b-4714-8f8f-b08b8b9685b8" data-name="bf2beac9-dc58-45ad-8665-4dbbe606e74d" xmlns="http://www.w3.org/2000/svg" xmlns:xlink="http://www.w3.org/1999/xlink" viewBox="0 0 610 231.4"><defs><clipPath id="b28fd1c9-a655-456b-8d00-05db538f9e52"><rect width="610" height="231.4" style="fill:none"/></clipPath><clipPath id="b2236a6c-23d5-42da-b674-1c1e9016e734"><rect width="610" height="231.3" style="fill:none"/></clipPath><clipPath id="fa2a650e-51c3-4e13-a181-afe96a7144e9"><path d="M0,0,44.1,167.5A85.72,85.72,0,0,0,127,231.4H610l-46.1-175A75.44,75.44,0,0,0,490.8,0Z" style="fill:none"/></clipPath><clipPath id="e8f6143d-202f-475e-9211-0fdf7ce06b6d"><rect x="-2.61" y="114.94" width="610.01" height="231.31" transform="translate(43.54 509.18) rotate(-84.43)" style="fill:none"/></clipPath></defs><g style="clip-path:url(#b28fd1c9-a655-456b-8d00-05db538f9e52)"><g style="clip-path:url(#b2236a6c-23d5-42da-b674-1c1e9016e734)"><path d="M610,231.4H126.9A85.78,85.78,0,0,1,44,167.5L0,0H490.8a75.55,75.55,0,0,1,73.1,56.3Z"/></g></g><g style="clip-path:url(#b28fd1c9-a655-456b-8d00-05db538f9e52)"><g style="clip-path:url(#fa2a650e-51c3-4e13-a181-afe96a7144e9)"><path d="M-3.9-38.1c-9.9-7.4-62.6,12.9-42.7,33.7C-34.4,8.3-21,49.9-6.8,62.8c102.4,92.7,262.4,150.9,559.9,86.9C234.6,163.8,192.2,70.5,75.7-21.3,64.9-29.8,7.6-29.6-3.9-38.1" style="fill:#ed1b2f"/></g></g><g style="clip-path:url(#b28fd1c9-a655-456b-8d00-05db538f9e52)"><g style="clip-path:url(#b2236a6c-23d5-42da-b674-1c1e9016e734)"><rect x="179.3" y="64.3" width="8.5" height="11.7" style="fill:#ed1b2f"/></g><g style="clip-path:url(#b2236a6c-23d5-42da-b674-1c1e9016e734)"><path d="M116.8,36.4c2.9,1.2,6.3,2.9,8.9,2.9,2.1,0,3.3-.7,3.3-2.2,0-1.1-.7-2.1-2.1-3.5a2.64,2.64,0,0,1-.7-1.9c0-1.3,3-3.6,4.5-3.6s2.8,1.4,2.8,4.8c0,4.5-4.1,8.8-12.1,8.5-.2,0-.6.1-.2.7,3.1,5.3,5.1,13.6,5.1,20.8,0,13.2-6.4,25.8-15.1,34.5s-19.1,12.1-26.6,12.1a24.14,24.14,0,0,1-18.8-10c-4-5.2-5.7-11.6-5.7-19.8a51.49,51.49,0,0,1,11.8-32C80,37.8,91.2,31.9,101,31.9c7.2,0,13,3.2,15.8,4.5M80.1,48.5c-6.4,8.9-11.7,25.4-11.7,38.4,0,15.1,6.6,19.7,14.5,19.7,6.6,0,14-2.2,21.6-11.8,7.1-8.9,13.6-26.7,13.6-38.2,0-9.4-2.5-22.2-15.2-22.2-8.8,0-16.3,5.3-22.8,14.1m4.7,69.9a5.09,5.09,0,0,1-4.6,5.1c-2.5,0-3.9-2.2-3.9-4.5,0-2.7,2.1-5.2,4.6-5.2,3.3,0,3.9,3.4,3.9,4.6" style="fill:#fff"/></g><g style="clip-path:url(#b2236a6c-23d5-42da-b674-1c1e9016e734)"><path d="M158.7,65.2a3.9,3.9,0,0,1,1.2,2.9c0,1.8-2.4,3.3-3.3,3.3s-1.8-.7-3-2.3c-1.7-2.5-2.7-3.6-4.3-3.6-2.8,0-5.7,3.6-8.6,9.1-3.4,5.9-6.5,16.2-6.5,24,0,3.9,1.8,6.2,4,6.2,3.3,0,7.5-2.8,11.5-7.5,1-1.1,1.2-1.3,1.6-1.3.6,0-.2,2.2-1,3.3-2.7,5.2-8.9,10.3-14.8,10.3-3.6,0-8.5-3.4-8.5-12.4A42.28,42.28,0,0,1,130.6,82c2.8-6.3,7.5-13,15-16.7a15.35,15.35,0,0,1,7.6-2.2,6.75,6.75,0,0,1,5.5,2.1" style="fill:#fff"/></g><g style="clip-path:url(#b2236a6c-23d5-42da-b674-1c1e9016e734)"><path d="M193.1,76.8c0,12.4-8.6,24.4-13.9,28.3-4.6,3.5-8.2,4.3-11.6,4.3-4.1,0-8.9-3.9-8.9-13.3,0-6.4,3-16.7,8.6-23.4,5.6-7,11.6-9.9,16.5-9.9,7.4,0,9.3,8.4,9.3,14m-20.2-2c-4.7,7.5-8.3,17.7-8.3,26,0,4.5,1.3,6.9,3.7,6.9,1.9,0,4.6-1.7,7.6-5.6,5.6-7.2,11.2-21.7,11.2-29.9,0-2.9-.1-7.7-3.1-7.7-2.8,0-6.5,3.2-11.1,10.3" style="fill:#fff"/></g><g style="clip-path:url(#b2236a6c-23d5-42da-b674-1c1e9016e734)"><path d="M223.9,70.6c0,3-1.8,5.2-4,6.9a55.66,55.66,0,0,1-7.8,4.7c-.7.4-.1.7.2.7,5.6,1.4,9.1,4.6,9.1,10.3,0,5.4-5.8,11.5-15,14.9a22.19,22.19,0,0,1-7.8,1.3c-4.5,0-8.1-2.8-8.1-5.8,0-1.5,1-2.9,1.5-2.9s.7.4,1.1.7c1.9,3,4.7,5.2,10.1,5.2a9.89,9.89,0,0,0,7.8-3.5,12.67,12.67,0,0,0,2.9-8.3c0-4.9-3-8.6-7.6-8.6a8,8,0,0,0-3.6.6c-.2,0-1.7.4-1.7-.2s.7-1.1,1.6-1.4a51.43,51.43,0,0,0,8.5-4.2c3.9-2.3,6-5.5,6-9.3,0-2.7-1.6-6-5.7-6-3.6,0-6.9,3.6-8.8,7-.5.7-.7.7-1.1.4-.4-.6-.2-2.4-.1-3a3.91,3.91,0,0,1,1.4-2.3c2.8-2.1,7.4-4.8,12.3-4.8,5.7-.2,8.8,3.4,8.8,7.6" style="fill:#fff"/></g><g style="clip-path:url(#b2236a6c-23d5-42da-b674-1c1e9016e734)"><path d="M249.5,65.4a14.06,14.06,0,0,1-.7,3c-1.7,4.5-4.5,11.1-6.3,15.8-.1.2,0,.5.4.5l15.3-.5c.5,0,1-.8,1.1-1.1,3-7,6.2-15.8,7.1-17.5a5.88,5.88,0,0,1,1.8-1.6,15.77,15.77,0,0,1,5.1-1.2c.6,0,.8.4.6.7-.7,1.3-2.4,4.8-3.3,6.6-3.6,8.7-8.6,21.7-11,29.3-.5,1.2-.1,1.8.5,1.8,1.7,0,6.8-3.7,9.5-6.9,1.4-1.6,1.6-.1.5,1.3-4.8,7-13.5,13.3-17.1,13.3a2.59,2.59,0,0,1-2.4-1.6c-.5-.7,0-1.8.5-3.4.2-1,1.6-4.1,3-7.9,1-2.4,2.4-5.8,3.6-9.2.1-.2.4-1,0-1L242.1,87c-.4,0-.8,1-1.2,1.6-2.4,5.3-5.2,12.1-7.8,17.8-1.1,2.5-1.8,2.7-2.3,2.7-1.9,0-3.3-2.1-3.4-2.7a6,6,0,0,1,.5-2.3c4.1-9.5,8.8-21,13-32.4.8-2.1.5-2.7-.4-2.7-1.7,0-6.4,2.9-8.9,5.8-.7.5-1.3.2-1-.5,3.6-6.2,12.3-11.6,16.3-11.6a3.13,3.13,0,0,1,2.6,2.7" style="fill:#fff"/></g><g style="clip-path:url(#b2236a6c-23d5-42da-b674-1c1e9016e734)"><path d="M309.5,66.5c.1,0,.5,0,.6-.2,1.6-2.8,2.4-3.6,2.9-3.6a6,6,0,0,1,3,1.3c.4.2.5,1.1.2,1.9-1,3.1-8.3,22.3-12.7,35.1-.2.6.1,1.1.7,1.1,3,0,7.1-3.5,10.1-7.7.7-.7,1.2-.6,1,.4a6.4,6.4,0,0,1-.7,1.9c-3.1,5.6-10.6,12.8-16.8,12.8-1.6,0-2.7-.7-2.7-1.8,0-1.6,3.5-9.8,6.8-18.6.2-.6-.1-.8-.4-.5-13,14.9-21.6,20.9-25.6,20.9-1.9,0-3.7-1.9-3.7-5.1s2.3-8.7,5.9-14.1a75.77,75.77,0,0,1,16.7-17.9c4.7-3.7,10.5-7.1,12.1-7.1a4.46,4.46,0,0,1,2.6,1.2M290,79.4c-4.7,5.2-9.9,15.8-9.9,21,0,1,.4,2.5,1.8,2.5,2.2,0,5.3-2.3,8.8-5.4a66.19,66.19,0,0,0,16.7-25.2c.1-.2,0-.6,0-.8a8.6,8.6,0,0,0-3.4-1c-4.7,0-10.3,4.7-14,8.9" style="fill:#fff"/></g><g style="clip-path:url(#b2236a6c-23d5-42da-b674-1c1e9016e734)"><path d="M341.9,65.4a14.06,14.06,0,0,1-.7,3c-1.7,4.5-4.5,11.1-6.3,15.8-.1.2,0,.5.4.5l15.3-.5c.5,0,1-.8,1.1-1.1,3-7,6.2-15.8,7.1-17.5a5.88,5.88,0,0,1,1.8-1.6,15.77,15.77,0,0,1,5.1-1.2c.6,0,.8.4.6.7-.7,1.3-2.4,4.8-3.3,6.6-3.6,8.7-8.6,21.7-11,29.3-.5,1.2-.1,1.8.5,1.8,1.7,0,6.8-3.7,9.5-6.9,1.4-1.6,1.6-.1.5,1.3-4.8,7-13.5,13.3-17.1,13.3a2.59,2.59,0,0,1-2.4-1.6c-.5-.7,0-1.8.5-3.4.2-1,1.6-4.1,3-7.9,1-2.4,2.4-5.8,3.6-9.2.1-.2.4-1,0-1L334.5,87c-.4,0-.8,1-1.2,1.6-2.4,5.3-5.2,12.1-7.8,17.8-1.1,2.5-1.8,2.7-2.3,2.7-1.9,0-3.3-2.1-3.4-2.7a6,6,0,0,1,.5-2.3c4.1-9.5,8.8-21,13-32.4.8-2.1.5-2.7-.4-2.7-1.7,0-6.4,2.9-8.9,5.8-.7.5-1.3.2-1-.5,3.6-6.2,12.3-11.6,16.3-11.6a3.13,3.13,0,0,1,2.6,2.7" style="fill:#fff"/></g><g style="clip-path:url(#b2236a6c-23d5-42da-b674-1c1e9016e734)"><path d="M389.7,65.4a14.06,14.06,0,0,1-.7,3c-1.7,4.5-4.5,11.1-6.3,15.8-.1.2,0,.5.4.5l15.3-.5c.5,0,1-.8,1.1-1.1,3-7,6.2-15.8,7.1-17.5a5.88,5.88,0,0,1,1.8-1.6,15.77,15.77,0,0,1,5.1-1.2c.6,0,.8.4.6.7-.7,1.3-2.4,4.8-3.3,6.6-3.6,8.7-8.6,21.7-11,29.3-.5,1.2-.1,1.8.5,1.8,1.7,0,6.8-3.7,9.5-6.9,1.4-1.6,1.6-.1.5,1.3-4.8,7-13.5,13.3-17.1,13.3a2.59,2.59,0,0,1-2.4-1.6c-.5-.7,0-1.8.5-3.4.2-1,1.6-4.1,3-7.9,1-2.4,2.4-5.8,3.6-9.2.1-.2.4-1,0-1L382.3,87c-.4,0-.8,1-1.2,1.6-2.4,5.3-5.2,12.1-7.8,17.8-1.1,2.5-1.8,2.7-2.3,2.7-1.9,0-3.3-2.1-3.4-2.7a6,6,0,0,1,.5-2.3c4.1-9.5,8.8-21,13-32.4.8-2.1.5-2.7-.4-2.7-1.7,0-6.4,2.9-8.9,5.8-.7.5-1.3.2-1-.5,3.6-6.2,12.3-11.6,16.3-11.6a3.13,3.13,0,0,1,2.6,2.7" style="fill:#fff"/></g><g style="clip-path:url(#b2236a6c-23d5-42da-b674-1c1e9016e734)"><path d="M435.8,64.8a6.51,6.51,0,0,1-.7,3.3l-8.6,18.7c-.2.8-.2,1.6.6.6,4.5-5.2,11-8.6,14.9-8.6a5.56,5.56,0,0,1,4.2,1.6,8.56,8.56,0,0,1,2.1,6.2c0,7-6.5,14.9-12.3,18.5-5,3.1-9.2,4.1-12.3,4.1-4.8,0-8.5-2.1-8.5-7.6a23.09,23.09,0,0,1,1.9-7c2.9-7.5,7-16.7,10.3-24.1.4-1,.4-1.7-.5-1.7-1.7,0-6.2,3.4-8.5,5.6-.8.7-1.2-.1-.5-1.1,2.7-4.2,10.6-10.4,15.9-10.4a2.06,2.06,0,0,1,2,1.9m-9.1,25.6c-1.9,2.3-5.1,9.1-5.2,12.3,0,2.5,1,4.6,3.9,4.6,2.7,0,5.6-1.7,7.8-3.9,5.2-5.1,8.5-12.3,8.5-17,0-2.1-1-4.2-3.3-4.2s-6.9,2.1-11.7,8.2m43.8-25.6a14.74,14.74,0,0,1-.8,3.5c-4.6,11.4-8.9,23.3-12.4,31.8-.2,1.2,0,1.7.8,1.7,1.1,0,5.3-2.3,9.8-7.7.7-.8,1.5,0,.5,1.5-4.2,7-13.9,13.6-17.7,13.6a3.2,3.2,0,0,1-2.1-1.7c-.4-.8,0-2.7.8-4.7,4.1-10.6,10-25.2,14.8-36.7,1.1-2.4,1.8-3.1,2.8-3.1a3.47,3.47,0,0,1,3.5,1.8" style="fill:#fff"/></g><g style="clip-path:url(#b2236a6c-23d5-42da-b674-1c1e9016e734)"><path d="M518,70.4c-3.1,8-6.8,18-11.1,28.4-.6,1.7-.6,2.7.6,2.7,3,0,8.3-5.8,9.2-6.8,1.6-1.9,1.7-.4.7,1.3-3.9,6.9-12.6,13.4-16.8,13.4a2.18,2.18,0,0,1-1.9-2.4,12.43,12.43,0,0,1,1-4.8c1-2.5,3.7-8.9,6.3-15.7.5-1.3.2-1.4-.8-.5-4.8,6-13.5,15.2-20.5,20.3-3.6,2.7-5.6,3.1-7,3.1a2.34,2.34,0,0,1-2.2-1.6c-.8-1.7-.5-4.5.7-8.3,2.8-8.1,8.2-20.2,11.2-27.8.4-1,.4-1.7-.2-1.7-1.7,0-5.1,2.8-8,5.6-2.3,2.1-1.8-.1-.8-1.2,2.8-4.5,11-11.6,15.3-11.6,1.8,0,3,1.9,1.6,6.3-1.3,3.7-10.3,24.6-13.2,32.2-.5,1.5-.2,2.8.8,2.8,1.9,0,6.4-3.1,13.4-11,7.4-8.5,14.5-21.3,18.2-27.7a5.6,5.6,0,0,1,4-2.5c1.5,0,1.6,1.8-.5,7.5M497.1,47.8a3.1,3.1,0,0,1,1-2.3,7.49,7.49,0,0,1,2.4-1.6c.4,0,.6.2.6,1,0,3.7,2.2,5.4,5.9,5.4a10.16,10.16,0,0,0,8.6-5.3c.5-.6.8-1.1,1.3-1.1s.4.6.1,1.4c-2.4,5.1-6.6,8.7-12.3,8.7-4.7.1-7.6-3.2-7.6-6.2" style="fill:#fff"/></g><g style="clip-path:url(#b2236a6c-23d5-42da-b674-1c1e9016e734)"><rect x="121.1" y="142" width="34.6" height="14"/></g><g style="clip-path:url(#e8f6143d-202f-475e-9211-0fdf7ce06b6d)"><rect x="360.1" y="157.21" width="14" height="34.6" transform="translate(157.78 522.93) rotate(-84.43)"/></g><g style="clip-path:url(#b2236a6c-23d5-42da-b674-1c1e9016e734)"><rect x="367" y="136.8" width="15.9" height="19.2" style="fill:#ed1b2f"/></g><g style="clip-path:url(#b2236a6c-23d5-42da-b674-1c1e9016e734)"><path d="M130.2,130.8l1.1-6.8H146l-1.1,6.8h.5c14.7,0,23.5,9.4,21,24.4-2.4,14.2-14.3,23.2-29,23.2H137l-1.2,7.2H121l1.2-7.2H122c-14.7,0-23.7-8.9-21.4-23.3,2.5-15,14.8-24.3,29.3-24.3Zm-15.3,24.3c-1.2,7.6,3.5,10.3,9.2,10.3h.3l3.6-21.7h-.3c-5.8.1-11.4,3.1-12.8,11.4m24.3,10.4h.6c5.8,0,11-3,12.3-10.2,1.4-8.3-2.8-11.5-8.6-11.5h-.6Z" style="fill:#fff"/></g><g style="clip-path:url(#b2236a6c-23d5-42da-b674-1c1e9016e734)"><path d="M178.8,125h25.1c13,0,20.2,8.2,18.2,20.6-2,12.6-12.2,20.3-25.6,20.3h-8.7l-2.9,17.3H169.1Zm16.5,28.7c5.7,0,9.4-3.1,10.2-8.1s-1.9-8-7.5-8h-5.6l-2.7,16h5.6Z" style="fill:#fff"/></g><g style="clip-path:url(#b2236a6c-23d5-42da-b674-1c1e9016e734)"><polygon points="247 125 241.9 155.5 242.4 155.5 268.1 125 281.5 125 271.9 183.2 256.1 183.2 261.1 152.6 260.8 152.6 234.8 183.2 221.6 183.2 231.2 125 247 125" style="fill:#fff"/></g><g style="clip-path:url(#b2236a6c-23d5-42da-b674-1c1e9016e734)"><path d="M279.5,171l1.6-.2c6-.9,9.5-5.8,12.6-21.4l5-24.4h42.2l-9.7,58.2H316l7.6-45.9H311.2l-4,18.3c-4.3,20.3-11.1,27.6-25.9,27.6h-3.9Z" style="fill:#fff"/></g><g style="clip-path:url(#b2236a6c-23d5-42da-b674-1c1e9016e734)"><path d="M336.8,183.2,365.7,125h21.6l9.5,58.2h-17l-1.5-11.1H359l-5.2,11.1Zm39.8-23L374,141h-.5l-9,19.2Z" style="fill:#fff"/></g><g style="clip-path:url(#b2236a6c-23d5-42da-b674-1c1e9016e734)"><polygon points="412 125 427.8 125 424 147.7 444.9 147.7 448.7 125 464.5 125 454.8 183.2 439 183.2 442.8 160.5 421.9 160.5 418.1 183.2 402.3 183.2 412 125" style="fill:#fff"/></g><g style="clip-path:url(#b2236a6c-23d5-42da-b674-1c1e9016e734)"><path d="M506.8,146.8c.4-5.3-2.1-8.9-7.8-8.9-8.3,0-14.1,6.5-15.9,17-1.6,10.2,1.6,15.2,8.7,15.2,6.3,0,10.8-3.2,12.4-8.1h15.9c-2.4,9.9-12.5,21.8-29.2,21.8-16.4,0-27-11-23.7-30.8,3.2-19.1,16.8-29,31.9-29s24.6,8.2,23.5,22.6H506.8Z" style="fill:#fff"/></g></g></svg>