<svg id="e1fe7803-32ab-44b2-8567-ac09c9106e9e" data-name="e198d402-37df-4a1f-a7b3-07dadb382fd7" xmlns="http://www.w3.org/2000/svg" viewBox="0 0 234.44 232.14"><path d="M81.89,88.39V58.26q3-.52,6-1v32.6ZM166,85.48V60.4c-1.07-.33-5.73-1.65-8.39-2.2V87.93C158.57,87.68,164.9,86,166,85.48Zm-14.45,3V57.79c-2.26-.38-4.56-.74-6.92-1.09V90.22ZM78.3,88V58.57c-4.15.76-6.29,1.55-10,2.29V85.77C69.67,86.1,73.41,86.92,78.3,88Zm11.6-31V90.32c.4.1,6.38,2,6.38,2,5.07-6.72,15.85-11.88,20.65-11.88,5.39,0,14.94,5,20.81,12,0,0,4.2-1.48,5-1.69V56.44a179.26,179.26,0,0,0-24.43-1.83A189.85,189.85,0,0,0,89.9,56.94Zm28.51-6.16A213.56,213.56,0,0,0,56.8,59.86C58.88,37,70.42,7,116.73,7,163.66,7,174.86,38.3,177.15,59A219.25,219.25,0,0,0,118.41,50.78ZM101.63,21a1.83,1.83,0,0,0-1.83-1.83c-9.41,0-21.27,7.86-24.87,16.49a1.83,1.83,0,0,0,1,2.39,1.76,1.76,0,0,0,.71.14,1.83,1.83,0,0,0,1.69-1.12c3-7.19,13.65-14.24,21.49-14.24A1.82,1.82,0,0,0,101.63,21ZM92.32,201.5a2.18,2.18,0,1,0,2.17,2.17A2.17,2.17,0,0,0,92.32,201.5ZM65,168.65a6.07,6.07,0,1,0,6.07,6.07A6.06,6.06,0,0,0,65,168.65Zm77.1,32.85a2.18,2.18,0,1,0,2.17,2.17A2.18,2.18,0,0,0,142.12,201.5Zm87,19.51c0,2.33-2.47,4.24-5.5,4.24H10.79c-3,0-5.49-1.9-5.49-4.24,0,0,8.45-47.11,13.32-51.85,2.41-2.35,32.68-14.88,60.52-26.11-10.23-6.57-17.48-16.88-20.76-29.22,0,0,.92-1.26,1.39-1.39,3.08-.89,6.39,1.43,7.86,1.63l.26,0a1.83,1.83,0,0,0,.25-3.65A76.67,76.67,0,0,1,56,107.79c-3.92-1.43-8.85-5.25-8.85-9.68V72.92c0-3.25,2.77-5.94,5.72-7.88,3.5-1.23,8.88-2.44,13-3.47V88.35l30.8,9.77c6.58-8.52,16.46-14,20.31-14S129.68,88.5,137.4,98.2c0,0,30.87-10,30.87-10l0-27.18c4.34,1,9.91,2.06,13.64,3.29,2.91,2.08,5.06,5.15,5.06,8.59V98.11c0,4.56-5.25,8.44-9.18,9.85a70.29,70.29,0,0,1-11.46,2.48,1.83,1.83,0,0,0,.25,3.65l.25,0c1.44-.2,4.66-2.46,7.68-1.59.45.13,1.31,1.31,1.31,1.31C172.6,126.54,165.34,137,155,143.41c21,7.33,54.74,21.36,59.4,25.46C219.59,173.41,229.15,221,229.15,221ZM97.92,107.7l.48,11.83c4.06-4.69,10.86-7.78,18.55-7.78s14.5,3.09,18.55,7.78l.49-11.82c-.64-.21-15.07-15.61-19.08-15.61C112.62,92.1,98.54,107.49,97.92,107.7Zm9.32,47.47a30.1,30.1,0,0,1,9.8-1.48,30.47,30.47,0,0,1,9.63,1.41l0-6.06c-.65-.72-3.91-1.95-9.6-1.95-6,0-9.33,1.37-9.7,2.07C107.33,149.26,107.24,155.17,107.24,155.17Zm9.8-16a30.41,30.41,0,0,1,9.58,1.39l0-9.95h0c0-4.64-7.37-5-9.63-5s-9.46.36-9.61,4.87l0,10.16A30.16,30.16,0,0,1,117,139.14Zm-9.85,30.61a29.9,29.9,0,0,1,9.85-1.5,30.38,30.38,0,0,1,9.69,1.43l0-6c-.54-.71-3.84-2-9.65-2-6,0-9.33,1.37-9.71,2.06C107.33,163.92,107.19,169.75,107.19,169.75Zm-.06,14.57A29.79,29.79,0,0,1,117,182.8a30.44,30.44,0,0,1,9.74,1.45s-.06-6-.06-6c-.48-.7-3.8-2-9.68-2s-9.33,1.37-9.7,2.06C107.33,178.57,107.13,184.32,107.13,184.32Zm-.06,14.58c3.39-1.37,8-1.54,10-1.54a30,30,0,0,1,9.8,1.47s-.12-5.92-.12-6c-.48-.71-3.8-2-9.68-2s-9.33,1.37-9.7,2.07C107.33,193.16,107.07,198.9,107.07,198.9Zm-58.38-4.71,24.58.13a.29.29,0,0,0,.1,0c.08,0,.15,0,.22,0l3.5,0-.27-5.88H48.69Zm23.69,21.12h6.86l-.32-3.92H72.18l-.68-12.78-16.6-.1-1.22,12.88h-5v3.92h4.65l-.41,4.3H72.61Zm26.4-11.64a6.47,6.47,0,1,0-6.46,6.47A6.47,6.47,0,0,0,98.78,203.67Zm2.42-41.49H75.63l-.42-9.35c-8.8,3.58-18.19,7.43-26.52,10.91v20.42H76.62V184h24.13ZM103,144a16.39,16.39,0,0,1-8.52-14.32s0,0,0,0l-.83-23.58a66.7,66.7,0,0,1-15-4.22c1,11.55,8.11,21.23,12,26.62,2.14,2.93,3.12,4.27,3.12,5.63,0,7.4,1.68,12.93,4.86,16a9.29,9.29,0,0,0,4.35,2.4Zm23.91,75.59c0-1.64-.18-10.25-.18-10.44-.48-.71-3.8-2-9.68-2s-9.33,1.37-9.71,2.07c0,.35-.28,8.77-.32,10.4Zm4-67.08a8.14,8.14,0,0,0,4.24-2.16c3.14-3,4.79-8.57,4.79-16.25,0-1.35.92-2.62,2.93-5.41,3.73-5.18,10.47-14.54,11.32-26.34a60.35,60.35,0,0,1-13.95,3.72l-.84,23.58s0,0,0,0a16.47,16.47,0,0,1-8.51,14.4Zm17.64,51.14a6.47,6.47,0,1,0-6.47,6.47A6.47,6.47,0,0,0,148.59,203.67Zm36.57,7.72H181l-1.22-12.92H163.16l-.69,12.92h-7l-.32,3.92h7.12l-.23,4.3h19.71l-.41-4.3h3.83Zm0-22.93H157.86l-.28,5.71h27.58Zm.06-25c-8.31-3.11-16.55-6.51-25.65-9.74l-.42,8.48H132l.45,21.86h25.67v.13h27.11Zm-15.82,17.34a6.07,6.07,0,1,0-6.07-6.06A6.06,6.06,0,0,0,169.42,180.78Z"/></svg>