<svg preserveAspectRatio="none" id="b1a77b14-d1a4-48b2-8e87-22db0d168c64" data-name="Layer 1" xmlns="http://www.w3.org/2000/svg" viewBox="0 0 1280 27.06"><path d="M777,27.06q-17.51,0-32.78-.16C654.28,26,643,21.42,642.33,18.06c-.33-1.65,1.78-3.23,6.62-5,5.54-2,5.93-3.32,5.83-3.78-1-4.94-45-12.23-328.75-5.61C164.63,7.44,1.65,14,0,14l0-1C1.61,13,164.59,6.44,326,2.68,420.82.46,496.54-.38,551.07.16c92.44.92,104,5.54,104.69,8.93.32,1.62-1.73,3.18-6.47,4.91-5.68,2.07-6.07,3.39-6,3.86,1,4.9,43.8,12.13,319.69,5.5,156.94-3.77,315.4-10.27,317-10.33l0,1c-1.58.06-160,6.56-317,10.33C888.53,26.15,826.15,27.06,777,27.06Z"/></svg>