<svg preserveAspectRatio="none" id="b194261b-47cd-434e-bb8a-eba8dece064a" data-name="Layer 1" xmlns="http://www.w3.org/2000/svg" viewBox="0 0 1280 85"><path d="M1280,63.13v2.05c-143.16,3.33-263.69,5-359.67,5q-35.83,0-67.09-.32c-184-1.84-207.11-11.21-208.48-18.1-.66-3.36,3.64-6.62,13.56-10.23,11.34-4.14,12.13-6.79,11.94-7.73-2-10.09-91.8-25-670.26-11.54V20.22C192.8,15.73,346.88,14,458,15.14,647.19,17,670.9,26.47,672.27,33.41c.65,3.32-3.56,6.51-13.25,10.05-11.63,4.24-12.44,6.95-12.25,7.91C648.73,61.27,734.22,75.82,1280,63.13Z"/></svg>