<?xml version="1.0" encoding="utf-8"?>
<!-- Generator: Adobe Illustrator 24.0.1, SVG Export Plug-In . SVG Version: 6.00 Build 0)  -->
<svg version="1.1" id="a9772937-c584-4fe0-90af-11cc54a782b5"
	 xmlns="http://www.w3.org/2000/svg" xmlns:xlink="http://www.w3.org/1999/xlink" x="0px" y="0px" viewBox="0 0 372.3 316.1"
	 style="enable-background:new 0 0 372.3 316.1;" xml:space="preserve">
<style type="text/css">
	.st0{fill:#B3B3B3;}
</style>
<title>smile</title>
<path class="st0" d="M308.2,0c-5.5,0.1-9.9,4.5-9.9,9.9c0.1,5.5,4.5,9.9,9.9,9.9c24.5,0.1,44.3,20,44.3,44.5c0,0.1,0,0.1,0,0.2
	c0,5.5,4.4,9.9,9.9,9.9c5.5,0,9.9-4.4,9.9-9.9c0.1-35.5-28.5-64.4-64-64.5C308.3,0,308.2,0,308.2,0z"/>
<path class="st0" d="M74.1,9.9C74,4.5,69.6,0.1,64.1,0C28.7,0,0,28.7,0,64.1c0.1,5.5,4.5,9.9,9.9,9.9c5.5-0.1,9.9-4.5,9.9-9.9
	c0-24.4,19.8-44.7,44.3-44.7c5.2,0.3,9.7-3.7,9.9-9C74,10.3,74.1,10.1,74.1,9.9z"/>
<path class="st0" d="M318.5,61.6c-0.8-3-3-5.4-5.8-6.6c-2.8-1.3-6-1.2-8.7,0.4C268,75.4,227.4,86,186.2,86.1
	c-41.3,0.1-81.9-10.4-117.9-30.6c-2.6-1.6-5.9-1.8-8.7-0.4c-2.8,1.2-5,3.7-5.8,6.6c-9.3,37.2-2.7,76.7,18.2,108.8
	c-14.5,17.9-22.4,40.3-22.3,63.3c0.5,45.5,37.8,81.9,83.2,81.4c44.8-0.5,80.9-36.7,81.4-81.4v-4.6c30-6.2,56.9-22.4,76.5-45.9l0,0
	c0.9-0.9,1.8-1.9,2.5-2.9c19-24,29.4-53.7,29.3-84.4C323,84.4,321.6,72.8,318.5,61.6z M214.3,209.3v-14.1c-0.2-5.5-4.8-9.8-10.2-9.6
	c-5.2,0.2-9.4,4.4-9.6,9.6v38.5c0,34.5-28,62.5-62.5,62.5s-62.5-28-62.5-62.5c0.1-44.5,36.1-80.6,80.7-80.7c1.8-0.1,3.6,0.1,5.4,0.4
	c-25.4,18.9-40.4,48.6-40.5,80.3c-0.2,5.5,4.1,10.1,9.6,10.2s10.1-4.1,10.2-9.6c0-0.2,0-0.4,0-0.6c0.1-44.5,36.1-80.6,80.7-80.7
	c20.9,0,40.9,8.2,55.8,22.8C256.1,192.4,236.2,204,214.3,209.3z M283.8,160.5c-18.5-17.4-42.9-27-68.3-26.9
	c-11.1,0.1-22.1,1.9-32.7,5.4c-10.4-3.6-21.3-5.4-32.3-5.4c-23.2,0.1-45.7,8.1-63.7,22.8c-11.2-18.2-17.1-39.1-17-60.4
	c0-5.7,0.4-11.4,1.3-17c36,17.4,75.7,26.9,115.4,26.9c40,0.1,79.6-9.1,115.4-26.9c0.8,5.6,1.2,11.3,1.2,17
	C303.3,119,296.5,141.4,283.8,160.5L283.8,160.5z"/>
</svg>
