<svg id="a9772937-c584-4fe0-90af-11cc54a782b5" data-name="a045dab7-5f15-424a-ab4c-93ee40aa9bfb" xmlns="http://www.w3.org/2000/svg" viewBox="0 0 372.33 316.06"><title>smile</title><path d="M308.2,0a10.07,10.07,0,0,0-9.93,9.93,10.07,10.07,0,0,0,9.93,9.93,44.4,44.4,0,0,1,44.27,44.68,9.93,9.93,0,0,0,19.86,0A64.27,64.27,0,0,0,308.2,0Z" style="fill:#999"/><path d="M74.05,9.93A10.07,10.07,0,0,0,64.12,0,64.17,64.17,0,0,0,0,64.12a10.07,10.07,0,0,0,9.93,9.93,10.07,10.07,0,0,0,9.93-9.93c0-24.41,19.85-44.68,44.26-44.68A9.45,9.45,0,0,0,74.05,9.93Z" style="fill:#999"/><path d="M318.54,61.64A10.2,10.2,0,0,0,312.75,55a9.23,9.23,0,0,0-8.68.42A244.42,244.42,0,0,1,186.16,86.05,239.77,239.77,0,0,1,68.26,55.44,9.19,9.19,0,0,0,59.57,55a10.25,10.25,0,0,0-5.79,6.62A137.93,137.93,0,0,0,72,170.44a100,100,0,0,0-22.34,63.3,82.33,82.33,0,0,0,164.65,0v-4.55a135.58,135.58,0,0,0,76.54-45.92h0a18.72,18.72,0,0,0,2.48-2.9A135.72,135.72,0,0,0,322.68,96,119.8,119.8,0,0,0,318.54,61.64ZM214.29,209.33V195.26a9.93,9.93,0,0,0-19.85,0v38.48a62.47,62.47,0,0,1-124.94,0,80.77,80.77,0,0,1,80.67-80.67,23.81,23.81,0,0,1,5.38.41A100.46,100.46,0,0,0,115,233.74a9.93,9.93,0,1,0,19.85,0,80.78,80.78,0,0,1,80.67-80.67,79.91,79.91,0,0,1,55.85,22.75A114.43,114.43,0,0,1,214.29,209.33Zm69.5-48.82a99.25,99.25,0,0,0-68.26-26.89A106.12,106.12,0,0,0,182.85,139a96.13,96.13,0,0,0-32.27-5.38,101.42,101.42,0,0,0-63.7,22.76,114.84,114.84,0,0,1-17-60.4,116.62,116.62,0,0,1,1.25-17c36,17.37,75.7,26.89,115.42,26.89A258.62,258.62,0,0,0,302,79a118,118,0,0,1,1.24,17A116.1,116.1,0,0,1,283.79,160.51Z" style="fill:#999"/></svg>