<svg id="b99c27e9-301b-4a82-8310-a5bab947c1eb" data-name="b95f8df1-fe8c-471e-9a93-b21a12a7ff78" xmlns="http://www.w3.org/2000/svg" xmlns:xlink="http://www.w3.org/1999/xlink" viewBox="0 0 209.08 209.08"><defs><linearGradient id="fa02016a-c8bb-45c7-a405-2942fedc0799" x1="48.06" y1="174.65" x2="48.06" y2="174.44" gradientTransform="matrix(1000, 0, 0, -1000, -47952, 174649.03)" gradientUnits="userSpaceOnUse"><stop offset="0" stop-color="#2aabee"/><stop offset="1" stop-color="#229ed9"/></linearGradient></defs><g id="b8bd8c9f-2345-461f-9643-f26768e873ef" data-name="Artboard"><circle id="bf9f2367-bb0d-4809-a75e-600fca44c388" data-name="Oval" cx="104.54" cy="104.54" r="104.54" style="fill:url(#fa02016a-c8bb-45c7-a405-2942fedc0799)"/><path id="aa39fb93-487b-4b1c-b96e-9a84b7adaed0" data-name="Path-3" d="M47.32,103.44q45.72-19.92,61-26.26c29-12.08,35.06-14.18,39-14.25a6.92,6.92,0,0,1,4.05,1.22A4.44,4.44,0,0,1,152.82,67,18.28,18.28,0,0,1,153,71.1c-1.57,16.53-8.38,56.64-11.85,75.16-1.46,7.83-4.35,10.46-7.14,10.72-6.07.55-10.68-4-16.56-7.87-9.2-6-14.4-9.79-23.33-15.67-10.32-6.8-3.63-10.54,2.25-16.65,1.54-1.6,28.29-25.93,28.81-28.14a2.17,2.17,0,0,0-.49-1.85,2.43,2.43,0,0,0-2.16-.21q-1.4.31-44.1,29.15-6.25,4.29-11.34,4.19c-3.73-.08-10.91-2.11-16.25-3.85-6.55-2.13-11.75-3.25-11.3-6.87Q39.9,106.39,47.32,103.44Z" style="fill:#fff;fill-rule:evenodd"/></g></svg>