<svg id="b95f8df1-fe8c-471e-9a93-b21a12a7ff78" data-name="fc1ca27f-00f7-44ca-9a23-e50372ec2db3" xmlns="http://www.w3.org/2000/svg" xmlns:xlink="http://www.w3.org/1999/xlink" viewBox="0 0 209.2 209.2"><defs><linearGradient id="a218d122-e1e2-444b-a57a-73e26cbc5b7d" y1="-493.47" x2="209.2" y2="-493.47" gradientTransform="matrix(1, 0, 0, -1, 0, -388.87)" gradientUnits="userSpaceOnUse"><stop offset="0" stop-color="#37aee2"/><stop offset="1" stop-color="#1e96c8"/></linearGradient><linearGradient id="be843ea4-fdeb-4831-be76-ec7c2bed011a" x1="198.17" y1="-2104.16" x2="198.34" y2="-2103.84" gradientTransform="translate(-25746.87 230406.95) scale(130.49 109.45)" gradientUnits="userSpaceOnUse"><stop offset="0" stop-color="#eff7fc"/><stop offset="1" stop-color="#fff"/></linearGradient><linearGradient id="accbd8c4-b907-4ab2-a1c7-9ca1cd81da85" x1="-785.97" y1="408.51" x2="-932.41" y2="262.07" gradientTransform="matrix(0, 1, 1, 0, -230.99, 964.59)" gradientUnits="userSpaceOnUse"><stop offset="0.7" stop-color="#f2f2f2" stop-opacity="0"/><stop offset="1" stop-color="#f2f2f2" stop-opacity="0.3"/></linearGradient></defs><g id="b658e501-8bf3-4a18-bcd9-b7d05fa9ca2a" data-name="b89e3112-e1c3-499a-88ef-53ac1a994b16"><circle cx="104.6" cy="104.6" r="104.6" style="fill:url(#a218d122-e1e2-444b-a57a-73e26cbc5b7d)"/><path d="M85.4,152.6c-3.4,0-2.8-1.3-4-4.5l-10-32.8,76.8-45.5" style="fill:#b3b3b3"/><path d="M85.4,152.6c2.6,0,3.8-1.2,5.2-2.6l14-13.6L87.2,125.9" style="fill:#ccc"/><path d="M87.2,125.9,129.4,157c4.8,2.7,8.3,1.3,9.5-4.5L156,71.7c1.8-7-2.7-10.2-7.3-8.2L47.9,102.4c-6.9,2.8-6.8,6.6-1.3,8.3l25.9,8.1L132.4,81c2.8-1.7,5.4-.8,3.3,1.1" style="fill:url(#be843ea4-fdeb-4831-be76-ec7c2bed011a)"/><ellipse cx="104.3" cy="105.4" rx="103.5" ry="103.6" style="fill:url(#accbd8c4-b907-4ab2-a1c7-9ca1cd81da85)"/></g></svg>