<svg id="b873e4e4-c80e-478a-a643-e708bb90d340" data-name="b99c27e9-301b-4a82-8310-a5bab947c1eb" xmlns="http://www.w3.org/2000/svg" viewBox="0 0 208.81 182.92"><path d="M205.32,145.11,126,12.31A25.1,25.1,0,0,0,104.41,0,25.38,25.38,0,0,0,82.86,12.09l-79.37,133a24.9,24.9,0,0,0-.22,25.06A24.62,24.62,0,0,0,25,182.92H183.77a25.09,25.09,0,0,0,21.55-37.81Zm-111-81.79a10.12,10.12,0,0,1,20.23,0v42a10.12,10.12,0,0,1-20.23,0Zm10.12,87.28a12.31,12.31,0,1,1,12.31-12.31A12.29,12.29,0,0,1,104.41,150.6Z"/></svg>